<svg width="28" height="28" fill="none" xmlns="http://www.w3.org/2000/svg"><path d="M17.627 9.72l-5.72 5.734-2.2-2.2a1.333 1.333 0 10-1.88 1.88l3.133 3.146a1.332 1.332 0 00.947.387c.35-.002.685-.14.933-.387l6.667-6.666a1.336 1.336 0 000-1.894 1.334 1.334 0 00-1.88 0zM14 .667a13.333 13.333 0 100 26.667A13.333 13.333 0 0014 .667zm0 24a10.666 10.666 0 110-21.333 10.666 10.666 0 010 21.333z" fill="#20A35A"/><path d="M17.627 9.72l-5.72 5.734-2.2-2.2a1.333 1.333 0 10-1.88 1.88l3.133 3.146a1.332 1.332 0 00.947.387c.35-.002.685-.14.933-.387l6.667-6.666a1.336 1.336 0 000-1.894 1.334 1.334 0 00-1.88 0zM14 .667a13.333 13.333 0 100 26.667A13.333 13.333 0 0014 .667zm0 24a10.666 10.666 0 110-21.333 10.666 10.666 0 010 21.333z" fill="#2CBB6B"/></svg>