<svg width="42" height="42" fill="none" xmlns="http://www.w3.org/2000/svg"><path fill-rule="evenodd" clip-rule="evenodd" d="M38 42H4a4 4 0 01-4-4V6.5C0 4.29 1.79 3 4 3h3v-.5C7 1.12 8.62.09 10 0a2.91 2.91 0 013 3h16v-.5C29 1.12 30.62.09 32 0a2.91 2.91 0 013 3h3c2.21 0 4 1.29 4 3.5V38a4 4 0 01-4 4zM11 3a1.072 1.072 0 00-1-1 1.029 1.029 0 00-1 1v5a1.006 1.006 0 001 1 1.046 1.046 0 001-1V3zm22 0a1.072 1.072 0 00-1-1 1.03 1.03 0 00-1 1v5a1.006 1.006 0 001 1 1.046 1.046 0 001-1V3zm7 3.5c0-1.1-.9-1.5-2-1.5h-3v3a3 3 0 01-6 0V5H13v3a3 3 0 01-6 0V5H4c-1.1 0-2 .4-2 1.5v6.49h38V6.5zm0 8.49H2V38a2.006 2.006 0 002 2h34a2.006 2.006 0 002-2V14.99zM24 32a4 4 0 01-4-4v-4a4 4 0 018 0v4a4 4 0 01-4 4zm2-8a2 2 0 00-4 0v4a2 2 0 004 0v-4zm-9 8a1 1 0 01-1-1v-9h-1a1 1 0 110-2h3v11a1 1 0 01-1 1z" fill="#fff"/></svg>