<svg width="30" height="42" fill="none" xmlns="http://www.w3.org/2000/svg"><g clip-path="url(#clip0)" fill-rule="evenodd" clip-rule="evenodd" fill="#fff"><path d="M25.07 39.4L22 42l-3.5-2.6L15 42l-3.5-2.6L8 42l-3.07-2.6L0 41.88V3.94A3.936 3.936 0 014 0h22a3.937 3.937 0 014 3.94V42l-4.93-2.6zM28 3.94A1.942 1.942 0 0026 2H4a1.943 1.943 0 00-2 1.94V39l3.07-1.93 2.97 2 3.46-2 3.5 2.02 3.5-2.02 3.46 2 2.97-2L28 39V3.94zM24 33H14a1 1 0 110-2h10a1 1 0 110 2zm0-4H6a1 1 0 110-2h18a1 1 0 110 2zM6 31h4a1 1 0 110 2H6a1 1 0 110-2z"/><path d="M16.25 16H14v1h1a1 1 0 110 2h-1v2a1 1 0 11-2 0v-2h-1a1 1 0 110-2h1V8h4.25a4.008 4.008 0 010 8zM14 10h2.25a2.018 2.018 0 010 4H14v-4z"/></g><defs><clipPath id="clip0"><path fill="#fff" d="M0 0h30v42H0z"/></clipPath></defs></svg>