<svg width="42" height="42" fill="none" xmlns="http://www.w3.org/2000/svg"><path fill-rule="evenodd" clip-rule="evenodd" d="M30.922 38.833l3.363 1.212a1 1 0 01.078 1.85 1.01 1.01 0 01-.769.034l-6.795-2.455 2.472-6.734a1.001 1.001 0 011.29-.591.977.977 0 01.663.887.982.982 0 01-.062.385l-1.35 3.698c3.912-1.794 6.734-5.462 8.575-9.37a17.273 17.273 0 00.59-13.389 17.018 17.018 0 00-6.267-8.262 16.979 16.979 0 00-9.894-3.082 1 1 0 01-1.1-.997 1.002 1.002 0 011.1-.997 18.86 18.86 0 0110.991 3.452 18.903 18.903 0 016.942 9.205c3.533 9.63-.62 20.935-9.827 25.154zm-11.098 2.154a19.413 19.413 0 01-11.16-3.192 19.456 19.456 0 01-7.353-8.994c-3.693-9.1.71-20.604 9.607-25.083.34-.17.69-.291 1.03-.441L8.296 1.954a.988.988 0 01-.6-1.273A1.01 1.01 0 018.985.08l6.785 2.445-2.47 6.734a1.002 1.002 0 01-1.291.602 1.001 1.001 0 01-.6-1.283l1.26-3.437c-.28.12-.57.22-.84.36C3.822 9.51-.212 19.882 3.181 28.11a17.512 17.512 0 006.628 8.038 17.475 17.475 0 0010.014 2.845 1 1 0 011.015 1.404 1.001 1.001 0 01-1.015.59z" fill="#fff"/></svg>