<svg width="40" height="40" fill="none" xmlns="http://www.w3.org/2000/svg"><path fill-rule="evenodd" clip-rule="evenodd" d="M37.144 38.095L11.03 39.99c-.105.01-.21.01-.315.01a4.072 4.072 0 01-2.847-1.067 3.333 3.333 0 01-1.2-2.742H3.81C1.668 36.19 0 33.77 0 31.428V4.248A4.083 4.083 0 013.887 0h32.228a4.083 4.083 0 013.886 4.248V33.57c.105 2.267-.819 4.477-2.857 4.524zM8.534 22.181l.038 2.58h1.905c1.277-.151 1.905-.618 1.905-1.904v-1.905a1.83 1.83 0 00-.39-1.562 3.017 3.017 0 00-1.515-.342l-1.933.343-.01 2.79zm-6.628 9.248c0 1.285.81 2.857 1.905 2.857h2.857v-20H1.906v17.143zm1.98-29.524a2.183 2.183 0 00-1.98 2.343v8.133h4.762V9.524c0-2.114.657-3.676 2.857-3.81L33.268 3.81c.571-.067.857-.296 1.019-1.905h-30.4zm34.21 2.343a2.683 2.683 0 00-1.904-2.343c-.21 2.257-1 3.58-2.858 3.81L9.524 7.618c-1.151.067-.951.914-.951 1.905l-.02 7.619h1.924a3.96 3.96 0 012.79.838c.753.676 1.02 1.476 1.02 2.971v1.905c0 2.238-1.59 3.534-3.81 3.81H8.525l-.029 9.123a2.33 2.33 0 00.677 1.753 2.232 2.232 0 001.714.552l26.257-1.904c.867-.162.952-1.477.952-2.62V4.248z" fill="#fff"/></svg>