<svg width="48" height="48" fill="none" xmlns="http://www.w3.org/2000/svg"><path fill-rule="evenodd" clip-rule="evenodd" d="M10.003 27.66A6 6 0 0112 16h9c3.78 0 8.96-1.943 15.486-5.858A1 1 0 0138 11v5.1a5 5 0 014 4.9v2a5.002 5.002 0 01-4 4.9V33a1 1 0 01-1.514.857C29.96 29.942 24.78 28 21 28h-2.56c-.304.372-.44.703-.44 1 0-.12.041-.1.326.044l.121.061C19.552 29.658 20 30.031 20 31c0 .703-.232 1.124-.719 1.646l-.05.054c-.204.218-.23.264-.231.432 0-.081.013-.077.366.062l.078.03C20.507 33.642 21 34.012 21 35c0 .96-.453 1.867-1.293 2.707-3.05 3.05-5.768 3.503-7.54.847-1.41-2.117-2.11-5.733-2.164-10.895zm2.005.34c.079 4.607.708 7.77 1.824 9.445.896 1.344 2.178 1.13 4.46-1.152.468-.468.685-.876.706-1.234-.022.128-.082.107-.284.028l-.08-.032c-1.09-.428-1.634-.862-1.634-1.913 0-.782.249-1.25.769-1.807l.05-.053c.15-.16.176-.192.18-.25-.01.083-.068.053-.325-.077l-.121-.06C16.448 30.341 16 29.968 16 29c0-.34.057-.674.168-1h-4.16zM38 25.829V18.17c1.165.412 2 1.523 2 2.83v2a3.001 3.001 0 01-2 2.829zm-16-7.866v8.073c3.742.27 8.398 2.015 14 5.218v-18.51c-5.602 3.204-10.258 4.95-14 5.219zM20 18v8h-8a4 4 0 010-8h8z" fill="#22A2EA"/><path fill-rule="evenodd" clip-rule="evenodd" d="M10.003 27.66A6 6 0 0112 16h9c3.78 0 8.96-1.943 15.486-5.858A1 1 0 0138 11v5.1a5 5 0 014 4.9v2a5.002 5.002 0 01-4 4.9V33a1 1 0 01-1.514.857C29.96 29.942 24.78 28 21 28h-2.56c-.304.372-.44.703-.44 1 0-.12.041-.1.326.044l.121.061C19.552 29.658 20 30.031 20 31c0 .703-.232 1.124-.719 1.646l-.05.054c-.204.218-.23.264-.231.432 0-.081.013-.077.366.062l.078.03C20.507 33.642 21 34.012 21 35c0 .96-.453 1.867-1.293 2.707-3.05 3.05-5.768 3.503-7.54.847-1.41-2.117-2.11-5.733-2.164-10.895zm2.005.34c.079 4.607.708 7.77 1.824 9.445.896 1.344 2.178 1.13 4.46-1.152.468-.468.685-.876.706-1.234-.022.128-.082.107-.284.028l-.08-.032c-1.09-.428-1.634-.862-1.634-1.913 0-.782.249-1.25.769-1.807l.05-.053c.15-.16.176-.192.18-.25-.01.083-.068.053-.325-.077l-.121-.06C16.448 30.341 16 29.968 16 29c0-.34.057-.674.168-1h-4.16zM38 25.829V18.17c1.165.412 2 1.523 2 2.83v2a3.001 3.001 0 01-2 2.829zm-16-7.866v8.073c3.742.27 8.398 2.015 14 5.218v-18.51c-5.602 3.204-10.258 4.95-14 5.219zM20 18v8h-8a4 4 0 010-8h8z" fill="#2B71FD"/><path fill-rule="evenodd" clip-rule="evenodd" d="M10.003 27.66A6 6 0 0112 16h9c3.78 0 8.96-1.943 15.486-5.858A1 1 0 0138 11v5.1a5 5 0 014 4.9v2a5.002 5.002 0 01-4 4.9V33a1 1 0 01-1.514.857C29.96 29.942 24.78 28 21 28h-2.56c-.304.372-.44.703-.44 1 0-.12.041-.1.326.044l.121.061C19.552 29.658 20 30.031 20 31c0 .703-.232 1.124-.719 1.646l-.05.054c-.204.218-.23.264-.231.432 0-.081.013-.077.366.062l.078.03C20.507 33.642 21 34.012 21 35c0 .96-.453 1.867-1.293 2.707-3.05 3.05-5.768 3.503-7.54.847-1.41-2.117-2.11-5.733-2.164-10.895zm2.005.34c.079 4.607.708 7.77 1.824 9.445.896 1.344 2.178 1.13 4.46-1.152.468-.468.685-.876.706-1.234-.022.128-.082.107-.284.028l-.08-.032c-1.09-.428-1.634-.862-1.634-1.913 0-.782.249-1.25.769-1.807l.05-.053c.15-.16.176-.192.18-.25-.01.083-.068.053-.325-.077l-.121-.06C16.448 30.341 16 29.968 16 29c0-.34.057-.674.168-1h-4.16zM38 25.829V18.17c1.165.412 2 1.523 2 2.83v2a3.001 3.001 0 01-2 2.829zm-16-7.866v8.073c3.742.27 8.398 2.015 14 5.218v-18.51c-5.602 3.204-10.258 4.95-14 5.219zM20 18v8h-8a4 4 0 010-8h8z" fill="#0A6FE7"/></svg>