<svg width="36" height="36" fill="none" xmlns="http://www.w3.org/2000/svg"><path d="M35.297 21.297h-3.16c-.601 0-1.184.25-1.6.686l-4.592 4.826v-9.232h.07c1.164 0 2.11-.946 2.11-2.11a2.112 2.112 0 00-2.11-2.109h-.07V9.562a.703.703 0 10-1.406 0v3.796h-4.194l-2.855-1.353a.889.889 0 00-.056-.031l-.305-.15a3.872 3.872 0 003.354-3.833 3.871 3.871 0 00-3.867-3.867 3.872 3.872 0 00-3.867 3.867c0 .937.335 1.797.89 2.467a3.783 3.783 0 00-1.275.164l-1.076-.53a3.772 3.772 0 00-5.045 1.712l-2.431 4.929a2.928 2.928 0 00-.143 2.266 2.93 2.93 0 001.51 1.696l.762.366a5.366 5.366 0 00.46 4.105l-.062.062-.001.002-3.384 3.383-.012.011-1.705 1.705a.704.704 0 000 .995l3.231 3.231a.54.54 0 00.042.038H.703a.703.703 0 100 1.407h6.75c.673 0 1.307-.26 1.786-.733l5.118-5.044a.935.935 0 01.66-.27h7.334a5.959 5.959 0 004.298-1.843l4.907-5.158a.806.806 0 01.582-.25h2.456v12.595a.703.703 0 001.406 0V22a.703.703 0 00-.703-.703zm-8.578-5.83a.704.704 0 01-.703.704h-5.582l.315-1.406h5.267c.387 0 .703.315.703.703zM16.616 5.53a2.464 2.464 0 012.46 2.461 2.464 2.464 0 01-2.46 2.461 2.464 2.464 0 01-2.461-2.46 2.464 2.464 0 012.46-2.462zm-2.1 6.573l2.233 1.1a.676.676 0 00.073.042l2.555 1.21-.315 1.408-2.842-1.348-.014-.005a.07.07 0 00-.019-.01l-1.557-.764a.703.703 0 00-.62 1.262l.925.454-1.811 3.673H8.42l2.934-5.95a2.364 2.364 0 013.162-1.072zM8.822 26.718l-.994-.994a.702.702 0 00.163-.482h1.407a2.214 2.214 0 01-.576 1.476zm1.231-4.126a2.22 2.22 0 00-.63 1.244H7.346c-.3-.88-.281-1.837.057-2.71a.697.697 0 00.124-.287 3.94 3.94 0 01.164-.308h5.492l-.703 1.406h-.845c-.597 0-1.159.233-1.581.655zm4.549 1.59l1.406-.378v1.93h-1.406v-1.553zm1.406-1.835l-1.633.44a1.706 1.706 0 00-.482-.533l.862-1.723h.262c.546 0 .99.444.99.99v.826zm-5.342-10.995l.234.116c-.324.302-.6.666-.808 1.086l-.623 1.263-2.162-.992.197-.399a2.364 2.364 0 013.162-1.074zM4.998 18.54a1.533 1.533 0 01.075-1.185l1.612-3.268 2.162.992-2.177 4.414-.165.28-.717-.346a1.532 1.532 0 01-.79-.887zm1.838 8.18l.994.995-2.402 2.401-.994-.994 2.402-2.402zm-4.108 4.107l.71-.711 1.03 1.03a1.708 1.708 0 01.39 1.812l-2.13-2.131zm5.524 3.439a1.133 1.133 0 01-.799.327H5.42a3.094 3.094 0 00.954-2.24c0-.354-.059-.698-.17-1.023l3.535-3.536a3.614 3.614 0 001.066-2.572v-1.05a.82.82 0 01.243-.585.822.822 0 01.586-.243h1.275c.158 0 .286.129.286.287v5.619a.72.72 0 00.013.132l-4.956 4.884zm6.765-5.72h-.415V27.14h1.453c.916 0 1.698.588 1.988 1.407h-3.025zm4.482 0a3.528 3.528 0 00-2.085-2.538V21.52a2.4 2.4 0 00-2.397-2.396h-.325l1.51-3.062 3.05 1.446c.025.012.05.021.076.03l.013.004.03.01.015.003.015.004.036.006.033.005a.717.717 0 00.086.006h4.983V27.98a4.541 4.541 0 01-2.188.567h-2.852z" fill="#22A2EA"/><path d="M35.297 21.297h-3.16c-.601 0-1.184.25-1.6.686l-4.592 4.826v-9.232h.07c1.164 0 2.11-.946 2.11-2.11a2.112 2.112 0 00-2.11-2.109h-.07V9.562a.703.703 0 10-1.406 0v3.796h-4.194l-2.855-1.353a.889.889 0 00-.056-.031l-.305-.15a3.872 3.872 0 003.354-3.833 3.871 3.871 0 00-3.867-3.867 3.872 3.872 0 00-3.867 3.867c0 .937.335 1.797.89 2.467a3.783 3.783 0 00-1.275.164l-1.076-.53a3.772 3.772 0 00-5.045 1.712l-2.431 4.929a2.928 2.928 0 00-.143 2.266 2.93 2.93 0 001.51 1.696l.762.366a5.366 5.366 0 00.46 4.105l-.062.062-.001.002-3.384 3.383-.012.011-1.705 1.705a.704.704 0 000 .995l3.231 3.231a.54.54 0 00.042.038H.703a.703.703 0 100 1.407h6.75c.673 0 1.307-.26 1.786-.733l5.118-5.044a.935.935 0 01.66-.27h7.334a5.959 5.959 0 004.298-1.843l4.907-5.158a.806.806 0 01.582-.25h2.456v12.595a.703.703 0 001.406 0V22a.703.703 0 00-.703-.703zm-8.578-5.83a.704.704 0 01-.703.704h-5.582l.315-1.406h5.267c.387 0 .703.315.703.703zM16.616 5.53a2.464 2.464 0 012.46 2.461 2.464 2.464 0 01-2.46 2.461 2.464 2.464 0 01-2.461-2.46 2.464 2.464 0 012.46-2.462zm-2.1 6.573l2.233 1.1a.676.676 0 00.073.042l2.555 1.21-.315 1.408-2.842-1.348-.014-.005a.07.07 0 00-.019-.01l-1.557-.764a.703.703 0 00-.62 1.262l.925.454-1.811 3.673H8.42l2.934-5.95a2.364 2.364 0 013.162-1.072zM8.822 26.718l-.994-.994a.702.702 0 00.163-.482h1.407a2.214 2.214 0 01-.576 1.476zm1.231-4.126a2.22 2.22 0 00-.63 1.244H7.346c-.3-.88-.281-1.837.057-2.71a.697.697 0 00.124-.287 3.94 3.94 0 01.164-.308h5.492l-.703 1.406h-.845c-.597 0-1.159.233-1.581.655zm4.549 1.59l1.406-.378v1.93h-1.406v-1.553zm1.406-1.835l-1.633.44a1.706 1.706 0 00-.482-.533l.862-1.723h.262c.546 0 .99.444.99.99v.826zm-5.342-10.995l.234.116c-.324.302-.6.666-.808 1.086l-.623 1.263-2.162-.992.197-.399a2.364 2.364 0 013.162-1.074zM4.998 18.54a1.533 1.533 0 01.075-1.185l1.612-3.268 2.162.992-2.177 4.414-.165.28-.717-.346a1.532 1.532 0 01-.79-.887zm1.838 8.18l.994.995-2.402 2.401-.994-.994 2.402-2.402zm-4.108 4.107l.71-.711 1.03 1.03a1.708 1.708 0 01.39 1.812l-2.13-2.131zm5.524 3.439a1.133 1.133 0 01-.799.327H5.42a3.094 3.094 0 00.954-2.24c0-.354-.059-.698-.17-1.023l3.535-3.536a3.614 3.614 0 001.066-2.572v-1.05a.82.82 0 01.243-.585.822.822 0 01.586-.243h1.275c.158 0 .286.129.286.287v5.619a.72.72 0 00.013.132l-4.956 4.884zm6.765-5.72h-.415V27.14h1.453c.916 0 1.698.588 1.988 1.407h-3.025zm4.482 0a3.528 3.528 0 00-2.085-2.538V21.52a2.4 2.4 0 00-2.397-2.396h-.325l1.51-3.062 3.05 1.446c.025.012.05.021.076.03l.013.004.03.01.015.003.015.004.036.006.033.005a.717.717 0 00.086.006h4.983V27.98a4.541 4.541 0 01-2.188.567h-2.852z" fill="#2B71FD"/><path d="M35.297 21.297h-3.16c-.601 0-1.184.25-1.6.686l-4.592 4.826v-9.232h.07c1.164 0 2.11-.946 2.11-2.11a2.112 2.112 0 00-2.11-2.109h-.07V9.562a.703.703 0 10-1.406 0v3.796h-4.194l-2.855-1.353a.889.889 0 00-.056-.031l-.305-.15a3.872 3.872 0 003.354-3.833 3.871 3.871 0 00-3.867-3.867 3.872 3.872 0 00-3.867 3.867c0 .937.335 1.797.89 2.467a3.783 3.783 0 00-1.275.164l-1.076-.53a3.772 3.772 0 00-5.045 1.712l-2.431 4.929a2.928 2.928 0 00-.143 2.266 2.93 2.93 0 001.51 1.696l.762.366a5.366 5.366 0 00.46 4.105l-.062.062-.001.002-3.384 3.383-.012.011-1.705 1.705a.704.704 0 000 .995l3.231 3.231a.54.54 0 00.042.038H.703a.703.703 0 100 1.407h6.75c.673 0 1.307-.26 1.786-.733l5.118-5.044a.935.935 0 01.66-.27h7.334a5.959 5.959 0 004.298-1.843l4.907-5.158a.806.806 0 01.582-.25h2.456v12.595a.703.703 0 001.406 0V22a.703.703 0 00-.703-.703zm-8.578-5.83a.704.704 0 01-.703.704h-5.582l.315-1.406h5.267c.387 0 .703.315.703.703zM16.616 5.53a2.464 2.464 0 012.46 2.461 2.464 2.464 0 01-2.46 2.461 2.464 2.464 0 01-2.461-2.46 2.464 2.464 0 012.46-2.462zm-2.1 6.573l2.233 1.1a.676.676 0 00.073.042l2.555 1.21-.315 1.408-2.842-1.348-.014-.005a.07.07 0 00-.019-.01l-1.557-.764a.703.703 0 00-.62 1.262l.925.454-1.811 3.673H8.42l2.934-5.95a2.364 2.364 0 013.162-1.072zM8.822 26.718l-.994-.994a.702.702 0 00.163-.482h1.407a2.214 2.214 0 01-.576 1.476zm1.231-4.126a2.22 2.22 0 00-.63 1.244H7.346c-.3-.88-.281-1.837.057-2.71a.697.697 0 00.124-.287 3.94 3.94 0 01.164-.308h5.492l-.703 1.406h-.845c-.597 0-1.159.233-1.581.655zm4.549 1.59l1.406-.378v1.93h-1.406v-1.553zm1.406-1.835l-1.633.44a1.706 1.706 0 00-.482-.533l.862-1.723h.262c.546 0 .99.444.99.99v.826zm-5.342-10.995l.234.116c-.324.302-.6.666-.808 1.086l-.623 1.263-2.162-.992.197-.399a2.364 2.364 0 013.162-1.074zM4.998 18.54a1.533 1.533 0 01.075-1.185l1.612-3.268 2.162.992-2.177 4.414-.165.28-.717-.346a1.532 1.532 0 01-.79-.887zm1.838 8.18l.994.995-2.402 2.401-.994-.994 2.402-2.402zm-4.108 4.107l.71-.711 1.03 1.03a1.708 1.708 0 01.39 1.812l-2.13-2.131zm5.524 3.439a1.133 1.133 0 01-.799.327H5.42a3.094 3.094 0 00.954-2.24c0-.354-.059-.698-.17-1.023l3.535-3.536a3.614 3.614 0 001.066-2.572v-1.05a.82.82 0 01.243-.585.822.822 0 01.586-.243h1.275c.158 0 .286.129.286.287v5.619a.72.72 0 00.013.132l-4.956 4.884zm6.765-5.72h-.415V27.14h1.453c.916 0 1.698.588 1.988 1.407h-3.025zm4.482 0a3.528 3.528 0 00-2.085-2.538V21.52a2.4 2.4 0 00-2.397-2.396h-.325l1.51-3.062 3.05 1.446c.025.012.05.021.076.03l.013.004.03.01.015.003.015.004.036.006.033.005a.717.717 0 00.086.006h4.983V27.98a4.541 4.541 0 01-2.188.567h-2.852z" fill="#0A6FE7"/><path d="M25.242 7.254a.709.709 0 00.497-.206.71.71 0 00.206-.497.705.705 0 00-1.2-.497.708.708 0 00-.206.497.71.71 0 00.206.497c.13.131.312.206.497.206z" fill="#22A2EA"/><path d="M25.242 7.254a.709.709 0 00.497-.206.71.71 0 00.206-.497.705.705 0 00-1.2-.497.708.708 0 00-.206.497.71.71 0 00.206.497c.13.131.312.206.497.206z" fill="#2B71FD"/><path d="M25.242 7.254a.709.709 0 00.497-.206.71.71 0 00.206-.497.705.705 0 00-1.2-.497.708.708 0 00-.206.497.71.71 0 00.206.497c.13.131.312.206.497.206z" fill="#0A6FE7"/><path d="M31.781 8.437A4.224 4.224 0 0036 4.22 4.224 4.224 0 0031.781 0a4.223 4.223 0 00-4.218 4.219 4.224 4.224 0 004.218 4.218zm0-7.03a2.816 2.816 0 012.813 2.812A2.816 2.816 0 0131.78 7.03a2.816 2.816 0 01-2.81-2.81 2.816 2.816 0 012.812-2.813z" fill="#22A2EA"/><path d="M31.781 8.437A4.224 4.224 0 0036 4.22 4.224 4.224 0 0031.781 0a4.223 4.223 0 00-4.218 4.219 4.224 4.224 0 004.218 4.218zm0-7.03a2.816 2.816 0 012.813 2.812A2.816 2.816 0 0131.78 7.03a2.816 2.816 0 01-2.81-2.81 2.816 2.816 0 012.812-2.813z" fill="#2B71FD"/><path d="M31.781 8.437A4.224 4.224 0 0036 4.22 4.224 4.224 0 0031.781 0a4.223 4.223 0 00-4.218 4.219 4.224 4.224 0 004.218 4.218zm0-7.03a2.816 2.816 0 012.813 2.812A2.816 2.816 0 0131.78 7.03a2.816 2.816 0 01-2.81-2.81 2.816 2.816 0 012.812-2.813z" fill="#0A6FE7"/></svg>