<svg width="36" height="36" fill="none" xmlns="http://www.w3.org/2000/svg"><g clip-path="url(#clip0)"><path d="M35.634 13.12c-1.258-3.871-5.43-5.997-9.301-4.74a8.742 8.742 0 00-1.54.681 8.74 8.74 0 00.17-1.675c0-4.11-2.84-7.382-6.889-7.382-4.056 0-7.037 3.28-7.037 7.382 0 .537.058 1.1.171 1.675a8.752 8.752 0 00-1.54-.68C5.796 7.123 1.623 9.249.365 13.12c-1.275 3.926.895 8.298 4.74 9.548a8.747 8.747 0 001.646.354c-.429.399-.807.82-1.123 1.255-2.393 3.293-1.66 7.918 1.632 10.31 3.292 2.392 7.566 1.671 9.967-1.632.316-.435.6-.925.846-1.456.246.53.53 1.02.846 1.456 2.404 3.308 6.534 4.019 9.818 1.633 3.293-2.393 4.026-7.018 1.633-10.31a8.739 8.739 0 00-1.123-1.256 8.76 8.76 0 001.647-.354c3.844-1.25 6.014-5.622 4.739-9.548zM18.074 2.113c2.77 0 4.78 2.218 4.78 5.273 0 1.375-.538 3.07-1.44 4.535a1.052 1.052 0 00-.155.57l-1.098 1.9a5.356 5.356 0 00-1.047-.326V9.741c0-.582-.458-1.054-1.04-1.054-.582 0-1.055.472-1.055 1.054v4.324c-.367.075-.72.19-1.055.336l-1.226-2.008a1.05 1.05 0 00-.153-.472c-.901-1.465-1.44-3.16-1.44-4.535 0-3.006 2.12-5.273 4.929-5.273zM5.757 20.662c-2.71-.88-4.291-4.1-3.385-6.89a5.279 5.279 0 016.644-3.386c1.135.37 2.374 1.199 3.41 2.268l1.812 2.966a5.3 5.3 0 00-.749 1.013l-4.115-1.337a1.054 1.054 0 10-.652 2.006l4.114 1.337c-.048.423-.045.803.002 1.206l-2.634.92c-1.578.33-3.22.296-4.447-.103zm11.262 6.57c-.136 1.704-.695 3.378-1.497 4.483-1.717 2.362-4.674 2.872-7.02 1.167a5.279 5.279 0 01-1.167-7.365c1.396-1.922 3.821-2.795 4.005-2.915l2.16-.754a5.3 5.3 0 00.686.94l-2.543 3.502a1.054 1.054 0 101.706 1.24l2.543-3.5c.356.162.733.288 1.127.368v2.835zm1.055-4.837a3.167 3.167 0 01-3.164-3.163 3.167 3.167 0 013.164-3.164 3.167 3.167 0 013.163 3.164 3.167 3.167 0 01-3.163 3.163zm9.425 10.487c-2.424 1.76-5.212 1.118-6.873-1.167-.803-1.105-1.375-2.779-1.512-4.482v-2.835a5.33 5.33 0 001.142-.369l2.543 3.5a1.055 1.055 0 001.706-1.24l-2.543-3.5c.26-.284.488-.596.681-.932l1.966.708c.242.18 2.64 1.002 4.056 2.952a5.278 5.278 0 01-1.166 7.365zM25.876 20.78l-2.568-.925c.05-.415.051-.797.004-1.216l4.114-1.337a1.054 1.054 0 00-.652-2.006l-4.115 1.337a5.298 5.298 0 00-.764-1.028l1.742-3.015c1.023-1.038 2.235-1.842 3.347-2.204a5.279 5.279 0 016.644 3.386c.906 2.79-.675 6.01-3.385 6.89-1.207.392-2.813.431-4.367.118z" fill="#22A2EA"/><path d="M35.634 13.12c-1.258-3.871-5.43-5.997-9.301-4.74a8.742 8.742 0 00-1.54.681 8.74 8.74 0 00.17-1.675c0-4.11-2.84-7.382-6.889-7.382-4.056 0-7.037 3.28-7.037 7.382 0 .537.058 1.1.171 1.675a8.752 8.752 0 00-1.54-.68C5.796 7.123 1.623 9.249.365 13.12c-1.275 3.926.895 8.298 4.74 9.548a8.747 8.747 0 001.646.354c-.429.399-.807.82-1.123 1.255-2.393 3.293-1.66 7.918 1.632 10.31 3.292 2.392 7.566 1.671 9.967-1.632.316-.435.6-.925.846-1.456.246.53.53 1.02.846 1.456 2.404 3.308 6.534 4.019 9.818 1.633 3.293-2.393 4.026-7.018 1.633-10.31a8.739 8.739 0 00-1.123-1.256 8.76 8.76 0 001.647-.354c3.844-1.25 6.014-5.622 4.739-9.548zM18.074 2.113c2.77 0 4.78 2.218 4.78 5.273 0 1.375-.538 3.07-1.44 4.535a1.052 1.052 0 00-.155.57l-1.098 1.9a5.356 5.356 0 00-1.047-.326V9.741c0-.582-.458-1.054-1.04-1.054-.582 0-1.055.472-1.055 1.054v4.324c-.367.075-.72.19-1.055.336l-1.226-2.008a1.05 1.05 0 00-.153-.472c-.901-1.465-1.44-3.16-1.44-4.535 0-3.006 2.12-5.273 4.929-5.273zM5.757 20.662c-2.71-.88-4.291-4.1-3.385-6.89a5.279 5.279 0 016.644-3.386c1.135.37 2.374 1.199 3.41 2.268l1.812 2.966a5.3 5.3 0 00-.749 1.013l-4.115-1.337a1.054 1.054 0 10-.652 2.006l4.114 1.337c-.048.423-.045.803.002 1.206l-2.634.92c-1.578.33-3.22.296-4.447-.103zm11.262 6.57c-.136 1.704-.695 3.378-1.497 4.483-1.717 2.362-4.674 2.872-7.02 1.167a5.279 5.279 0 01-1.167-7.365c1.396-1.922 3.821-2.795 4.005-2.915l2.16-.754a5.3 5.3 0 00.686.94l-2.543 3.502a1.054 1.054 0 101.706 1.24l2.543-3.5c.356.162.733.288 1.127.368v2.835zm1.055-4.837a3.167 3.167 0 01-3.164-3.163 3.167 3.167 0 013.164-3.164 3.167 3.167 0 013.163 3.164 3.167 3.167 0 01-3.163 3.163zm9.425 10.487c-2.424 1.76-5.212 1.118-6.873-1.167-.803-1.105-1.375-2.779-1.512-4.482v-2.835a5.33 5.33 0 001.142-.369l2.543 3.5a1.055 1.055 0 001.706-1.24l-2.543-3.5c.26-.284.488-.596.681-.932l1.966.708c.242.18 2.64 1.002 4.056 2.952a5.278 5.278 0 01-1.166 7.365zM25.876 20.78l-2.568-.925c.05-.415.051-.797.004-1.216l4.114-1.337a1.054 1.054 0 00-.652-2.006l-4.115 1.337a5.298 5.298 0 00-.764-1.028l1.742-3.015c1.023-1.038 2.235-1.842 3.347-2.204a5.279 5.279 0 016.644 3.386c.906 2.79-.675 6.01-3.385 6.89-1.207.392-2.813.431-4.367.118z" fill="#2B71FD"/><path d="M35.634 13.12c-1.258-3.871-5.43-5.997-9.301-4.74a8.742 8.742 0 00-1.54.681 8.74 8.74 0 00.17-1.675c0-4.11-2.84-7.382-6.889-7.382-4.056 0-7.037 3.28-7.037 7.382 0 .537.058 1.1.171 1.675a8.752 8.752 0 00-1.54-.68C5.796 7.123 1.623 9.249.365 13.12c-1.275 3.926.895 8.298 4.74 9.548a8.747 8.747 0 001.646.354c-.429.399-.807.82-1.123 1.255-2.393 3.293-1.66 7.918 1.632 10.31 3.292 2.392 7.566 1.671 9.967-1.632.316-.435.6-.925.846-1.456.246.53.53 1.02.846 1.456 2.404 3.308 6.534 4.019 9.818 1.633 3.293-2.393 4.026-7.018 1.633-10.31a8.739 8.739 0 00-1.123-1.256 8.76 8.76 0 001.647-.354c3.844-1.25 6.014-5.622 4.739-9.548zM18.074 2.113c2.77 0 4.78 2.218 4.78 5.273 0 1.375-.538 3.07-1.44 4.535a1.052 1.052 0 00-.155.57l-1.098 1.9a5.356 5.356 0 00-1.047-.326V9.741c0-.582-.458-1.054-1.04-1.054-.582 0-1.055.472-1.055 1.054v4.324c-.367.075-.72.19-1.055.336l-1.226-2.008a1.05 1.05 0 00-.153-.472c-.901-1.465-1.44-3.16-1.44-4.535 0-3.006 2.12-5.273 4.929-5.273zM5.757 20.662c-2.71-.88-4.291-4.1-3.385-6.89a5.279 5.279 0 016.644-3.386c1.135.37 2.374 1.199 3.41 2.268l1.812 2.966a5.3 5.3 0 00-.749 1.013l-4.115-1.337a1.054 1.054 0 10-.652 2.006l4.114 1.337c-.048.423-.045.803.002 1.206l-2.634.92c-1.578.33-3.22.296-4.447-.103zm11.262 6.57c-.136 1.704-.695 3.378-1.497 4.483-1.717 2.362-4.674 2.872-7.02 1.167a5.279 5.279 0 01-1.167-7.365c1.396-1.922 3.821-2.795 4.005-2.915l2.16-.754a5.3 5.3 0 00.686.94l-2.543 3.502a1.054 1.054 0 101.706 1.24l2.543-3.5c.356.162.733.288 1.127.368v2.835zm1.055-4.837a3.167 3.167 0 01-3.164-3.163 3.167 3.167 0 013.164-3.164 3.167 3.167 0 013.163 3.164 3.167 3.167 0 01-3.163 3.163zm9.425 10.487c-2.424 1.76-5.212 1.118-6.873-1.167-.803-1.105-1.375-2.779-1.512-4.482v-2.835a5.33 5.33 0 001.142-.369l2.543 3.5a1.055 1.055 0 001.706-1.24l-2.543-3.5c.26-.284.488-.596.681-.932l1.966.708c.242.18 2.64 1.002 4.056 2.952a5.278 5.278 0 01-1.166 7.365zM25.876 20.78l-2.568-.925c.05-.415.051-.797.004-1.216l4.114-1.337a1.054 1.054 0 00-.652-2.006l-4.115 1.337a5.298 5.298 0 00-.764-1.028l1.742-3.015c1.023-1.038 2.235-1.842 3.347-2.204a5.279 5.279 0 016.644 3.386c.906 2.79-.675 6.01-3.385 6.89-1.207.392-2.813.431-4.367.118z" fill="#0A6FE7"/></g><defs><clipPath id="clip0"><path fill="#fff" d="M0 0h36v36H0z"/></clipPath></defs></svg>