<svg width="36" height="36" fill="none" xmlns="http://www.w3.org/2000/svg"><path d="M32.836 1.406H3.164A3.168 3.168 0 000 4.57V27a3.168 3.168 0 003.164 3.164h8.508v2.25H9.915a1.055 1.055 0 100 2.11h16.172a1.055 1.055 0 000-2.11h-1.758v-2.25h8.507A3.168 3.168 0 0036 27V4.57a3.168 3.168 0 00-3.164-3.164zM3.164 3.516h29.672c.582 0 1.055.473 1.055 1.054v17.785h-7.207v-2.82a7.86 7.86 0 001.16-4.135c0-1.427-.74-2.571-1.455-3.677-.677-1.048-1.316-2.037-1.316-3.215a1.054 1.054 0 00-1.87-.67c-.384.468-3.757 4.66-3.65 7.741.046 1.298.289 2.407.722 3.298.15.31.303.549.437.727v2.751H16.17V15.68l-.001-.024v-.026a1.055 1.055 0 00-.088-.372l-3.117-7.14a1.055 1.055 0 00-.96-.633h-.006c-.415 0-.792.244-.962.622l-1.083 2.408-.04.045a1.026 1.026 0 00-.067.193l-2.021 4.495a1.05 1.05 0 00-.093.432v6.676H2.109V4.57c0-.581.474-1.054 1.055-1.054zm21.884 14.641h-2.773c-.216-.372-.562-1.19-.613-2.651-.044-1.264.93-3.1 1.866-4.53.313.69.714 1.31 1.09 1.892.6.927 1.117 1.727 1.117 2.532a5.84 5.84 0 01-.687 2.757zm-2.227 2.11h1.753v2.088h-1.753v-2.088zm-11.246-8.214h.807l1.123 2.571h-3.087l1.157-2.571zm-1.733 4.68h4.22v5.622h-4.22v-5.621zM22.22 32.416h-8.437v-2.25h8.437v2.25zm10.617-4.36h-1.054v-.426a1.055 1.055 0 00-2.11 0v.426h-2.109v-.426a1.055 1.055 0 00-2.11 0v.426h-2.109v-.426a1.055 1.055 0 00-2.11 0v.426H3.165A1.056 1.056 0 012.11 27v-2.535h31.782V27c0 .582-.473 1.055-1.055 1.055z" fill="#22A2EA"/><path d="M32.836 1.406H3.164A3.168 3.168 0 000 4.57V27a3.168 3.168 0 003.164 3.164h8.508v2.25H9.915a1.055 1.055 0 100 2.11h16.172a1.055 1.055 0 000-2.11h-1.758v-2.25h8.507A3.168 3.168 0 0036 27V4.57a3.168 3.168 0 00-3.164-3.164zM3.164 3.516h29.672c.582 0 1.055.473 1.055 1.054v17.785h-7.207v-2.82a7.86 7.86 0 001.16-4.135c0-1.427-.74-2.571-1.455-3.677-.677-1.048-1.316-2.037-1.316-3.215a1.054 1.054 0 00-1.87-.67c-.384.468-3.757 4.66-3.65 7.741.046 1.298.289 2.407.722 3.298.15.31.303.549.437.727v2.751H16.17V15.68l-.001-.024v-.026a1.055 1.055 0 00-.088-.372l-3.117-7.14a1.055 1.055 0 00-.96-.633h-.006c-.415 0-.792.244-.962.622l-1.083 2.408-.04.045a1.026 1.026 0 00-.067.193l-2.021 4.495a1.05 1.05 0 00-.093.432v6.676H2.109V4.57c0-.581.474-1.054 1.055-1.054zm21.884 14.641h-2.773c-.216-.372-.562-1.19-.613-2.651-.044-1.264.93-3.1 1.866-4.53.313.69.714 1.31 1.09 1.892.6.927 1.117 1.727 1.117 2.532a5.84 5.84 0 01-.687 2.757zm-2.227 2.11h1.753v2.088h-1.753v-2.088zm-11.246-8.214h.807l1.123 2.571h-3.087l1.157-2.571zm-1.733 4.68h4.22v5.622h-4.22v-5.621zM22.22 32.416h-8.437v-2.25h8.437v2.25zm10.617-4.36h-1.054v-.426a1.055 1.055 0 00-2.11 0v.426h-2.109v-.426a1.055 1.055 0 00-2.11 0v.426h-2.109v-.426a1.055 1.055 0 00-2.11 0v.426H3.165A1.056 1.056 0 012.11 27v-2.535h31.782V27c0 .582-.473 1.055-1.055 1.055z" fill="#2B71FD"/><path d="M32.836 1.406H3.164A3.168 3.168 0 000 4.57V27a3.168 3.168 0 003.164 3.164h8.508v2.25H9.915a1.055 1.055 0 100 2.11h16.172a1.055 1.055 0 000-2.11h-1.758v-2.25h8.507A3.168 3.168 0 0036 27V4.57a3.168 3.168 0 00-3.164-3.164zM3.164 3.516h29.672c.582 0 1.055.473 1.055 1.054v17.785h-7.207v-2.82a7.86 7.86 0 001.16-4.135c0-1.427-.74-2.571-1.455-3.677-.677-1.048-1.316-2.037-1.316-3.215a1.054 1.054 0 00-1.87-.67c-.384.468-3.757 4.66-3.65 7.741.046 1.298.289 2.407.722 3.298.15.31.303.549.437.727v2.751H16.17V15.68l-.001-.024v-.026a1.055 1.055 0 00-.088-.372l-3.117-7.14a1.055 1.055 0 00-.96-.633h-.006c-.415 0-.792.244-.962.622l-1.083 2.408-.04.045a1.026 1.026 0 00-.067.193l-2.021 4.495a1.05 1.05 0 00-.093.432v6.676H2.109V4.57c0-.581.474-1.054 1.055-1.054zm21.884 14.641h-2.773c-.216-.372-.562-1.19-.613-2.651-.044-1.264.93-3.1 1.866-4.53.313.69.714 1.31 1.09 1.892.6.927 1.117 1.727 1.117 2.532a5.84 5.84 0 01-.687 2.757zm-2.227 2.11h1.753v2.088h-1.753v-2.088zm-11.246-8.214h.807l1.123 2.571h-3.087l1.157-2.571zm-1.733 4.68h4.22v5.622h-4.22v-5.621zM22.22 32.416h-8.437v-2.25h8.437v2.25zm10.617-4.36h-1.054v-.426a1.055 1.055 0 00-2.11 0v.426h-2.109v-.426a1.055 1.055 0 00-2.11 0v.426h-2.109v-.426a1.055 1.055 0 00-2.11 0v.426H3.165A1.056 1.056 0 012.11 27v-2.535h31.782V27c0 .582-.473 1.055-1.055 1.055z" fill="#0A6FE7"/></svg>