<svg width="36" height="36" fill="none" xmlns="http://www.w3.org/2000/svg"><path fill-rule="evenodd" clip-rule="evenodd" d="M19 18.414L14.414 23l1.293 1.293a1 1 0 010 1.414l-10 10a1 1 0 01-1.414 0l-4-4a1 1 0 010-1.414l10-10a1 1 0 011.414 0L13 21.586 17.586 17l-3-3H11a1 1 0 01-.707-.293l-2-2a1 1 0 010-1.414l10-10a1 1 0 011.414 0l2 2A1 1 0 0122 3v3.586L29.414 14H33a1 1 0 01.707.293l2 2a1 1 0 010 1.414l-10 10a1 1 0 01-1.414 0l-2-2A1 1 0 0122 25v-3.586l-3-3zM10.414 11l1 1H15a1 1 0 01.707.293l8 8A1 1 0 0124 21v3.586l1 1L33.586 17l-1-1H29a1 1 0 01-.707-.293l-8-8A1 1 0 0120 7V3.414l-1-1L10.414 11zM5 33.586L2.414 31 11 22.414 13.586 25 5 33.586z" fill="#22A2EA"/><path fill-rule="evenodd" clip-rule="evenodd" d="M19 18.414L14.414 23l1.293 1.293a1 1 0 010 1.414l-10 10a1 1 0 01-1.414 0l-4-4a1 1 0 010-1.414l10-10a1 1 0 011.414 0L13 21.586 17.586 17l-3-3H11a1 1 0 01-.707-.293l-2-2a1 1 0 010-1.414l10-10a1 1 0 011.414 0l2 2A1 1 0 0122 3v3.586L29.414 14H33a1 1 0 01.707.293l2 2a1 1 0 010 1.414l-10 10a1 1 0 01-1.414 0l-2-2A1 1 0 0122 25v-3.586l-3-3zM10.414 11l1 1H15a1 1 0 01.707.293l8 8A1 1 0 0124 21v3.586l1 1L33.586 17l-1-1H29a1 1 0 01-.707-.293l-8-8A1 1 0 0120 7V3.414l-1-1L10.414 11zM5 33.586L2.414 31 11 22.414 13.586 25 5 33.586z" fill="#2B71FD"/><path fill-rule="evenodd" clip-rule="evenodd" d="M19 18.414L14.414 23l1.293 1.293a1 1 0 010 1.414l-10 10a1 1 0 01-1.414 0l-4-4a1 1 0 010-1.414l10-10a1 1 0 011.414 0L13 21.586 17.586 17l-3-3H11a1 1 0 01-.707-.293l-2-2a1 1 0 010-1.414l10-10a1 1 0 011.414 0l2 2A1 1 0 0122 3v3.586L29.414 14H33a1 1 0 01.707.293l2 2a1 1 0 010 1.414l-10 10a1 1 0 01-1.414 0l-2-2A1 1 0 0122 25v-3.586l-3-3zM10.414 11l1 1H15a1 1 0 01.707.293l8 8A1 1 0 0124 21v3.586l1 1L33.586 17l-1-1H29a1 1 0 01-.707-.293l-8-8A1 1 0 0120 7V3.414l-1-1L10.414 11zM5 33.586L2.414 31 11 22.414 13.586 25 5 33.586z" fill="#0A6FE7"/></svg>