<svg width="36" height="36" fill="none" xmlns="http://www.w3.org/2000/svg"><path d="M34.945 0H1.055C.472 0 0 .472 0 1.055v33.89C0 35.528.472 36 1.055 36h33.89c.583 0 1.055-.472 1.055-1.055V1.055C36 .472 35.528 0 34.945 0zM2.11 3.659L8.291 9.84v16.378l-6.182 6.181V3.659zM26.218 8.29H9.725L3.543 2.109H32.4l-6.181 6.182zm-7.15 17.31h-2.136v-5.983h2.136V25.6zm1.055-8.092h-4.246c-.582 0-1.054.472-1.054 1.055V25.6H10.4V10.4h15.2v15.2h-4.423v-7.037c0-.583-.472-1.055-1.054-1.055zM9.783 27.71H26.16l6.181 6.182H3.601l6.181-6.182zm17.926-1.433V9.782l6.182-6.181v28.856l-6.182-6.181z" fill="#22A2EA"/><path d="M34.945 0H1.055C.472 0 0 .472 0 1.055v33.89C0 35.528.472 36 1.055 36h33.89c.583 0 1.055-.472 1.055-1.055V1.055C36 .472 35.528 0 34.945 0zM2.11 3.659L8.291 9.84v16.378l-6.182 6.181V3.659zM26.218 8.29H9.725L3.543 2.109H32.4l-6.181 6.182zm-7.15 17.31h-2.136v-5.983h2.136V25.6zm1.055-8.092h-4.246c-.582 0-1.054.472-1.054 1.055V25.6H10.4V10.4h15.2v15.2h-4.423v-7.037c0-.583-.472-1.055-1.054-1.055zM9.783 27.71H26.16l6.181 6.182H3.601l6.181-6.182zm17.926-1.433V9.782l6.182-6.181v28.856l-6.182-6.181z" fill="#2B71FD"/><path d="M34.945 0H1.055C.472 0 0 .472 0 1.055v33.89C0 35.528.472 36 1.055 36h33.89c.583 0 1.055-.472 1.055-1.055V1.055C36 .472 35.528 0 34.945 0zM2.11 3.659L8.291 9.84v16.378l-6.182 6.181V3.659zM26.218 8.29H9.725L3.543 2.109H32.4l-6.181 6.182zm-7.15 17.31h-2.136v-5.983h2.136V25.6zm1.055-8.092h-4.246c-.582 0-1.054.472-1.054 1.055V25.6H10.4V10.4h15.2v15.2h-4.423v-7.037c0-.583-.472-1.055-1.054-1.055zM9.783 27.71H26.16l6.181 6.182H3.601l6.181-6.182zm17.926-1.433V9.782l6.182-6.181v28.856l-6.182-6.181z" fill="#0A6FE7"/></svg>