<svg width="36" height="36" fill="none" xmlns="http://www.w3.org/2000/svg"><path d="M9.144 7.632h1.584v1.584c0 .432.36.72.72.72h2.304c.432 0 .72-.36.72-.72V7.632h1.584c.432 0 .72-.36.72-.72V4.608c0-.432-.36-.72-.72-.72h-1.584V2.304c0-.432-.36-.72-.72-.72h-2.304c-.432 0-.72.36-.72.72v1.584H9.144c-.432 0-.72.36-.72.72v2.304c0 .432.288.72.72.72zm.72-2.304h1.584c.432 0 .72-.36.72-.72V3.024h.864v1.584c0 .432.36.72.72.72h1.584v.864h-1.584c-.432 0-.72.36-.72.72v1.584h-.864V6.912c0-.432-.36-.72-.72-.72H9.864v-.864z" fill="#22A2EA"/><path d="M9.144 7.632h1.584v1.584c0 .432.36.72.72.72h2.304c.432 0 .72-.36.72-.72V7.632h1.584c.432 0 .72-.36.72-.72V4.608c0-.432-.36-.72-.72-.72h-1.584V2.304c0-.432-.36-.72-.72-.72h-2.304c-.432 0-.72.36-.72.72v1.584H9.144c-.432 0-.72.36-.72.72v2.304c0 .432.288.72.72.72zm.72-2.304h1.584c.432 0 .72-.36.72-.72V3.024h.864v1.584c0 .432.36.72.72.72h1.584v.864h-1.584c-.432 0-.72.36-.72.72v1.584h-.864V6.912c0-.432-.36-.72-.72-.72H9.864v-.864z" fill="#2B71FD"/><path d="M9.144 7.632h1.584v1.584c0 .432.36.72.72.72h2.304c.432 0 .72-.36.72-.72V7.632h1.584c.432 0 .72-.36.72-.72V4.608c0-.432-.36-.72-.72-.72h-1.584V2.304c0-.432-.36-.72-.72-.72h-2.304c-.432 0-.72.36-.72.72v1.584H9.144c-.432 0-.72.36-.72.72v2.304c0 .432.288.72.72.72zm.72-2.304h1.584c.432 0 .72-.36.72-.72V3.024h.864v1.584c0 .432.36.72.72.72h1.584v.864h-1.584c-.432 0-.72.36-.72.72v1.584h-.864V6.912c0-.432-.36-.72-.72-.72H9.864v-.864z" fill="#0A6FE7"/><path d="M35.28 32.976h-.144V7.056c0-.432-.36-.72-.72-.72H23.688c-.432 0-.72.36-.72.72v4.464H1.584c-.432 0-.72.36-.72.72v20.736H.72c-.432 0-.72.36-.72.72s.36.72.72.72h34.56c.432 0 .72-.36.72-.72s-.36-.72-.72-.72zM2.304 13.032h20.592v20.016h-5.544v-6.552c0-.432-.36-.72-.72-.72H8.64c-.432 0-.72.36-.72.72v6.552H2.304V13.032zM9.36 32.976v-5.832h6.552v5.832H9.36zm15.048 0v-25.2h9.288v25.272h-9.288v-.072z" fill="#22A2EA"/><path d="M35.28 32.976h-.144V7.056c0-.432-.36-.72-.72-.72H23.688c-.432 0-.72.36-.72.72v4.464H1.584c-.432 0-.72.36-.72.72v20.736H.72c-.432 0-.72.36-.72.72s.36.72.72.72h34.56c.432 0 .72-.36.72-.72s-.36-.72-.72-.72zM2.304 13.032h20.592v20.016h-5.544v-6.552c0-.432-.36-.72-.72-.72H8.64c-.432 0-.72.36-.72.72v6.552H2.304V13.032zM9.36 32.976v-5.832h6.552v5.832H9.36zm15.048 0v-25.2h9.288v25.272h-9.288v-.072z" fill="#2B71FD"/><path d="M35.28 32.976h-.144V7.056c0-.432-.36-.72-.72-.72H23.688c-.432 0-.72.36-.72.72v4.464H1.584c-.432 0-.72.36-.72.72v20.736H.72c-.432 0-.72.36-.72.72s.36.72.72.72h34.56c.432 0 .72-.36.72-.72s-.36-.72-.72-.72zM2.304 13.032h20.592v20.016h-5.544v-6.552c0-.432-.36-.72-.72-.72H8.64c-.432 0-.72.36-.72.72v6.552H2.304V13.032zM9.36 32.976v-5.832h6.552v5.832H9.36zm15.048 0v-25.2h9.288v25.272h-9.288v-.072z" fill="#0A6FE7"/><path d="M4.536 18.576h3.672c.432 0 .72-.36.72-.72v-2.664c0-.432-.36-.72-.72-.72H4.536c-.432 0-.72.36-.72.72v2.664c0 .432.288.72.72.72zm.72-2.664h2.16v1.224h-2.16v-1.224z" fill="#22A2EA"/><path d="M4.536 18.576h3.672c.432 0 .72-.36.72-.72v-2.664c0-.432-.36-.72-.72-.72H4.536c-.432 0-.72.36-.72.72v2.664c0 .432.288.72.72.72zm.72-2.664h2.16v1.224h-2.16v-1.224z" fill="#2B71FD"/><path d="M4.536 18.576h3.672c.432 0 .72-.36.72-.72v-2.664c0-.432-.36-.72-.72-.72H4.536c-.432 0-.72.36-.72.72v2.664c0 .432.288.72.72.72zm.72-2.664h2.16v1.224h-2.16v-1.224z" fill="#0A6FE7"/><path d="M10.8 18.576h3.672c.432 0 .72-.36.72-.72v-2.664c0-.432-.36-.72-.72-.72H10.8c-.432 0-.72.36-.72.72v2.664c0 .432.36.72.72.72zm.72-2.664h2.16v1.224h-2.16v-1.224z" fill="#22A2EA"/><path d="M10.8 18.576h3.672c.432 0 .72-.36.72-.72v-2.664c0-.432-.36-.72-.72-.72H10.8c-.432 0-.72.36-.72.72v2.664c0 .432.36.72.72.72zm.72-2.664h2.16v1.224h-2.16v-1.224z" fill="#2B71FD"/><path d="M10.8 18.576h3.672c.432 0 .72-.36.72-.72v-2.664c0-.432-.36-.72-.72-.72H10.8c-.432 0-.72.36-.72.72v2.664c0 .432.36.72.72.72zm.72-2.664h2.16v1.224h-2.16v-1.224z" fill="#0A6FE7"/><path d="M17.136 18.576h3.672c.432 0 .72-.36.72-.72v-2.664c0-.432-.36-.72-.72-.72h-3.672c-.432 0-.72.36-.72.72v2.664c0 .432.288.72.72.72zm.72-2.664h2.16v1.224h-2.16v-1.224z" fill="#22A2EA"/><path d="M17.136 18.576h3.672c.432 0 .72-.36.72-.72v-2.664c0-.432-.36-.72-.72-.72h-3.672c-.432 0-.72.36-.72.72v2.664c0 .432.288.72.72.72zm.72-2.664h2.16v1.224h-2.16v-1.224z" fill="#2B71FD"/><path d="M17.136 18.576h3.672c.432 0 .72-.36.72-.72v-2.664c0-.432-.36-.72-.72-.72h-3.672c-.432 0-.72.36-.72.72v2.664c0 .432.288.72.72.72zm.72-2.664h2.16v1.224h-2.16v-1.224z" fill="#0A6FE7"/><path d="M8.136 23.904c.432 0 .72-.36.72-.72V20.52c0-.432-.36-.72-.72-.72h-3.6c-.432 0-.72.36-.72.72v2.664c0 .432.36.72.72.72h3.6zm-2.88-2.664h2.16v1.224h-2.16V21.24z" fill="#22A2EA"/><path d="M8.136 23.904c.432 0 .72-.36.72-.72V20.52c0-.432-.36-.72-.72-.72h-3.6c-.432 0-.72.36-.72.72v2.664c0 .432.36.72.72.72h3.6zm-2.88-2.664h2.16v1.224h-2.16V21.24z" fill="#2B71FD"/><path d="M8.136 23.904c.432 0 .72-.36.72-.72V20.52c0-.432-.36-.72-.72-.72h-3.6c-.432 0-.72.36-.72.72v2.664c0 .432.36.72.72.72h3.6zm-2.88-2.664h2.16v1.224h-2.16V21.24z" fill="#0A6FE7"/><path d="M10.8 23.904h3.672c.432 0 .72-.36.72-.72V20.52c0-.432-.36-.72-.72-.72H10.8c-.432 0-.72.36-.72.72v2.664c0 .36.36.72.72.72zm.72-2.664h2.16v1.224h-2.16V21.24z" fill="#22A2EA"/><path d="M10.8 23.904h3.672c.432 0 .72-.36.72-.72V20.52c0-.432-.36-.72-.72-.72H10.8c-.432 0-.72.36-.72.72v2.664c0 .36.36.72.72.72zm.72-2.664h2.16v1.224h-2.16V21.24z" fill="#2B71FD"/><path d="M10.8 23.904h3.672c.432 0 .72-.36.72-.72V20.52c0-.432-.36-.72-.72-.72H10.8c-.432 0-.72.36-.72.72v2.664c0 .36.36.72.72.72zm.72-2.664h2.16v1.224h-2.16V21.24z" fill="#0A6FE7"/><path d="M17.136 23.904h3.672c.432 0 .72-.36.72-.72V20.52c0-.432-.36-.72-.72-.72h-3.672c-.432 0-.72.36-.72.72v2.664c0 .36.288.72.72.72zm.72-2.664h2.16v1.224h-2.16V21.24z" fill="#22A2EA"/><path d="M17.136 23.904h3.672c.432 0 .72-.36.72-.72V20.52c0-.432-.36-.72-.72-.72h-3.672c-.432 0-.72.36-.72.72v2.664c0 .36.288.72.72.72zm.72-2.664h2.16v1.224h-2.16V21.24z" fill="#2B71FD"/><path d="M17.136 23.904h3.672c.432 0 .72-.36.72-.72V20.52c0-.432-.36-.72-.72-.72h-3.672c-.432 0-.72.36-.72.72v2.664c0 .36.288.72.72.72zm.72-2.664h2.16v1.224h-2.16V21.24z" fill="#0A6FE7"/><path d="M31.032 10.584H27c-.432 0-.72.36-.72.72s.36.72.72.72h4.032c.432 0 .72-.36.72-.72s-.288-.72-.72-.72z" fill="#22A2EA"/><path d="M31.032 10.584H27c-.432 0-.72.36-.72.72s.36.72.72.72h4.032c.432 0 .72-.36.72-.72s-.288-.72-.72-.72z" fill="#2B71FD"/><path d="M31.032 10.584H27c-.432 0-.72.36-.72.72s.36.72.72.72h4.032c.432 0 .72-.36.72-.72s-.288-.72-.72-.72z" fill="#0A6FE7"/><path d="M31.032 16.632H27c-.432 0-.72.36-.72.72 0 .432.36.72.72.72h4.032c.432 0 .72-.36.72-.72s-.288-.72-.72-.72z" fill="#22A2EA"/><path d="M31.032 16.632H27c-.432 0-.72.36-.72.72 0 .432.36.72.72.72h4.032c.432 0 .72-.36.72-.72s-.288-.72-.72-.72z" fill="#2B71FD"/><path d="M31.032 16.632H27c-.432 0-.72.36-.72.72 0 .432.36.72.72.72h4.032c.432 0 .72-.36.72-.72s-.288-.72-.72-.72z" fill="#0A6FE7"/><path d="M31.032 22.68H27c-.432 0-.72.36-.72.72 0 .432.36.72.72.72h4.032c.432 0 .72-.36.72-.72 0-.432-.288-.72-.72-.72z" fill="#22A2EA"/><path d="M31.032 22.68H27c-.432 0-.72.36-.72.72 0 .432.36.72.72.72h4.032c.432 0 .72-.36.72-.72 0-.432-.288-.72-.72-.72z" fill="#2B71FD"/><path d="M31.032 22.68H27c-.432 0-.72.36-.72.72 0 .432.36.72.72.72h4.032c.432 0 .72-.36.72-.72 0-.432-.288-.72-.72-.72z" fill="#0A6FE7"/><path d="M31.032 28.728H27c-.432 0-.72.36-.72.72s.36.72.72.72h4.032c.432 0 .72-.36.72-.72s-.288-.72-.72-.72z" fill="#22A2EA"/><path d="M31.032 28.728H27c-.432 0-.72.36-.72.72s.36.72.72.72h4.032c.432 0 .72-.36.72-.72s-.288-.72-.72-.72z" fill="#2B71FD"/><path d="M31.032 28.728H27c-.432 0-.72.36-.72.72s.36.72.72.72h4.032c.432 0 .72-.36.72-.72s-.288-.72-.72-.72z" fill="#0A6FE7"/></svg>