<svg width="36" height="36" fill="none" xmlns="http://www.w3.org/2000/svg"><path d="M15.275.603c2.529 0 4.86 1.697 6.046 4.36a5.76 5.76 0 01.475-.02c3.783 0 6.86 3.711 6.86 8.273 0 4.451-2.93 8.092-6.586 8.266l-.539.631a2.525 2.525 0 00-.598 1.883c.063.688.393 1.308.93 1.743a3.677 3.677 0 011.35 2.523 3.676 3.676 0 01-.848 2.732l-1.98 2.36a.579.579 0 11-.888-.745l1.98-2.36a2.526 2.526 0 00.583-1.877 2.526 2.526 0 00-.928-1.733 3.675 3.675 0 01-1.353-2.537 3.674 3.674 0 01.862-2.731c-2.115-.434-3.904-2.04-4.888-4.243-.068.006-.136.01-.204.013l-.539.632a2.526 2.526 0 00-.598 1.883c.063.688.393 1.307.93 1.743a3.676 3.676 0 011.35 2.522 3.677 3.677 0 01-.848 2.733.578.578 0 11-.888-.745 2.526 2.526 0 00.583-1.877 2.526 2.526 0 00-.928-1.733 3.675 3.675 0 01-1.353-2.537 3.675 3.675 0 01.862-2.732c-3.235-.664-5.705-4.067-5.705-8.154 0-4.562 3.077-8.273 6.86-8.273zm0 1.16c-3.143 0-5.701 3.19-5.701 7.113 0 3.922 2.558 7.113 5.701 7.113l.057-.001a9.774 9.774 0 01-.396-2.772c0-3.876 2.222-7.137 5.21-8.03-1.027-2.1-2.882-3.424-4.87-3.424zM31.82 3.034a.58.58 0 01.41.99l-.734.734a.578.578 0 01-.82 0 .58.58 0 010-.82l.735-.734a.578.578 0 01.41-.17zM5.18 4.542c.148 0 .296.057.41.17l.733.734a.58.58 0 11-.82.82l-.733-.734a.58.58 0 01.41-.99zm16.617 1.56c-3.143 0-5.701 3.191-5.701 7.114 0 3.922 2.558 7.114 5.701 7.114 3.144 0 5.702-3.192 5.702-7.114 0-3.923-2.558-7.114-5.702-7.114zm1.688 1.667a.58.58 0 110 1.16h-1.038a.58.58 0 010-1.16h1.038zM12.63 10.6a.58.58 0 01.52.285l.53.893a.58.58 0 11-.998.59l-.529-.893a.58.58 0 01.477-.874zm-7.411 5.243a.58.58 0 110 1.16H4.18a.58.58 0 110-1.16h1.038zm4.952 1.753a.576.576 0 01.557.399l5.153 15.64a.58.58 0 01-.323.715 13.264 13.264 0 01-5.18 1.048 13.28 13.28 0 01-5.18-1.048.58.58 0 01-.328-.702l4.753-15.64a.58.58 0 01.548-.412zm21.324.706c.32 0 .58.26.58.58v1.038a.58.58 0 01-1.16 0v-1.04c0-.32.26-.58.58-.58zM10.2 20.095l-4.066 13.38a12.17 12.17 0 008.476.004L10.2 20.095zm.897 6.127c.1-.003.203.02.296.072.333.186.39.645.127.915a.588.588 0 01-.706.088.585.585 0 01-.24-.718c-.003.008-.006.015 0-.002.008-.016.005-.01.002-.001a.589.589 0 01.521-.354zm14.082.688c.148 0 .296.056.41.17l.734.734a.58.58 0 11-.82.82l-.734-.735a.58.58 0 01.41-.99zM9.133 29.004a.577.577 0 01.502.799.585.585 0 01-.535.358.585.585 0 01-.54-.37.584.584 0 01.155-.643.583.583 0 01.418-.144zm2.946 2.936c.242.019.45.19.515.424.142.504-.442.93-.88.636a.585.585 0 01-.212-.705.585.585 0 01.577-.355z" fill="#22A2EA"/><path d="M15.275.603c2.529 0 4.86 1.697 6.046 4.36a5.76 5.76 0 01.475-.02c3.783 0 6.86 3.711 6.86 8.273 0 4.451-2.93 8.092-6.586 8.266l-.539.631a2.525 2.525 0 00-.598 1.883c.063.688.393 1.308.93 1.743a3.677 3.677 0 011.35 2.523 3.676 3.676 0 01-.848 2.732l-1.98 2.36a.579.579 0 11-.888-.745l1.98-2.36a2.526 2.526 0 00.583-1.877 2.526 2.526 0 00-.928-1.733 3.675 3.675 0 01-1.353-2.537 3.674 3.674 0 01.862-2.731c-2.115-.434-3.904-2.04-4.888-4.243-.068.006-.136.01-.204.013l-.539.632a2.526 2.526 0 00-.598 1.883c.063.688.393 1.307.93 1.743a3.676 3.676 0 011.35 2.522 3.677 3.677 0 01-.848 2.733.578.578 0 11-.888-.745 2.526 2.526 0 00.583-1.877 2.526 2.526 0 00-.928-1.733 3.675 3.675 0 01-1.353-2.537 3.675 3.675 0 01.862-2.732c-3.235-.664-5.705-4.067-5.705-8.154 0-4.562 3.077-8.273 6.86-8.273zm0 1.16c-3.143 0-5.701 3.19-5.701 7.113 0 3.922 2.558 7.113 5.701 7.113l.057-.001a9.774 9.774 0 01-.396-2.772c0-3.876 2.222-7.137 5.21-8.03-1.027-2.1-2.882-3.424-4.87-3.424zM31.82 3.034a.58.58 0 01.41.99l-.734.734a.578.578 0 01-.82 0 .58.58 0 010-.82l.735-.734a.578.578 0 01.41-.17zM5.18 4.542c.148 0 .296.057.41.17l.733.734a.58.58 0 11-.82.82l-.733-.734a.58.58 0 01.41-.99zm16.617 1.56c-3.143 0-5.701 3.191-5.701 7.114 0 3.922 2.558 7.114 5.701 7.114 3.144 0 5.702-3.192 5.702-7.114 0-3.923-2.558-7.114-5.702-7.114zm1.688 1.667a.58.58 0 110 1.16h-1.038a.58.58 0 010-1.16h1.038zM12.63 10.6a.58.58 0 01.52.285l.53.893a.58.58 0 11-.998.59l-.529-.893a.58.58 0 01.477-.874zm-7.411 5.243a.58.58 0 110 1.16H4.18a.58.58 0 110-1.16h1.038zm4.952 1.753a.576.576 0 01.557.399l5.153 15.64a.58.58 0 01-.323.715 13.264 13.264 0 01-5.18 1.048 13.28 13.28 0 01-5.18-1.048.58.58 0 01-.328-.702l4.753-15.64a.58.58 0 01.548-.412zm21.324.706c.32 0 .58.26.58.58v1.038a.58.58 0 01-1.16 0v-1.04c0-.32.26-.58.58-.58zM10.2 20.095l-4.066 13.38a12.17 12.17 0 008.476.004L10.2 20.095zm.897 6.127c.1-.003.203.02.296.072.333.186.39.645.127.915a.588.588 0 01-.706.088.585.585 0 01-.24-.718c-.003.008-.006.015 0-.002.008-.016.005-.01.002-.001a.589.589 0 01.521-.354zm14.082.688c.148 0 .296.056.41.17l.734.734a.58.58 0 11-.82.82l-.734-.735a.58.58 0 01.41-.99zM9.133 29.004a.577.577 0 01.502.799.585.585 0 01-.535.358.585.585 0 01-.54-.37.584.584 0 01.155-.643.583.583 0 01.418-.144zm2.946 2.936c.242.019.45.19.515.424.142.504-.442.93-.88.636a.585.585 0 01-.212-.705.585.585 0 01.577-.355z" fill="#2B71FD"/><path d="M15.275.603c2.529 0 4.86 1.697 6.046 4.36a5.76 5.76 0 01.475-.02c3.783 0 6.86 3.711 6.86 8.273 0 4.451-2.93 8.092-6.586 8.266l-.539.631a2.525 2.525 0 00-.598 1.883c.063.688.393 1.308.93 1.743a3.677 3.677 0 011.35 2.523 3.676 3.676 0 01-.848 2.732l-1.98 2.36a.579.579 0 11-.888-.745l1.98-2.36a2.526 2.526 0 00.583-1.877 2.526 2.526 0 00-.928-1.733 3.675 3.675 0 01-1.353-2.537 3.674 3.674 0 01.862-2.731c-2.115-.434-3.904-2.04-4.888-4.243-.068.006-.136.01-.204.013l-.539.632a2.526 2.526 0 00-.598 1.883c.063.688.393 1.307.93 1.743a3.676 3.676 0 011.35 2.522 3.677 3.677 0 01-.848 2.733.578.578 0 11-.888-.745 2.526 2.526 0 00.583-1.877 2.526 2.526 0 00-.928-1.733 3.675 3.675 0 01-1.353-2.537 3.675 3.675 0 01.862-2.732c-3.235-.664-5.705-4.067-5.705-8.154 0-4.562 3.077-8.273 6.86-8.273zm0 1.16c-3.143 0-5.701 3.19-5.701 7.113 0 3.922 2.558 7.113 5.701 7.113l.057-.001a9.774 9.774 0 01-.396-2.772c0-3.876 2.222-7.137 5.21-8.03-1.027-2.1-2.882-3.424-4.87-3.424zM31.82 3.034a.58.58 0 01.41.99l-.734.734a.578.578 0 01-.82 0 .58.58 0 010-.82l.735-.734a.578.578 0 01.41-.17zM5.18 4.542c.148 0 .296.057.41.17l.733.734a.58.58 0 11-.82.82l-.733-.734a.58.58 0 01.41-.99zm16.617 1.56c-3.143 0-5.701 3.191-5.701 7.114 0 3.922 2.558 7.114 5.701 7.114 3.144 0 5.702-3.192 5.702-7.114 0-3.923-2.558-7.114-5.702-7.114zm1.688 1.667a.58.58 0 110 1.16h-1.038a.58.58 0 010-1.16h1.038zM12.63 10.6a.58.58 0 01.52.285l.53.893a.58.58 0 11-.998.59l-.529-.893a.58.58 0 01.477-.874zm-7.411 5.243a.58.58 0 110 1.16H4.18a.58.58 0 110-1.16h1.038zm4.952 1.753a.576.576 0 01.557.399l5.153 15.64a.58.58 0 01-.323.715 13.264 13.264 0 01-5.18 1.048 13.28 13.28 0 01-5.18-1.048.58.58 0 01-.328-.702l4.753-15.64a.58.58 0 01.548-.412zm21.324.706c.32 0 .58.26.58.58v1.038a.58.58 0 01-1.16 0v-1.04c0-.32.26-.58.58-.58zM10.2 20.095l-4.066 13.38a12.17 12.17 0 008.476.004L10.2 20.095zm.897 6.127c.1-.003.203.02.296.072.333.186.39.645.127.915a.588.588 0 01-.706.088.585.585 0 01-.24-.718c-.003.008-.006.015 0-.002.008-.016.005-.01.002-.001a.589.589 0 01.521-.354zm14.082.688c.148 0 .296.056.41.17l.734.734a.58.58 0 11-.82.82l-.734-.735a.58.58 0 01.41-.99zM9.133 29.004a.577.577 0 01.502.799.585.585 0 01-.535.358.585.585 0 01-.54-.37.584.584 0 01.155-.643.583.583 0 01.418-.144zm2.946 2.936c.242.019.45.19.515.424.142.504-.442.93-.88.636a.585.585 0 01-.212-.705.585.585 0 01.577-.355z" fill="#0A6FE7"/></svg>