<svg width="36" height="36" fill="none" xmlns="http://www.w3.org/2000/svg"><path d="M34.732 0H1.268C.568 0 0 .568 0 1.268v27.19c0 .7.568 1.267 1.268 1.267h11.281v3.74H9.634a1.268 1.268 0 000 2.535h16.732a1.268 1.268 0 000-2.535h-2.915v-3.74h11.281c.7 0 1.268-.567 1.268-1.267V1.268C36 .568 35.432 0 34.732 0zm-1.267 2.535v17.05H20.17V10.9c0-.7-.568-1.267-1.268-1.267h-3.906V6.382c0-.7-.568-1.268-1.268-1.268H9.59c-.7 0-1.267.568-1.267 1.268v1.383H5.451c-.7 0-1.268.568-1.268 1.268v10.551H2.535V2.535h30.93zM17.635 18.97h-2.638v-6.802h2.639v6.802zm-5.173-8.07v8.07h-1.604V7.65h1.604v3.25zm-4.14 8.07H6.718V10.3h1.604v8.67zm12.594 14.495h-5.831v-3.74h5.83v3.74zM2.536 27.19v-5.07h30.929v5.07H2.535z" fill="#22A2EA"/><path d="M34.732 0H1.268C.568 0 0 .568 0 1.268v27.19c0 .7.568 1.267 1.268 1.267h11.281v3.74H9.634a1.268 1.268 0 000 2.535h16.732a1.268 1.268 0 000-2.535h-2.915v-3.74h11.281c.7 0 1.268-.567 1.268-1.267V1.268C36 .568 35.432 0 34.732 0zm-1.267 2.535v17.05H20.17V10.9c0-.7-.568-1.267-1.268-1.267h-3.906V6.382c0-.7-.568-1.268-1.268-1.268H9.59c-.7 0-1.267.568-1.267 1.268v1.383H5.451c-.7 0-1.268.568-1.268 1.268v10.551H2.535V2.535h30.93zM17.635 18.97h-2.638v-6.802h2.639v6.802zm-5.173-8.07v8.07h-1.604V7.65h1.604v3.25zm-4.14 8.07H6.718V10.3h1.604v8.67zm12.594 14.495h-5.831v-3.74h5.83v3.74zM2.536 27.19v-5.07h30.929v5.07H2.535z" fill="#2B71FD"/><path d="M34.732 0H1.268C.568 0 0 .568 0 1.268v27.19c0 .7.568 1.267 1.268 1.267h11.281v3.74H9.634a1.268 1.268 0 000 2.535h16.732a1.268 1.268 0 000-2.535h-2.915v-3.74h11.281c.7 0 1.268-.567 1.268-1.267V1.268C36 .568 35.432 0 34.732 0zm-1.267 2.535v17.05H20.17V10.9c0-.7-.568-1.267-1.268-1.267h-3.906V6.382c0-.7-.568-1.268-1.268-1.268H9.59c-.7 0-1.267.568-1.267 1.268v1.383H5.451c-.7 0-1.268.568-1.268 1.268v10.551H2.535V2.535h30.93zM17.635 18.97h-2.638v-6.802h2.639v6.802zm-5.173-8.07v8.07h-1.604V7.65h1.604v3.25zm-4.14 8.07H6.718V10.3h1.604v8.67zm12.594 14.495h-5.831v-3.74h5.83v3.74zM2.536 27.19v-5.07h30.929v5.07H2.535z" fill="#0A6FE7"/><path d="M18 23.45c-.334 0-.66.136-.897.372a1.277 1.277 0 00-.371.896c0 .334.135.66.371.896s.563.372.897.372c.333 0 .66-.136.896-.372.235-.235.371-.563.371-.896 0-.333-.135-.66-.371-.896a1.277 1.277 0 00-.896-.371z" fill="#22A2EA"/><path d="M18 23.45c-.334 0-.66.136-.897.372a1.277 1.277 0 00-.371.896c0 .334.135.66.371.896s.563.372.897.372c.333 0 .66-.136.896-.372.235-.235.371-.563.371-.896 0-.333-.135-.66-.371-.896a1.277 1.277 0 00-.896-.371z" fill="#2B71FD"/><path d="M18 23.45c-.334 0-.66.136-.897.372a1.277 1.277 0 00-.371.896c0 .334.135.66.371.896s.563.372.897.372c.333 0 .66-.136.896-.372.235-.235.371-.563.371-.896 0-.333-.135-.66-.371-.896a1.277 1.277 0 00-.896-.371z" fill="#0A6FE7"/></svg>