<svg width="36" height="36" fill="none" xmlns="http://www.w3.org/2000/svg"><g clip-path="url(#clip0)"><path d="M33.505 24.133l1.967-1.968a1.8 1.8 0 000-2.546L16.381.528a1.797 1.797 0 00-2.546 0L8.745 5.62a1.8 1.8 0 000 2.546l19.09 19.092a1.799 1.799 0 002.546 0l1.851-1.851L33.827 27l-6.377 6.377-12.414-12.413a.9.9 0 00-1.272 0l-3.69 3.69-.637-.637a1.795 1.795 0 00-1.273-.527c-.46 0-.922.176-1.273.527L.527 30.383a1.8 1.8 0 000 2.546l2.546 2.546a1.798 1.798 0 002.545-.001l6.364-6.364a1.8 1.8 0 000-2.546l-.636-.637 3.054-3.053 12.413 12.413a.897.897 0 001.273 0l7.65-7.65a.9.9 0 000-1.273l-2.231-2.23zm-4.397 1.85L10.017 6.892l5.09-5.091L34.2 20.893l-5.09 5.09zM4.346 34.2L1.8 31.654l6.364-6.363 2.546 2.545L4.346 34.2z" fill="#22A2EA"/><path d="M33.505 24.133l1.967-1.968a1.8 1.8 0 000-2.546L16.381.528a1.797 1.797 0 00-2.546 0L8.745 5.62a1.8 1.8 0 000 2.546l19.09 19.092a1.799 1.799 0 002.546 0l1.851-1.851L33.827 27l-6.377 6.377-12.414-12.413a.9.9 0 00-1.272 0l-3.69 3.69-.637-.637a1.795 1.795 0 00-1.273-.527c-.46 0-.922.176-1.273.527L.527 30.383a1.8 1.8 0 000 2.546l2.546 2.546a1.798 1.798 0 002.545-.001l6.364-6.364a1.8 1.8 0 000-2.546l-.636-.637 3.054-3.053 12.413 12.413a.897.897 0 001.273 0l7.65-7.65a.9.9 0 000-1.273l-2.231-2.23zm-4.397 1.85L10.017 6.892l5.09-5.091L34.2 20.893l-5.09 5.09zM4.346 34.2L1.8 31.654l6.364-6.363 2.546 2.545L4.346 34.2z" fill="#2B71FD"/><path d="M33.505 24.133l1.967-1.968a1.8 1.8 0 000-2.546L16.381.528a1.797 1.797 0 00-2.546 0L8.745 5.62a1.8 1.8 0 000 2.546l19.09 19.092a1.799 1.799 0 002.546 0l1.851-1.851L33.827 27l-6.377 6.377-12.414-12.413a.9.9 0 00-1.272 0l-3.69 3.69-.637-.637a1.795 1.795 0 00-1.273-.527c-.46 0-.922.176-1.273.527L.527 30.383a1.8 1.8 0 000 2.546l2.546 2.546a1.798 1.798 0 002.545-.001l6.364-6.364a1.8 1.8 0 000-2.546l-.636-.637 3.054-3.053 12.413 12.413a.897.897 0 001.273 0l7.65-7.65a.9.9 0 000-1.273l-2.231-2.23zm-4.397 1.85L10.017 6.892l5.09-5.091L34.2 20.893l-5.09 5.09zM4.346 34.2L1.8 31.654l6.364-6.363 2.546 2.545L4.346 34.2z" fill="#0A6FE7"/></g><defs><clipPath id="clip0"><path fill="#fff" d="M0 0h36v36H0z"/></clipPath></defs></svg>