<svg width="40" height="40" fill="none" xmlns="http://www.w3.org/2000/svg"><path d="M37.91 23.113l-8.25-1.376-2.391-3.586a3.328 3.328 0 00-2.773-1.485H12.17a3.328 3.328 0 00-2.773 1.485L6.986 21.77l-5.091 1.273A2.497 2.497 0 000 25.468v4.187c0 .982.383 1.906 1.077 2.6a3.706 3.706 0 002.601 1.078h2.24A4.173 4.173 0 0010 36.667a4.173 4.173 0 004.082-3.334h11.002a4.173 4.173 0 004.083 3.334 4.173 4.173 0 004.082-3.334h3.735c.636 0 1.208-.352 1.492-.921l1.348-2.697a.827.827 0 00.067-.184l.088-.373a.816.816 0 00.02-.188v-3.392a2.49 2.49 0 00-2.089-2.465zM10 35a2.503 2.503 0 01-2.5-2.5c0-1.38 1.121-2.5 2.5-2.5s2.5 1.121 2.5 2.5c0 1.378-1.121 2.5-2.5 2.5zm19.167 0a2.503 2.503 0 01-2.5-2.5c0-1.379 1.121-2.5 2.5-2.5 1.378 0 2.5 1.121 2.5 2.5 0 1.378-1.122 2.5-2.5 2.5zm9.166-6.127l-1.349 2.793H33.25a4.173 4.173 0 00-4.082-3.333 4.173 4.173 0 00-4.083 3.333H14.082A4.173 4.173 0 0010 28.333a4.173 4.173 0 00-4.082 3.333h-2.24a2.027 2.027 0 01-1.422-.589c-.38-.38-.59-.885-.59-1.422v-4.187c0-.384.261-.716.632-.81l5.404-1.35a.83.83 0 00.491-.346l2.591-3.887c.31-.464.829-.742 1.387-.742h12.325c.558 0 1.077.278 1.386.742l2.591 3.887a.827.827 0 00.557.36l8.607 1.434a.83.83 0 01.696.822v3.295z" fill="#22A2EA"/><path d="M37.91 23.113l-8.25-1.376-2.391-3.586a3.328 3.328 0 00-2.773-1.485H12.17a3.328 3.328 0 00-2.773 1.485L6.986 21.77l-5.091 1.273A2.497 2.497 0 000 25.468v4.187c0 .982.383 1.906 1.077 2.6a3.706 3.706 0 002.601 1.078h2.24A4.173 4.173 0 0010 36.667a4.173 4.173 0 004.082-3.334h11.002a4.173 4.173 0 004.083 3.334 4.173 4.173 0 004.082-3.334h3.735c.636 0 1.208-.352 1.492-.921l1.348-2.697a.827.827 0 00.067-.184l.088-.373a.816.816 0 00.02-.188v-3.392a2.49 2.49 0 00-2.089-2.465zM10 35a2.503 2.503 0 01-2.5-2.5c0-1.38 1.121-2.5 2.5-2.5s2.5 1.121 2.5 2.5c0 1.378-1.121 2.5-2.5 2.5zm19.167 0a2.503 2.503 0 01-2.5-2.5c0-1.379 1.121-2.5 2.5-2.5 1.378 0 2.5 1.121 2.5 2.5 0 1.378-1.122 2.5-2.5 2.5zm9.166-6.127l-1.349 2.793H33.25a4.173 4.173 0 00-4.082-3.333 4.173 4.173 0 00-4.083 3.333H14.082A4.173 4.173 0 0010 28.333a4.173 4.173 0 00-4.082 3.333h-2.24a2.027 2.027 0 01-1.422-.589c-.38-.38-.59-.885-.59-1.422v-4.187c0-.384.261-.716.632-.81l5.404-1.35a.83.83 0 00.491-.346l2.591-3.887c.31-.464.829-.742 1.387-.742h12.325c.558 0 1.077.278 1.386.742l2.591 3.887a.827.827 0 00.557.36l8.607 1.434a.83.83 0 01.696.822v3.295z" fill="#2B71FD"/><path d="M37.91 23.113l-8.25-1.376-2.391-3.586a3.328 3.328 0 00-2.773-1.485H12.17a3.328 3.328 0 00-2.773 1.485L6.986 21.77l-5.091 1.273A2.497 2.497 0 000 25.468v4.187c0 .982.383 1.906 1.077 2.6a3.706 3.706 0 002.601 1.078h2.24A4.173 4.173 0 0010 36.667a4.173 4.173 0 004.082-3.334h11.002a4.173 4.173 0 004.083 3.334 4.173 4.173 0 004.082-3.334h3.735c.636 0 1.208-.352 1.492-.921l1.348-2.697a.827.827 0 00.067-.184l.088-.373a.816.816 0 00.02-.188v-3.392a2.49 2.49 0 00-2.089-2.465zM10 35a2.503 2.503 0 01-2.5-2.5c0-1.38 1.121-2.5 2.5-2.5s2.5 1.121 2.5 2.5c0 1.378-1.121 2.5-2.5 2.5zm19.167 0a2.503 2.503 0 01-2.5-2.5c0-1.379 1.121-2.5 2.5-2.5 1.378 0 2.5 1.121 2.5 2.5 0 1.378-1.122 2.5-2.5 2.5zm9.166-6.127l-1.349 2.793H33.25a4.173 4.173 0 00-4.082-3.333 4.173 4.173 0 00-4.083 3.333H14.082A4.173 4.173 0 0010 28.333a4.173 4.173 0 00-4.082 3.333h-2.24a2.027 2.027 0 01-1.422-.589c-.38-.38-.59-.885-.59-1.422v-4.187c0-.384.261-.716.632-.81l5.404-1.35a.83.83 0 00.491-.346l2.591-3.887c.31-.464.829-.742 1.387-.742h12.325c.558 0 1.077.278 1.386.742l2.591 3.887a.827.827 0 00.557.36l8.607 1.434a.83.83 0 01.696.822v3.295z" fill="#0A6FE7"/><path d="M25.345 10.776c.427 0 .853-.163 1.179-.488a1.67 1.67 0 000-2.357 1.669 1.669 0 00-2.357 0 1.668 1.668 0 001.178 2.845z" fill="#22A2EA"/><path d="M25.345 10.776c.427 0 .853-.163 1.179-.488a1.67 1.67 0 000-2.357 1.669 1.669 0 00-2.357 0 1.668 1.668 0 001.178 2.845z" fill="#2B71FD"/><path d="M25.345 10.776c.427 0 .853-.163 1.179-.488a1.67 1.67 0 000-2.357 1.669 1.669 0 00-2.357 0 1.668 1.668 0 001.178 2.845z" fill="#0A6FE7"/><path d="M11.178 11.466a.833.833 0 00.59.244h7.185a5.79 5.79 0 005.213 3.232 5.79 5.79 0 004.125-1.708A5.793 5.793 0 0030 9.109a5.795 5.795 0 00-1.71-4.124c-2.204-2.204-6.05-2.201-8.246 0a5.676 5.676 0 00-1.09 1.523h-7.187a.833.833 0 00-.589.245L9.411 8.52a.833.833 0 000 1.179l1.767 1.767zm.934-3.29H19.5a.834.834 0 00.78-.539c.214-.57.532-1.065.942-1.474 1.572-1.573 4.32-1.573 5.892 0a4.136 4.136 0 011.22 2.946 4.136 4.136 0 01-1.22 2.946c-1.573 1.574-4.318 1.575-5.894 0a4.114 4.114 0 01-.94-1.473.834.834 0 00-.78-.538h-7.386l-.935-.935.934-.934z" fill="#22A2EA"/><path d="M11.178 11.466a.833.833 0 00.59.244h7.185a5.79 5.79 0 005.213 3.232 5.79 5.79 0 004.125-1.708A5.793 5.793 0 0030 9.109a5.795 5.795 0 00-1.71-4.124c-2.204-2.204-6.05-2.201-8.246 0a5.676 5.676 0 00-1.09 1.523h-7.187a.833.833 0 00-.589.245L9.411 8.52a.833.833 0 000 1.179l1.767 1.767zm.934-3.29H19.5a.834.834 0 00.78-.539c.214-.57.532-1.065.942-1.474 1.572-1.573 4.32-1.573 5.892 0a4.136 4.136 0 011.22 2.946 4.136 4.136 0 01-1.22 2.946c-1.573 1.574-4.318 1.575-5.894 0a4.114 4.114 0 01-.94-1.473.834.834 0 00-.78-.538h-7.386l-.935-.935.934-.934z" fill="#2B71FD"/><path d="M11.178 11.466a.833.833 0 00.59.244h7.185a5.79 5.79 0 005.213 3.232 5.79 5.79 0 004.125-1.708A5.793 5.793 0 0030 9.109a5.795 5.795 0 00-1.71-4.124c-2.204-2.204-6.05-2.201-8.246 0a5.676 5.676 0 00-1.09 1.523h-7.187a.833.833 0 00-.589.245L9.411 8.52a.833.833 0 000 1.179l1.767 1.767zm.934-3.29H19.5a.834.834 0 00.78-.539c.214-.57.532-1.065.942-1.474 1.572-1.573 4.32-1.573 5.892 0a4.136 4.136 0 011.22 2.946 4.136 4.136 0 01-1.22 2.946c-1.573 1.574-4.318 1.575-5.894 0a4.114 4.114 0 01-.94-1.473.834.834 0 00-.78-.538h-7.386l-.935-.935.934-.934z" fill="#0A6FE7"/><path d="M24.757 20.394A.833.833 0 0024.05 20H12.617c-.308 0-.59.17-.734.44l-1.784 3.334A.832.832 0 0010.833 25H26.12a.83.83 0 00.727-.428.831.831 0 00-.02-.845l-2.07-3.333zm-12.532 2.94l.892-1.667h10.468l1.036 1.666H12.225z" fill="#22A2EA"/><path d="M24.757 20.394A.833.833 0 0024.05 20H12.617c-.308 0-.59.17-.734.44l-1.784 3.334A.832.832 0 0010.833 25H26.12a.83.83 0 00.727-.428.831.831 0 00-.02-.845l-2.07-3.333zm-12.532 2.94l.892-1.667h10.468l1.036 1.666H12.225z" fill="#2B71FD"/><path d="M24.757 20.394A.833.833 0 0024.05 20H12.617c-.308 0-.59.17-.734.44l-1.784 3.334A.832.832 0 0010.833 25H26.12a.83.83 0 00.727-.428.831.831 0 00-.02-.845l-2.07-3.333zm-12.532 2.94l.892-1.667h10.468l1.036 1.666H12.225z" fill="#0A6FE7"/></svg>