<svg width="36" height="36" fill="none" xmlns="http://www.w3.org/2000/svg"><g clip-path="url(#clip0)"><path d="M32.522 26.084a4.278 4.278 0 00-2.203-3.781l-2.722-5.175c-.773-1.47-2.212-2.346-3.85-2.346h-11.16c-1.636 0-3.075.876-3.848 2.344-.452.857-2.55 4.814-2.806 5.299-1.309.776-2.097 2.145-2.1 3.718l-.002 7.215A2.645 2.645 0 006.474 36h3.174a2.645 2.645 0 002.642-2.642V31.77h11.773v1.588A2.645 2.645 0 0026.705 36h3.175a2.645 2.645 0 002.642-2.642v-7.274zM8.197 29.656c-.603 0-1.17-.236-1.598-.664a2.205 2.205 0 01-.653-1.57l.002-1.276c.001-.948.53-1.724 1.415-2.075 2.408-.955 6.45-1.525 10.816-1.525 1.69 0 7.607.352 10.718 1.428.933.323 1.511 1.13 1.51 2.107l-.002 1.342a2.246 2.246 0 01-2.25 2.233H8.196zM10.61 18.11c.413-.783 1.115-1.215 1.978-1.215h11.159c.85 0 1.572.444 1.978 1.217l1.728 3.286c-3.67-.784-8.33-.968-9.274-.968-3.456 0-6.753.35-9.3.966.12-.225 1.28-2.43 1.731-3.286zm-.434 15.247a.535.535 0 01-.528.527H6.474a.535.535 0 01-.528-.527v-2.21a4.342 4.342 0 002.25.622h1.98v1.588zm19.703.527h-3.174a.535.535 0 01-.528-.527V31.77h1.977c.824 0 1.595-.228 2.253-.625v2.213a.535.535 0 01-.528.527z" fill="#22A2EA"/><path d="M32.522 26.084a4.278 4.278 0 00-2.203-3.781l-2.722-5.175c-.773-1.47-2.212-2.346-3.85-2.346h-11.16c-1.636 0-3.075.876-3.848 2.344-.452.857-2.55 4.814-2.806 5.299-1.309.776-2.097 2.145-2.1 3.718l-.002 7.215A2.645 2.645 0 006.474 36h3.174a2.645 2.645 0 002.642-2.642V31.77h11.773v1.588A2.645 2.645 0 0026.705 36h3.175a2.645 2.645 0 002.642-2.642v-7.274zM8.197 29.656c-.603 0-1.17-.236-1.598-.664a2.205 2.205 0 01-.653-1.57l.002-1.276c.001-.948.53-1.724 1.415-2.075 2.408-.955 6.45-1.525 10.816-1.525 1.69 0 7.607.352 10.718 1.428.933.323 1.511 1.13 1.51 2.107l-.002 1.342a2.246 2.246 0 01-2.25 2.233H8.196zM10.61 18.11c.413-.783 1.115-1.215 1.978-1.215h11.159c.85 0 1.572.444 1.978 1.217l1.728 3.286c-3.67-.784-8.33-.968-9.274-.968-3.456 0-6.753.35-9.3.966.12-.225 1.28-2.43 1.731-3.286zm-.434 15.247a.535.535 0 01-.528.527H6.474a.535.535 0 01-.528-.527v-2.21a4.342 4.342 0 002.25.622h1.98v1.588zm19.703.527h-3.174a.535.535 0 01-.528-.527V31.77h1.977c.824 0 1.595-.228 2.253-.625v2.213a.535.535 0 01-.528.527z" fill="#2B71FD"/><path d="M32.522 26.084a4.278 4.278 0 00-2.203-3.781l-2.722-5.175c-.773-1.47-2.212-2.346-3.85-2.346h-11.16c-1.636 0-3.075.876-3.848 2.344-.452.857-2.55 4.814-2.806 5.299-1.309.776-2.097 2.145-2.1 3.718l-.002 7.215A2.645 2.645 0 006.474 36h3.174a2.645 2.645 0 002.642-2.642V31.77h11.773v1.588A2.645 2.645 0 0026.705 36h3.175a2.645 2.645 0 002.642-2.642v-7.274zM8.197 29.656c-.603 0-1.17-.236-1.598-.664a2.205 2.205 0 01-.653-1.57l.002-1.276c.001-.948.53-1.724 1.415-2.075 2.408-.955 6.45-1.525 10.816-1.525 1.69 0 7.607.352 10.718 1.428.933.323 1.511 1.13 1.51 2.107l-.002 1.342a2.246 2.246 0 01-2.25 2.233H8.196zM10.61 18.11c.413-.783 1.115-1.215 1.978-1.215h11.159c.85 0 1.572.444 1.978 1.217l1.728 3.286c-3.67-.784-8.33-.968-9.274-.968-3.456 0-6.753.35-9.3.966.12-.225 1.28-2.43 1.731-3.286zm-.434 15.247a.535.535 0 01-.528.527H6.474a.535.535 0 01-.528-.527v-2.21a4.342 4.342 0 002.25.622h1.98v1.588zm19.703.527h-3.174a.535.535 0 01-.528-.527V31.77h1.977c.824 0 1.595-.228 2.253-.625v2.213a.535.535 0 01-.528.527z" fill="#0A6FE7"/><path d="M33.913 7.402h-1.985a1.059 1.059 0 010-2.115h1.985a1.058 1.058 0 00.97-1.48 6.347 6.347 0 00-11.312-.635H12.43a6.347 6.347 0 00-11.311.634 1.057 1.057 0 00.969 1.48h1.985a1.059 1.059 0 010 2.116H2.087a1.057 1.057 0 00-.969 1.48 6.346 6.346 0 0011.31.635h11.143a6.347 6.347 0 0011.311-.635 1.057 1.057 0 00-.969-1.48zm-4.846 3.172a4.232 4.232 0 01-3.878-2.538 1.057 1.057 0 00-.969-.634H11.78c-.42 0-.8.249-.969.634a4.232 4.232 0 01-6.676 1.48 3.176 3.176 0 003.11-3.172 3.176 3.176 0 00-3.11-3.171 4.23 4.23 0 016.676 1.48c.168.385.549.634.97.634h12.44c.42 0 .8-.249.968-.634a4.232 4.232 0 016.677-1.48 3.176 3.176 0 00-3.11 3.171 3.176 3.176 0 003.11 3.172 4.23 4.23 0 01-2.8 1.058z" fill="#22A2EA"/><path d="M33.913 7.402h-1.985a1.059 1.059 0 010-2.115h1.985a1.058 1.058 0 00.97-1.48 6.347 6.347 0 00-11.312-.635H12.43a6.347 6.347 0 00-11.311.634 1.057 1.057 0 00.969 1.48h1.985a1.059 1.059 0 010 2.116H2.087a1.057 1.057 0 00-.969 1.48 6.346 6.346 0 0011.31.635h11.143a6.347 6.347 0 0011.311-.635 1.057 1.057 0 00-.969-1.48zm-4.846 3.172a4.232 4.232 0 01-3.878-2.538 1.057 1.057 0 00-.969-.634H11.78c-.42 0-.8.249-.969.634a4.232 4.232 0 01-6.676 1.48 3.176 3.176 0 003.11-3.172 3.176 3.176 0 00-3.11-3.171 4.23 4.23 0 016.676 1.48c.168.385.549.634.97.634h12.44c.42 0 .8-.249.968-.634a4.232 4.232 0 016.677-1.48 3.176 3.176 0 00-3.11 3.171 3.176 3.176 0 003.11 3.172 4.23 4.23 0 01-2.8 1.058z" fill="#2B71FD"/><path d="M33.913 7.402h-1.985a1.059 1.059 0 010-2.115h1.985a1.058 1.058 0 00.97-1.48 6.347 6.347 0 00-11.312-.635H12.43a6.347 6.347 0 00-11.311.634 1.057 1.057 0 00.969 1.48h1.985a1.059 1.059 0 010 2.116H2.087a1.057 1.057 0 00-.969 1.48 6.346 6.346 0 0011.31.635h11.143a6.347 6.347 0 0011.311-.635 1.057 1.057 0 00-.969-1.48zm-4.846 3.172a4.232 4.232 0 01-3.878-2.538 1.057 1.057 0 00-.969-.634H11.78c-.42 0-.8.249-.969.634a4.232 4.232 0 01-6.676 1.48 3.176 3.176 0 003.11-3.172 3.176 3.176 0 00-3.11-3.171 4.23 4.23 0 016.676 1.48c.168.385.549.634.97.634h12.44c.42 0 .8-.249.968-.634a4.232 4.232 0 016.677-1.48 3.176 3.176 0 00-3.11 3.171 3.176 3.176 0 003.11 3.172 4.23 4.23 0 01-2.8 1.058z" fill="#0A6FE7"/><path d="M9.118 25.43a1.06 1.06 0 00-1.057 1.057 1.06 1.06 0 001.057 1.058 1.06 1.06 0 001.058-1.058 1.06 1.06 0 00-1.058-1.057z" fill="#22A2EA"/><path d="M9.118 25.43a1.06 1.06 0 00-1.057 1.057 1.06 1.06 0 001.057 1.058 1.06 1.06 0 001.058-1.058 1.06 1.06 0 00-1.058-1.057z" fill="#2B71FD"/><path d="M9.118 25.43a1.06 1.06 0 00-1.057 1.057 1.06 1.06 0 001.057 1.058 1.06 1.06 0 001.058-1.058 1.06 1.06 0 00-1.058-1.057z" fill="#0A6FE7"/><path d="M27.235 25.426a1.06 1.06 0 00-1.058 1.058 1.06 1.06 0 001.058 1.057 1.06 1.06 0 001.057-1.057 1.06 1.06 0 00-1.057-1.058z" fill="#22A2EA"/><path d="M27.235 25.426a1.06 1.06 0 00-1.058 1.058 1.06 1.06 0 001.058 1.057 1.06 1.06 0 001.057-1.057 1.06 1.06 0 00-1.057-1.058z" fill="#2B71FD"/><path d="M27.235 25.426a1.06 1.06 0 00-1.058 1.058 1.06 1.06 0 001.058 1.057 1.06 1.06 0 001.057-1.057 1.06 1.06 0 00-1.057-1.058z" fill="#0A6FE7"/><path d="M23.005 25.426h-9.657a1.057 1.057 0 100 2.115h9.657a1.057 1.057 0 000-2.115z" fill="#22A2EA"/><path d="M23.005 25.426h-9.657a1.057 1.057 0 100 2.115h9.657a1.057 1.057 0 000-2.115z" fill="#2B71FD"/><path d="M23.005 25.426h-9.657a1.057 1.057 0 100 2.115h9.657a1.057 1.057 0 000-2.115z" fill="#0A6FE7"/></g><defs><clipPath id="clip0"><path fill="#fff" d="M0 0h36v36H0z"/></clipPath></defs></svg>