<svg width="48" height="48" fill="none" xmlns="http://www.w3.org/2000/svg"><g clip-path="url(#clip0)"><path d="M28.358 33.98l-1.42-7.916 8.628-3.77a8.018 8.018 0 004.196-4.469c1.405-3.726 1.262-5.282 1.24-5.447a.6.6 0 00-.892-.446l-14.248 8.129-2.89-16.12a.566.566 0 00-.351-.443.603.603 0 00-.565.045c-.14.09-1.425.98-3.376 4.452a8.022 8.022 0 00-.724 6.091l2.616 8.992-7.014 4a5.405 5.405 0 00-7.118 2.636 5.406 5.406 0 002.612 7.176 5.406 5.406 0 007.176-2.612 5.376 5.376 0 00.32-3.672l5.512-2.41 1.675 5.757a5.374 5.374 0 00-2.613 2.607 5.406 5.406 0 002.612 7.176 5.406 5.406 0 007.175-2.612 5.404 5.404 0 00-2.55-7.143zm-18.292.735a3.003 3.003 0 01-1.45-3.987 3.003 3.003 0 013.986-1.45 3.002 3.002 0 011.451 3.986 3.003 3.003 0 01-3.987 1.451zm6.046-5.228c-.017-.031-.037-.06-.054-.09a5.713 5.713 0 00-.274-.445 5.23 5.23 0 00-.25-.34l-.062-.076a5.426 5.426 0 00-.321-.35l-.035-.036a5.551 5.551 0 00-.388-.346l-.008-.007 6.196-3.534.807 2.771-5.611 2.453zm8.762 4.082L21.92 23.422l-.065-.225-2.747-9.443a6.811 6.811 0 01.618-5.171c.96-1.708 1.74-2.739 2.26-3.33l5.075 28.297c-.004 0-.008 0-.011-.002a5.33 5.33 0 00-.513-.074l-.052-.005a5.315 5.315 0 00-1.51.082c-.034.007-.069.01-.102.017zm-.126 7.992a3.003 3.003 0 01-1.451-3.987 3.003 3.003 0 013.986-1.45 3.002 3.002 0 011.451 3.986 3.003 3.003 0 01-3.986 1.451z" fill="#22A2EA"/><path d="M28.358 33.98l-1.42-7.916 8.628-3.77a8.018 8.018 0 004.196-4.469c1.405-3.726 1.262-5.282 1.24-5.447a.6.6 0 00-.892-.446l-14.248 8.129-2.89-16.12a.566.566 0 00-.351-.443.603.603 0 00-.565.045c-.14.09-1.425.98-3.376 4.452a8.022 8.022 0 00-.724 6.091l2.616 8.992-7.014 4a5.405 5.405 0 00-7.118 2.636 5.406 5.406 0 002.612 7.176 5.406 5.406 0 007.176-2.612 5.376 5.376 0 00.32-3.672l5.512-2.41 1.675 5.757a5.374 5.374 0 00-2.613 2.607 5.406 5.406 0 002.612 7.176 5.406 5.406 0 007.175-2.612 5.404 5.404 0 00-2.55-7.143zm-18.292.735a3.003 3.003 0 01-1.45-3.987 3.003 3.003 0 013.986-1.45 3.002 3.002 0 011.451 3.986 3.003 3.003 0 01-3.987 1.451zm6.046-5.228c-.017-.031-.037-.06-.054-.09a5.713 5.713 0 00-.274-.445 5.23 5.23 0 00-.25-.34l-.062-.076a5.426 5.426 0 00-.321-.35l-.035-.036a5.551 5.551 0 00-.388-.346l-.008-.007 6.196-3.534.807 2.771-5.611 2.453zm8.762 4.082L21.92 23.422l-.065-.225-2.747-9.443a6.811 6.811 0 01.618-5.171c.96-1.708 1.74-2.739 2.26-3.33l5.075 28.297c-.004 0-.008 0-.011-.002a5.33 5.33 0 00-.513-.074l-.052-.005a5.315 5.315 0 00-1.51.082c-.034.007-.069.01-.102.017zm-.126 7.992a3.003 3.003 0 01-1.451-3.987 3.003 3.003 0 013.986-1.45 3.002 3.002 0 011.451 3.986 3.003 3.003 0 01-3.986 1.451z" fill="#2B71FD"/><path d="M28.358 33.98l-1.42-7.916 8.628-3.77a8.018 8.018 0 004.196-4.469c1.405-3.726 1.262-5.282 1.24-5.447a.6.6 0 00-.892-.446l-14.248 8.129-2.89-16.12a.566.566 0 00-.351-.443.603.603 0 00-.565.045c-.14.09-1.425.98-3.376 4.452a8.022 8.022 0 00-.724 6.091l2.616 8.992-7.014 4a5.405 5.405 0 00-7.118 2.636 5.406 5.406 0 002.612 7.176 5.406 5.406 0 007.176-2.612 5.376 5.376 0 00.32-3.672l5.512-2.41 1.675 5.757a5.374 5.374 0 00-2.613 2.607 5.406 5.406 0 002.612 7.176 5.406 5.406 0 007.175-2.612 5.404 5.404 0 00-2.55-7.143zm-18.292.735a3.003 3.003 0 01-1.45-3.987 3.003 3.003 0 013.986-1.45 3.002 3.002 0 011.451 3.986 3.003 3.003 0 01-3.987 1.451zm6.046-5.228c-.017-.031-.037-.06-.054-.09a5.713 5.713 0 00-.274-.445 5.23 5.23 0 00-.25-.34l-.062-.076a5.426 5.426 0 00-.321-.35l-.035-.036a5.551 5.551 0 00-.388-.346l-.008-.007 6.196-3.534.807 2.771-5.611 2.453zm8.762 4.082L21.92 23.422l-.065-.225-2.747-9.443a6.811 6.811 0 01.618-5.171c.96-1.708 1.74-2.739 2.26-3.33l5.075 28.297c-.004 0-.008 0-.011-.002a5.33 5.33 0 00-.513-.074l-.052-.005a5.315 5.315 0 00-1.51.082c-.034.007-.069.01-.102.017zm-.126 7.992a3.003 3.003 0 01-1.451-3.987 3.003 3.003 0 013.986-1.45 3.002 3.002 0 011.451 3.986 3.003 3.003 0 01-3.986 1.451z" fill="#0A6FE7"/><path d="M26.776 37.21a1.802 1.802 0 00-2.392.871c-.419.9-.028 1.973.87 2.392.9.42 1.973.03 2.393-.87.42-.9.029-1.973-.87-2.392z" fill="#22A2EA"/><path d="M26.776 37.21a1.802 1.802 0 00-2.392.871c-.419.9-.028 1.973.87 2.392.9.42 1.973.03 2.393-.87.42-.9.029-1.973-.87-2.392z" fill="#2B71FD"/><path d="M26.776 37.21a1.802 1.802 0 00-2.392.871c-.419.9-.028 1.973.87 2.392.9.42 1.973.03 2.393-.87.42-.9.029-1.973-.87-2.392z" fill="#0A6FE7"/><path d="M12.095 30.365a1.802 1.802 0 00-2.392.87c-.42.9-.029 1.973.87 2.393.9.42 1.973.029 2.393-.87.419-.9.028-1.973-.871-2.393z" fill="#22A2EA"/><path d="M12.095 30.365a1.802 1.802 0 00-2.392.87c-.42.9-.029 1.973.87 2.393.9.42 1.973.029 2.393-.87.419-.9.028-1.973-.871-2.393z" fill="#2B71FD"/><path d="M12.095 30.365a1.802 1.802 0 00-2.392.87c-.42.9-.029 1.973.87 2.393.9.42 1.973.029 2.393-.87.419-.9.028-1.973-.871-2.393z" fill="#0A6FE7"/></g><defs><clipPath id="clip0"><path transform="rotate(25 15.293 .08)" fill="#fff" d="M15.293.079h36v36h-36z"/></clipPath></defs></svg>