<svg width="36" height="36" fill="none" xmlns="http://www.w3.org/2000/svg"><path d="M33.89 19.236v-3.345c0-.582-.472-1.055-1.054-1.055-2.179 0-4.21.184-6.13.56a9.523 9.523 0 00-3.959-2.293 7.37 7.37 0 002.636-5.65C25.383 3.344 22.07 0 18 0s-7.383 3.344-7.383 7.454a7.37 7.37 0 002.636 5.65 9.523 9.523 0 00-3.96 2.292c-1.919-.376-3.95-.56-6.129-.56-.582 0-1.055.473-1.055 1.055v3.345A3.169 3.169 0 000 22.22v2.11c0 1.374.882 2.547 2.11 2.982v3.346c0 .582.472 1.054 1.054 1.054 5.515 0 10.043 1.307 14.251 4.112.353.235.817.236 1.17 0 4.208-2.805 8.736-4.112 14.25-4.112.583 0 1.056-.472 1.056-1.054V27.31A3.169 3.169 0 0036 24.328V22.22a3.17 3.17 0 00-2.11-2.983zM12.728 7.454c0-2.947 2.365-5.344 5.273-5.344 2.908 0 5.273 2.397 5.273 5.344A5.28 5.28 0 0118 12.727a5.28 5.28 0 01-5.274-5.273zm-9.563 17.93a1.056 1.056 0 01-1.055-1.055v-2.11a1.056 1.056 0 012.11 0v2.11c0 .581-.473 1.054-1.055 1.054zm13.781 7.67c-3.829-2.19-7.937-3.297-12.726-3.437v-2.306a3.169 3.169 0 002.109-2.982v-2.11a3.17 3.17 0 00-2.11-2.983v-2.275c4.956.142 8.94 1.309 12.727 3.72v12.372zM18 18.853a25.065 25.065 0 00-6.136-2.82 7.398 7.398 0 014.026-1.198h4.22c1.438 0 2.837.425 4.026 1.197A25.063 25.063 0 0018 18.854zm13.78 10.764c-4.79.14-8.898 1.247-12.726 3.436v-12.37c3.787-2.413 7.77-3.58 12.726-3.722v2.276a3.17 3.17 0 00-2.11 2.982v2.11a3.17 3.17 0 002.11 2.982v2.306zm2.11-5.288a1.056 1.056 0 01-2.11 0v-2.11a1.056 1.056 0 012.11 0v2.11z" fill="#22A2EA"/><path d="M33.89 19.236v-3.345c0-.582-.472-1.055-1.054-1.055-2.179 0-4.21.184-6.13.56a9.523 9.523 0 00-3.959-2.293 7.37 7.37 0 002.636-5.65C25.383 3.344 22.07 0 18 0s-7.383 3.344-7.383 7.454a7.37 7.37 0 002.636 5.65 9.523 9.523 0 00-3.96 2.292c-1.919-.376-3.95-.56-6.129-.56-.582 0-1.055.473-1.055 1.055v3.345A3.169 3.169 0 000 22.22v2.11c0 1.374.882 2.547 2.11 2.982v3.346c0 .582.472 1.054 1.054 1.054 5.515 0 10.043 1.307 14.251 4.112.353.235.817.236 1.17 0 4.208-2.805 8.736-4.112 14.25-4.112.583 0 1.056-.472 1.056-1.054V27.31A3.169 3.169 0 0036 24.328V22.22a3.17 3.17 0 00-2.11-2.983zM12.728 7.454c0-2.947 2.365-5.344 5.273-5.344 2.908 0 5.273 2.397 5.273 5.344A5.28 5.28 0 0118 12.727a5.28 5.28 0 01-5.274-5.273zm-9.563 17.93a1.056 1.056 0 01-1.055-1.055v-2.11a1.056 1.056 0 012.11 0v2.11c0 .581-.473 1.054-1.055 1.054zm13.781 7.67c-3.829-2.19-7.937-3.297-12.726-3.437v-2.306a3.169 3.169 0 002.109-2.982v-2.11a3.17 3.17 0 00-2.11-2.983v-2.275c4.956.142 8.94 1.309 12.727 3.72v12.372zM18 18.853a25.065 25.065 0 00-6.136-2.82 7.398 7.398 0 014.026-1.198h4.22c1.438 0 2.837.425 4.026 1.197A25.063 25.063 0 0018 18.854zm13.78 10.764c-4.79.14-8.898 1.247-12.726 3.436v-12.37c3.787-2.413 7.77-3.58 12.726-3.722v2.276a3.17 3.17 0 00-2.11 2.982v2.11a3.17 3.17 0 002.11 2.982v2.306zm2.11-5.288a1.056 1.056 0 01-2.11 0v-2.11a1.056 1.056 0 012.11 0v2.11z" fill="#2B71FD"/><path d="M33.89 19.236v-3.345c0-.582-.472-1.055-1.054-1.055-2.179 0-4.21.184-6.13.56a9.523 9.523 0 00-3.959-2.293 7.37 7.37 0 002.636-5.65C25.383 3.344 22.07 0 18 0s-7.383 3.344-7.383 7.454a7.37 7.37 0 002.636 5.65 9.523 9.523 0 00-3.96 2.292c-1.919-.376-3.95-.56-6.129-.56-.582 0-1.055.473-1.055 1.055v3.345A3.169 3.169 0 000 22.22v2.11c0 1.374.882 2.547 2.11 2.982v3.346c0 .582.472 1.054 1.054 1.054 5.515 0 10.043 1.307 14.251 4.112.353.235.817.236 1.17 0 4.208-2.805 8.736-4.112 14.25-4.112.583 0 1.056-.472 1.056-1.054V27.31A3.169 3.169 0 0036 24.328V22.22a3.17 3.17 0 00-2.11-2.983zM12.728 7.454c0-2.947 2.365-5.344 5.273-5.344 2.908 0 5.273 2.397 5.273 5.344A5.28 5.28 0 0118 12.727a5.28 5.28 0 01-5.274-5.273zm-9.563 17.93a1.056 1.056 0 01-1.055-1.055v-2.11a1.056 1.056 0 012.11 0v2.11c0 .581-.473 1.054-1.055 1.054zm13.781 7.67c-3.829-2.19-7.937-3.297-12.726-3.437v-2.306a3.169 3.169 0 002.109-2.982v-2.11a3.17 3.17 0 00-2.11-2.983v-2.275c4.956.142 8.94 1.309 12.727 3.72v12.372zM18 18.853a25.065 25.065 0 00-6.136-2.82 7.398 7.398 0 014.026-1.198h4.22c1.438 0 2.837.425 4.026 1.197A25.063 25.063 0 0018 18.854zm13.78 10.764c-4.79.14-8.898 1.247-12.726 3.436v-12.37c3.787-2.413 7.77-3.58 12.726-3.722v2.276a3.17 3.17 0 00-2.11 2.982v2.11a3.17 3.17 0 002.11 2.982v2.306zm2.11-5.288a1.056 1.056 0 01-2.11 0v-2.11a1.056 1.056 0 012.11 0v2.11z" fill="#0A6FE7"/></svg>