<svg width="36" height="36" fill="none" xmlns="http://www.w3.org/2000/svg"><g clip-path="url(#clip0)"><path d="M31.1 13.936v-.835C31.1 5.86 25.242 0 18 0 10.777 0 4.901 5.876 4.901 13.1v.835a6.763 6.763 0 00-4.89 6.876c.192 3.584 3.2 6.389 6.738 6.389a3.152 3.152 0 003.157-3.152V16.83a3.15 3.15 0 00-2.887-3.14v-.59C7.019 7.045 11.945 2.119 18 2.119c6.07 0 10.982 4.911 10.982 10.982v.59a3.15 3.15 0 00-2.888 3.14v7.218a3.15 3.15 0 002.888 3.14c0 2.866-2.244 4.859-4.761 4.859h-2.305a2.898 2.898 0 00-2.693-1.835h-2.447a2.898 2.898 0 00-2.894 2.894A2.897 2.897 0 0016.777 36h2.447c1.222 0 2.27-.762 2.693-1.835h2.304a6.887 6.887 0 006.88-6.88v-.347c2.701-.779 4.733-3.209 4.89-6.127a6.764 6.764 0 00-4.89-6.876zM7.79 16.831v7.218c0 .535-.411 1.047-1.122 1.033-2.417-.047-4.412-1.973-4.542-4.384a4.64 4.64 0 014.636-4.9h.018c.557.002 1.01.465 1.01 1.033zm11.435 17.052h-2.447a.777.777 0 010-1.553h2.447a.777.777 0 010 1.553zm14.652-13.185a4.654 4.654 0 01-4.542 4.384c-.697.014-1.121-.487-1.121-1.033V16.83c0-.568.453-1.031 1.005-1.034h.022a4.64 4.64 0 014.636 4.901z" fill="#22A2EA"/><path d="M31.1 13.936v-.835C31.1 5.86 25.242 0 18 0 10.777 0 4.901 5.876 4.901 13.1v.835a6.763 6.763 0 00-4.89 6.876c.192 3.584 3.2 6.389 6.738 6.389a3.152 3.152 0 003.157-3.152V16.83a3.15 3.15 0 00-2.887-3.14v-.59C7.019 7.045 11.945 2.119 18 2.119c6.07 0 10.982 4.911 10.982 10.982v.59a3.15 3.15 0 00-2.888 3.14v7.218a3.15 3.15 0 002.888 3.14c0 2.866-2.244 4.859-4.761 4.859h-2.305a2.898 2.898 0 00-2.693-1.835h-2.447a2.898 2.898 0 00-2.894 2.894A2.897 2.897 0 0016.777 36h2.447c1.222 0 2.27-.762 2.693-1.835h2.304a6.887 6.887 0 006.88-6.88v-.347c2.701-.779 4.733-3.209 4.89-6.127a6.764 6.764 0 00-4.89-6.876zM7.79 16.831v7.218c0 .535-.411 1.047-1.122 1.033-2.417-.047-4.412-1.973-4.542-4.384a4.64 4.64 0 014.636-4.9h.018c.557.002 1.01.465 1.01 1.033zm11.435 17.052h-2.447a.777.777 0 010-1.553h2.447a.777.777 0 010 1.553zm14.652-13.185a4.654 4.654 0 01-4.542 4.384c-.697.014-1.121-.487-1.121-1.033V16.83c0-.568.453-1.031 1.005-1.034h.022a4.64 4.64 0 014.636 4.901z" fill="#2B71FD"/><path d="M31.1 13.936v-.835C31.1 5.86 25.242 0 18 0 10.777 0 4.901 5.876 4.901 13.1v.835a6.763 6.763 0 00-4.89 6.876c.192 3.584 3.2 6.389 6.738 6.389a3.152 3.152 0 003.157-3.152V16.83a3.15 3.15 0 00-2.887-3.14v-.59C7.019 7.045 11.945 2.119 18 2.119c6.07 0 10.982 4.911 10.982 10.982v.59a3.15 3.15 0 00-2.888 3.14v7.218a3.15 3.15 0 002.888 3.14c0 2.866-2.244 4.859-4.761 4.859h-2.305a2.898 2.898 0 00-2.693-1.835h-2.447a2.898 2.898 0 00-2.894 2.894A2.897 2.897 0 0016.777 36h2.447c1.222 0 2.27-.762 2.693-1.835h2.304a6.887 6.887 0 006.88-6.88v-.347c2.701-.779 4.733-3.209 4.89-6.127a6.764 6.764 0 00-4.89-6.876zM7.79 16.831v7.218c0 .535-.411 1.047-1.122 1.033-2.417-.047-4.412-1.973-4.542-4.384a4.64 4.64 0 014.636-4.9h.018c.557.002 1.01.465 1.01 1.033zm11.435 17.052h-2.447a.777.777 0 010-1.553h2.447a.777.777 0 010 1.553zm14.652-13.185a4.654 4.654 0 01-4.542 4.384c-.697.014-1.121-.487-1.121-1.033V16.83c0-.568.453-1.031 1.005-1.034h.022a4.64 4.64 0 014.636 4.901z" fill="#0A6FE7"/><path d="M18.749 26.29l4.889-4.889a3.895 3.895 0 000-5.51c-1.401-1.402-3.829-1.683-5.638.126-1.784-1.784-4.216-1.55-5.638-.127a3.895 3.895 0 000 5.511l4.89 4.89a1.059 1.059 0 001.497 0zm-4.89-8.903a1.782 1.782 0 012.517 0l.875.876a1.059 1.059 0 001.498 0l.875-.876a1.778 1.778 0 112.517 2.517L18 24.044l-4.14-4.14a1.779 1.779 0 010-2.517z" fill="#22A2EA"/><path d="M18.749 26.29l4.889-4.889a3.895 3.895 0 000-5.51c-1.401-1.402-3.829-1.683-5.638.126-1.784-1.784-4.216-1.55-5.638-.127a3.895 3.895 0 000 5.511l4.89 4.89a1.059 1.059 0 001.497 0zm-4.89-8.903a1.782 1.782 0 012.517 0l.875.876a1.059 1.059 0 001.498 0l.875-.876a1.778 1.778 0 112.517 2.517L18 24.044l-4.14-4.14a1.779 1.779 0 010-2.517z" fill="#2B71FD"/><path d="M18.749 26.29l4.889-4.889a3.895 3.895 0 000-5.51c-1.401-1.402-3.829-1.683-5.638.126-1.784-1.784-4.216-1.55-5.638-.127a3.895 3.895 0 000 5.511l4.89 4.89a1.059 1.059 0 001.497 0zm-4.89-8.903a1.782 1.782 0 012.517 0l.875.876a1.059 1.059 0 001.498 0l.875-.876a1.778 1.778 0 112.517 2.517L18 24.044l-4.14-4.14a1.779 1.779 0 010-2.517z" fill="#0A6FE7"/></g><defs><clipPath id="clip0"><path fill="#fff" d="M0 0h36v36H0z"/></clipPath></defs></svg>