<svg width="40" height="40" fill="none" xmlns="http://www.w3.org/2000/svg"><path d="M35.53 29.335c-.637-1.103-1.576-1.82-2.79-2.132a4.74 4.74 0 00-.874-.14 14.08 14.08 0 00-.034-2.853c2.16-.296 3.826-2.09 3.826-4.255 0-2.37-1.999-4.297-4.455-4.297-.241 0-.479.02-.712.055a10.255 10.255 0 00.435-6.585c1.772-.748 2.951-2.445 2.951-4.363C33.877 2.138 31.66 0 28.934 0c-1.662 0-3.2.81-4.108 2.113a11.509 11.509 0 00-4.64-.975c-1.604 0-3.193.336-4.64.975C14.637.81 13.099 0 11.437 0 8.711 0 6.493 2.138 6.493 4.765c0 1.919 1.18 3.615 2.952 4.363a10.26 10.26 0 00.435 6.585 4.671 4.671 0 00-.712-.055c-2.456 0-4.455 1.928-4.455 4.297 0 2.164 1.666 3.96 3.826 4.255a14.046 14.046 0 00-.03 2.888l-.091-.001c-.383 0-.772.05-1.157.148-1.215.312-2.154 1.03-2.79 2.132-1.101 1.908-1.044 4.728-.498 6.677C4.623 38.377 6.82 40 9.317 40c.105 0 .21-.003.314-.01h.034l.025-.002c2.046-.112 3.848-1.32 4.7-3.063a10.943 10.943 0 005.795 1.665c1.958 0 3.865-.527 5.57-1.53.027.051.054.103.083.154.737 1.277 1.95 2.187 3.416 2.563.468.12.948.181 1.428.181 2.497 0 4.694-1.623 5.345-3.946.546-1.949.603-4.77-.498-6.677zM8.055 4.765c0-1.766 1.517-3.202 3.381-3.202 1.334 0 2.547.746 3.09 1.9a.782.782 0 001.07.36 9.9 9.9 0 014.59-1.123 9.9 9.9 0 014.588 1.121.781.781 0 001.07-.358c.544-1.155 1.757-1.901 3.09-1.901 1.865 0 3.382 1.436 3.382 3.202 0 1.25-.76 2.36-1.912 2.885a10.53 10.53 0 00-.64-1.23.782.782 0 00-1.335.812c.319.524.583 1.082.786 1.657l.016.041c.319.918.48 1.877.48 2.854 0 4.757-3.855 8.672-8.743 9.052v-5.81c1.131-.388 1.93-1.563 1.93-2.6 0-.57-.264-1.893-2.712-1.893-2.447 0-2.711 1.324-2.711 1.893 0 1.037.799 2.212 1.93 2.6v5.81c-4.888-.38-8.744-4.295-8.744-9.052 0-.991.166-1.965.494-2.896a.781.781 0 00-.553-1.02c-1.498-.36-2.545-1.637-2.545-3.103zm12.13 22.116a.781.781 0 00-.782.782v2.368a5.478 5.478 0 01-4.688-5.413c0-1.114.341-2.197.968-3.106 1.377.59 2.9.918 4.502.918a11.42 11.42 0 004.501-.918c.627.91.969 1.992.969 3.106a5.478 5.478 0 01-4.689 5.413v-2.368a.782.782 0 00-.781-.782zm-1.15-14.455c0-.076 0-.108.13-.172.12-.059.411-.158 1.02-.158.608 0 .9.1 1.02.158.128.064.128.096.128.172 0 .44-.537 1.169-1.148 1.169-.612 0-1.15-.729-1.15-1.17zm-6.228 24.049c-.525.91-1.395 1.56-2.45 1.83a4.209 4.209 0 01-.777.124h-.002a4.134 4.134 0 01-.261.008c-1.799 0-3.377-1.153-3.84-2.805-.442-1.58-.523-3.968.347-5.474.424-.735 1.02-1.193 1.825-1.399a2.908 2.908 0 011.537.005l.035.01c2.013.575 3.458 3.197 3.941 4.923a3.583 3.583 0 01-.355 2.778zm12.524-3.242a5.128 5.128 0 00-.107 2.32 9.417 9.417 0 01-5.04 1.474c-1.91 0-3.758-.583-5.368-1.69.09-.681.042-1.38-.149-2.062-.569-2.031-2.17-4.873-4.55-5.84a12.48 12.48 0 01.09-3.834.781.781 0 00-.824-.919 3.052 3.052 0 01-.216.008c-1.594 0-2.892-1.227-2.892-2.735 0-1.508 1.298-2.734 2.892-2.734.763 0 1.48.278 2.025.783a11.009 11.009 0 003.091 2.788 7.038 7.038 0 00-1.131 3.826 7.04 7.04 0 007.033 7.033 7.04 7.04 0 007.033-7.033 7.037 7.037 0 00-1.132-3.825 11.005 11.005 0 003.092-2.79 2.959 2.959 0 012.024-.782c1.595 0 2.892 1.226 2.892 2.734s-1.297 2.735-2.892 2.735c-.072 0-.144-.003-.216-.008a.781.781 0 00-.824.919 12.422 12.422 0 01.113 3.651c-2.597.797-4.344 3.84-4.944 5.981zm9.19 2.357c-.462 1.652-2.04 2.805-3.84 2.805-.348 0-.698-.044-1.04-.132-1.054-.27-1.925-.92-2.45-1.83a3.584 3.584 0 01-.355-2.778c.51-1.817 2.084-4.627 4.266-4.996l.025-.005c.149-.024.3-.036.455-.036.251 0 .51.033.768.1.804.206 1.4.663 1.825 1.398.869 1.506.789 3.894.346 5.474z" fill="#22A2EA"/><path d="M35.53 29.335c-.637-1.103-1.576-1.82-2.79-2.132a4.74 4.74 0 00-.874-.14 14.08 14.08 0 00-.034-2.853c2.16-.296 3.826-2.09 3.826-4.255 0-2.37-1.999-4.297-4.455-4.297-.241 0-.479.02-.712.055a10.255 10.255 0 00.435-6.585c1.772-.748 2.951-2.445 2.951-4.363C33.877 2.138 31.66 0 28.934 0c-1.662 0-3.2.81-4.108 2.113a11.509 11.509 0 00-4.64-.975c-1.604 0-3.193.336-4.64.975C14.637.81 13.099 0 11.437 0 8.711 0 6.493 2.138 6.493 4.765c0 1.919 1.18 3.615 2.952 4.363a10.26 10.26 0 00.435 6.585 4.671 4.671 0 00-.712-.055c-2.456 0-4.455 1.928-4.455 4.297 0 2.164 1.666 3.96 3.826 4.255a14.046 14.046 0 00-.03 2.888l-.091-.001c-.383 0-.772.05-1.157.148-1.215.312-2.154 1.03-2.79 2.132-1.101 1.908-1.044 4.728-.498 6.677C4.623 38.377 6.82 40 9.317 40c.105 0 .21-.003.314-.01h.034l.025-.002c2.046-.112 3.848-1.32 4.7-3.063a10.943 10.943 0 005.795 1.665c1.958 0 3.865-.527 5.57-1.53.027.051.054.103.083.154.737 1.277 1.95 2.187 3.416 2.563.468.12.948.181 1.428.181 2.497 0 4.694-1.623 5.345-3.946.546-1.949.603-4.77-.498-6.677zM8.055 4.765c0-1.766 1.517-3.202 3.381-3.202 1.334 0 2.547.746 3.09 1.9a.782.782 0 001.07.36 9.9 9.9 0 014.59-1.123 9.9 9.9 0 014.588 1.121.781.781 0 001.07-.358c.544-1.155 1.757-1.901 3.09-1.901 1.865 0 3.382 1.436 3.382 3.202 0 1.25-.76 2.36-1.912 2.885a10.53 10.53 0 00-.64-1.23.782.782 0 00-1.335.812c.319.524.583 1.082.786 1.657l.016.041c.319.918.48 1.877.48 2.854 0 4.757-3.855 8.672-8.743 9.052v-5.81c1.131-.388 1.93-1.563 1.93-2.6 0-.57-.264-1.893-2.712-1.893-2.447 0-2.711 1.324-2.711 1.893 0 1.037.799 2.212 1.93 2.6v5.81c-4.888-.38-8.744-4.295-8.744-9.052 0-.991.166-1.965.494-2.896a.781.781 0 00-.553-1.02c-1.498-.36-2.545-1.637-2.545-3.103zm12.13 22.116a.781.781 0 00-.782.782v2.368a5.478 5.478 0 01-4.688-5.413c0-1.114.341-2.197.968-3.106 1.377.59 2.9.918 4.502.918a11.42 11.42 0 004.501-.918c.627.91.969 1.992.969 3.106a5.478 5.478 0 01-4.689 5.413v-2.368a.782.782 0 00-.781-.782zm-1.15-14.455c0-.076 0-.108.13-.172.12-.059.411-.158 1.02-.158.608 0 .9.1 1.02.158.128.064.128.096.128.172 0 .44-.537 1.169-1.148 1.169-.612 0-1.15-.729-1.15-1.17zm-6.228 24.049c-.525.91-1.395 1.56-2.45 1.83a4.209 4.209 0 01-.777.124h-.002a4.134 4.134 0 01-.261.008c-1.799 0-3.377-1.153-3.84-2.805-.442-1.58-.523-3.968.347-5.474.424-.735 1.02-1.193 1.825-1.399a2.908 2.908 0 011.537.005l.035.01c2.013.575 3.458 3.197 3.941 4.923a3.583 3.583 0 01-.355 2.778zm12.524-3.242a5.128 5.128 0 00-.107 2.32 9.417 9.417 0 01-5.04 1.474c-1.91 0-3.758-.583-5.368-1.69.09-.681.042-1.38-.149-2.062-.569-2.031-2.17-4.873-4.55-5.84a12.48 12.48 0 01.09-3.834.781.781 0 00-.824-.919 3.052 3.052 0 01-.216.008c-1.594 0-2.892-1.227-2.892-2.735 0-1.508 1.298-2.734 2.892-2.734.763 0 1.48.278 2.025.783a11.009 11.009 0 003.091 2.788 7.038 7.038 0 00-1.131 3.826 7.04 7.04 0 007.033 7.033 7.04 7.04 0 007.033-7.033 7.037 7.037 0 00-1.132-3.825 11.005 11.005 0 003.092-2.79 2.959 2.959 0 012.024-.782c1.595 0 2.892 1.226 2.892 2.734s-1.297 2.735-2.892 2.735c-.072 0-.144-.003-.216-.008a.781.781 0 00-.824.919 12.422 12.422 0 01.113 3.651c-2.597.797-4.344 3.84-4.944 5.981zm9.19 2.357c-.462 1.652-2.04 2.805-3.84 2.805-.348 0-.698-.044-1.04-.132-1.054-.27-1.925-.92-2.45-1.83a3.584 3.584 0 01-.355-2.778c.51-1.817 2.084-4.627 4.266-4.996l.025-.005c.149-.024.3-.036.455-.036.251 0 .51.033.768.1.804.206 1.4.663 1.825 1.398.869 1.506.789 3.894.346 5.474z" fill="#2B71FD"/><path d="M35.53 29.335c-.637-1.103-1.576-1.82-2.79-2.132a4.74 4.74 0 00-.874-.14 14.08 14.08 0 00-.034-2.853c2.16-.296 3.826-2.09 3.826-4.255 0-2.37-1.999-4.297-4.455-4.297-.241 0-.479.02-.712.055a10.255 10.255 0 00.435-6.585c1.772-.748 2.951-2.445 2.951-4.363C33.877 2.138 31.66 0 28.934 0c-1.662 0-3.2.81-4.108 2.113a11.509 11.509 0 00-4.64-.975c-1.604 0-3.193.336-4.64.975C14.637.81 13.099 0 11.437 0 8.711 0 6.493 2.138 6.493 4.765c0 1.919 1.18 3.615 2.952 4.363a10.26 10.26 0 00.435 6.585 4.671 4.671 0 00-.712-.055c-2.456 0-4.455 1.928-4.455 4.297 0 2.164 1.666 3.96 3.826 4.255a14.046 14.046 0 00-.03 2.888l-.091-.001c-.383 0-.772.05-1.157.148-1.215.312-2.154 1.03-2.79 2.132-1.101 1.908-1.044 4.728-.498 6.677C4.623 38.377 6.82 40 9.317 40c.105 0 .21-.003.314-.01h.034l.025-.002c2.046-.112 3.848-1.32 4.7-3.063a10.943 10.943 0 005.795 1.665c1.958 0 3.865-.527 5.57-1.53.027.051.054.103.083.154.737 1.277 1.95 2.187 3.416 2.563.468.12.948.181 1.428.181 2.497 0 4.694-1.623 5.345-3.946.546-1.949.603-4.77-.498-6.677zM8.055 4.765c0-1.766 1.517-3.202 3.381-3.202 1.334 0 2.547.746 3.09 1.9a.782.782 0 001.07.36 9.9 9.9 0 014.59-1.123 9.9 9.9 0 014.588 1.121.781.781 0 001.07-.358c.544-1.155 1.757-1.901 3.09-1.901 1.865 0 3.382 1.436 3.382 3.202 0 1.25-.76 2.36-1.912 2.885a10.53 10.53 0 00-.64-1.23.782.782 0 00-1.335.812c.319.524.583 1.082.786 1.657l.016.041c.319.918.48 1.877.48 2.854 0 4.757-3.855 8.672-8.743 9.052v-5.81c1.131-.388 1.93-1.563 1.93-2.6 0-.57-.264-1.893-2.712-1.893-2.447 0-2.711 1.324-2.711 1.893 0 1.037.799 2.212 1.93 2.6v5.81c-4.888-.38-8.744-4.295-8.744-9.052 0-.991.166-1.965.494-2.896a.781.781 0 00-.553-1.02c-1.498-.36-2.545-1.637-2.545-3.103zm12.13 22.116a.781.781 0 00-.782.782v2.368a5.478 5.478 0 01-4.688-5.413c0-1.114.341-2.197.968-3.106 1.377.59 2.9.918 4.502.918a11.42 11.42 0 004.501-.918c.627.91.969 1.992.969 3.106a5.478 5.478 0 01-4.689 5.413v-2.368a.782.782 0 00-.781-.782zm-1.15-14.455c0-.076 0-.108.13-.172.12-.059.411-.158 1.02-.158.608 0 .9.1 1.02.158.128.064.128.096.128.172 0 .44-.537 1.169-1.148 1.169-.612 0-1.15-.729-1.15-1.17zm-6.228 24.049c-.525.91-1.395 1.56-2.45 1.83a4.209 4.209 0 01-.777.124h-.002a4.134 4.134 0 01-.261.008c-1.799 0-3.377-1.153-3.84-2.805-.442-1.58-.523-3.968.347-5.474.424-.735 1.02-1.193 1.825-1.399a2.908 2.908 0 011.537.005l.035.01c2.013.575 3.458 3.197 3.941 4.923a3.583 3.583 0 01-.355 2.778zm12.524-3.242a5.128 5.128 0 00-.107 2.32 9.417 9.417 0 01-5.04 1.474c-1.91 0-3.758-.583-5.368-1.69.09-.681.042-1.38-.149-2.062-.569-2.031-2.17-4.873-4.55-5.84a12.48 12.48 0 01.09-3.834.781.781 0 00-.824-.919 3.052 3.052 0 01-.216.008c-1.594 0-2.892-1.227-2.892-2.735 0-1.508 1.298-2.734 2.892-2.734.763 0 1.48.278 2.025.783a11.009 11.009 0 003.091 2.788 7.038 7.038 0 00-1.131 3.826 7.04 7.04 0 007.033 7.033 7.04 7.04 0 007.033-7.033 7.037 7.037 0 00-1.132-3.825 11.005 11.005 0 003.092-2.79 2.959 2.959 0 012.024-.782c1.595 0 2.892 1.226 2.892 2.734s-1.297 2.735-2.892 2.735c-.072 0-.144-.003-.216-.008a.781.781 0 00-.824.919 12.422 12.422 0 01.113 3.651c-2.597.797-4.344 3.84-4.944 5.981zm9.19 2.357c-.462 1.652-2.04 2.805-3.84 2.805-.348 0-.698-.044-1.04-.132-1.054-.27-1.925-.92-2.45-1.83a3.584 3.584 0 01-.355-2.778c.51-1.817 2.084-4.627 4.266-4.996l.025-.005c.149-.024.3-.036.455-.036.251 0 .51.033.768.1.804.206 1.4.663 1.825 1.398.869 1.506.789 3.894.346 5.474z" fill="#0A6FE7"/><path d="M25.099 8.852c-.721 0-1.31.563-1.31 1.253s.589 1.253 1.31 1.253c.721 0 1.31-.563 1.31-1.253s-.589-1.253-1.31-1.253z" fill="#22A2EA"/><path d="M25.099 8.852c-.721 0-1.31.563-1.31 1.253s.589 1.253 1.31 1.253c.721 0 1.31-.563 1.31-1.253s-.589-1.253-1.31-1.253z" fill="#2B71FD"/><path d="M25.099 8.852c-.721 0-1.31.563-1.31 1.253s.589 1.253 1.31 1.253c.721 0 1.31-.563 1.31-1.253s-.589-1.253-1.31-1.253z" fill="#0A6FE7"/><path d="M15.272 8.852c-.72 0-1.31.563-1.31 1.253s.59 1.253 1.31 1.253c.722 0 1.31-.563 1.31-1.253s-.588-1.253-1.31-1.253z" fill="#22A2EA"/><path d="M15.272 8.852c-.72 0-1.31.563-1.31 1.253s.59 1.253 1.31 1.253c.722 0 1.31-.563 1.31-1.253s-.588-1.253-1.31-1.253z" fill="#2B71FD"/><path d="M15.272 8.852c-.72 0-1.31.563-1.31 1.253s.59 1.253 1.31 1.253c.722 0 1.31-.563 1.31-1.253s-.588-1.253-1.31-1.253z" fill="#0A6FE7"/><path d="M28.193 4.42l-.018-.018a.783.783 0 00-1.106.016.78.78 0 00.016 1.104l.005.005a.78.78 0 001.104-1.107z" fill="#22A2EA"/><path d="M28.193 4.42l-.018-.018a.783.783 0 00-1.106.016.78.78 0 00.016 1.104l.005.005a.78.78 0 001.104-1.107z" fill="#2B71FD"/><path d="M28.193 4.42l-.018-.018a.783.783 0 00-1.106.016.78.78 0 00.016 1.104l.005.005a.78.78 0 001.104-1.107z" fill="#0A6FE7"/><path d="M20.186 24.618a.781.781 0 00-.782.781v.018a.781.781 0 101.563 0V25.4a.781.781 0 00-.781-.781z" fill="#22A2EA"/><path d="M20.186 24.618a.781.781 0 00-.782.781v.018a.781.781 0 101.563 0V25.4a.781.781 0 00-.781-.781z" fill="#2B71FD"/><path d="M20.186 24.618a.781.781 0 00-.782.781v.018a.781.781 0 101.563 0V25.4a.781.781 0 00-.781-.781z" fill="#0A6FE7"/></svg>