<svg width="36" height="36" fill="none" xmlns="http://www.w3.org/2000/svg"><path d="M35.473 8.17L27.83.528a1.802 1.802 0 00-2.548 0L23.731 2.08a1.801 1.801 0 00-2.547 0L18 5.264a1.801 1.801 0 000 2.547l3.184 3.184-10.189 10.19L7.811 18a1.801 1.801 0 00-2.547 0L2.08 21.184a1.801 1.801 0 000 2.547L.527 25.284a1.801 1.801 0 000 2.547l7.642 7.641a1.801 1.801 0 002.547 0l1.552-1.552a1.801 1.801 0 002.547 0L18 30.737a1.801 1.801 0 000-2.547l-3.184-3.184 10.189-10.19L28.189 18a1.801 1.801 0 002.547 0l3.184-3.184a1.801 1.801 0 000-2.547l1.553-1.552a1.801 1.801 0 000-2.547zM9.443 34.2L1.8 26.557l1.552-1.552 7.642 7.641L9.443 34.2zm7.283-4.737l-3.184 3.184-10.189-10.19 3.185-3.183 10.188 10.189zm-3.183-5.731l-1.274-1.274 10.189-10.19 1.273 1.275-10.188 10.189zm15.92-7.005L19.272 6.538l3.185-3.184 10.189 10.19-3.185 3.183zm3.184-5.732l-7.642-7.641 1.552-1.552L34.2 9.443l-1.552 1.553z" fill="#22A2EA"/><path d="M35.473 8.17L27.83.528a1.802 1.802 0 00-2.548 0L23.731 2.08a1.801 1.801 0 00-2.547 0L18 5.264a1.801 1.801 0 000 2.547l3.184 3.184-10.189 10.19L7.811 18a1.801 1.801 0 00-2.547 0L2.08 21.184a1.801 1.801 0 000 2.547L.527 25.284a1.801 1.801 0 000 2.547l7.642 7.641a1.801 1.801 0 002.547 0l1.552-1.552a1.801 1.801 0 002.547 0L18 30.737a1.801 1.801 0 000-2.547l-3.184-3.184 10.189-10.19L28.189 18a1.801 1.801 0 002.547 0l3.184-3.184a1.801 1.801 0 000-2.547l1.553-1.552a1.801 1.801 0 000-2.547zM9.443 34.2L1.8 26.557l1.552-1.552 7.642 7.641L9.443 34.2zm7.283-4.737l-3.184 3.184-10.189-10.19 3.185-3.183 10.188 10.189zm-3.183-5.731l-1.274-1.274 10.189-10.19 1.273 1.275-10.188 10.189zm15.92-7.005L19.272 6.538l3.185-3.184 10.189 10.19-3.185 3.183zm3.184-5.732l-7.642-7.641 1.552-1.552L34.2 9.443l-1.552 1.553z" fill="#2B71FD"/><path d="M35.473 8.17L27.83.528a1.802 1.802 0 00-2.548 0L23.731 2.08a1.801 1.801 0 00-2.547 0L18 5.264a1.801 1.801 0 000 2.547l3.184 3.184-10.189 10.19L7.811 18a1.801 1.801 0 00-2.547 0L2.08 21.184a1.801 1.801 0 000 2.547L.527 25.284a1.801 1.801 0 000 2.547l7.642 7.641a1.801 1.801 0 002.547 0l1.552-1.552a1.801 1.801 0 002.547 0L18 30.737a1.801 1.801 0 000-2.547l-3.184-3.184 10.189-10.19L28.189 18a1.801 1.801 0 002.547 0l3.184-3.184a1.801 1.801 0 000-2.547l1.553-1.552a1.801 1.801 0 000-2.547zM9.443 34.2L1.8 26.557l1.552-1.552 7.642 7.641L9.443 34.2zm7.283-4.737l-3.184 3.184-10.189-10.19 3.185-3.183 10.188 10.189zm-3.183-5.731l-1.274-1.274 10.189-10.19 1.273 1.275-10.188 10.189zm15.92-7.005L19.272 6.538l3.185-3.184 10.189 10.19-3.185 3.183zm3.184-5.732l-7.642-7.641 1.552-1.552L34.2 9.443l-1.552 1.553z" fill="#0A6FE7"/></svg>