<svg width="40" height="40" fill="none" xmlns="http://www.w3.org/2000/svg"><path d="M39.219 20.796H34.41a4.614 4.614 0 00-2.786-1.854l-3.435-.751a5.271 5.271 0 002.332-4.374v-2.989a5.278 5.278 0 00-5.273-5.272 5.278 5.278 0 00-5.272 5.272v2.989a5.27 5.27 0 002.326 4.37l-3.432.753a4.67 4.67 0 00-.433.118v-6.466a.781.781 0 00-.78-.78h-5.313a.781.781 0 000 1.562h4.531V24.31h-5.313v-3.906a2.346 2.346 0 00-2.343-2.344 2.346 2.346 0 00-2.344 2.344v3.906H1.562V13.374h4.532a.781.781 0 000-1.563H.78a.781.781 0 00-.781.781v12.5c0 .432.35.782.781.782h6.094v1.484h-.078a2.425 2.425 0 00-2.422 2.422v.39H.781a.781.781 0 00-.781.782v3.125c0 .431.35.781.781.781H39.22c.431 0 .781-.35.781-.781v-12.5a.781.781 0 00-.781-.781zm-4.752 9.375H30v-1.563h8.438v1.563h-3.97zm3.97-3.125H30v-1.563h8.438v1.563zm0-3.125H30v-1.563h8.438v1.563zM21.538 10.828a3.714 3.714 0 013.71-3.71 3.715 3.715 0 013.699 3.42L27.13 9.47a.781.781 0 00-.995.171 4.143 4.143 0 01-3.183 1.486h-1.415v-.299zm0 1.863h1.415a5.7 5.7 0 003.922-1.558l2.083 1.223v1.46a3.714 3.714 0 01-3.71 3.71 3.714 3.714 0 01-3.71-3.71V12.69zm4.934 6.253l-1.235 3.305-1.238-3.31a5.264 5.264 0 002.473.005zm-8.816 6.93c.432 0 .782-.35.782-.781v-4.346c.24-.127.498-.221.767-.28l3.417-.75 1.883 5.036a.781.781 0 001.463 0l1.884-5.037 3.438.752c.302.066.588.178.852.328h-2.923a.781.781 0 00-.782.78v8.594H16.812v-4.296h.845zm-2.408 0v4.297h-1.185v-.391a2.425 2.425 0 00-2.422-2.422h-.079v-1.484h3.686zm-6.81-5.469a.782.782 0 011.562 0v6.953H8.437v-6.953zm-2.5 9.375a.86.86 0 01.859-.86h4.844a.86.86 0 01.859.86v.39H5.937v-.39zm32.5 3.516H1.562v-1.563h36.876v1.563z" fill="#22A2EA"/><path d="M39.219 20.796H34.41a4.614 4.614 0 00-2.786-1.854l-3.435-.751a5.271 5.271 0 002.332-4.374v-2.989a5.278 5.278 0 00-5.273-5.272 5.278 5.278 0 00-5.272 5.272v2.989a5.27 5.27 0 002.326 4.37l-3.432.753a4.67 4.67 0 00-.433.118v-6.466a.781.781 0 00-.78-.78h-5.313a.781.781 0 000 1.562h4.531V24.31h-5.313v-3.906a2.346 2.346 0 00-2.343-2.344 2.346 2.346 0 00-2.344 2.344v3.906H1.562V13.374h4.532a.781.781 0 000-1.563H.78a.781.781 0 00-.781.781v12.5c0 .432.35.782.781.782h6.094v1.484h-.078a2.425 2.425 0 00-2.422 2.422v.39H.781a.781.781 0 00-.781.782v3.125c0 .431.35.781.781.781H39.22c.431 0 .781-.35.781-.781v-12.5a.781.781 0 00-.781-.781zm-4.752 9.375H30v-1.563h8.438v1.563h-3.97zm3.97-3.125H30v-1.563h8.438v1.563zm0-3.125H30v-1.563h8.438v1.563zM21.538 10.828a3.714 3.714 0 013.71-3.71 3.715 3.715 0 013.699 3.42L27.13 9.47a.781.781 0 00-.995.171 4.143 4.143 0 01-3.183 1.486h-1.415v-.299zm0 1.863h1.415a5.7 5.7 0 003.922-1.558l2.083 1.223v1.46a3.714 3.714 0 01-3.71 3.71 3.714 3.714 0 01-3.71-3.71V12.69zm4.934 6.253l-1.235 3.305-1.238-3.31a5.264 5.264 0 002.473.005zm-8.816 6.93c.432 0 .782-.35.782-.781v-4.346c.24-.127.498-.221.767-.28l3.417-.75 1.883 5.036a.781.781 0 001.463 0l1.884-5.037 3.438.752c.302.066.588.178.852.328h-2.923a.781.781 0 00-.782.78v8.594H16.812v-4.296h.845zm-2.408 0v4.297h-1.185v-.391a2.425 2.425 0 00-2.422-2.422h-.079v-1.484h3.686zm-6.81-5.469a.782.782 0 011.562 0v6.953H8.437v-6.953zm-2.5 9.375a.86.86 0 01.859-.86h4.844a.86.86 0 01.859.86v.39H5.937v-.39zm32.5 3.516H1.562v-1.563h36.876v1.563z" fill="#2B71FD"/><path d="M39.219 20.796H34.41a4.614 4.614 0 00-2.786-1.854l-3.435-.751a5.271 5.271 0 002.332-4.374v-2.989a5.278 5.278 0 00-5.273-5.272 5.278 5.278 0 00-5.272 5.272v2.989a5.27 5.27 0 002.326 4.37l-3.432.753a4.67 4.67 0 00-.433.118v-6.466a.781.781 0 00-.78-.78h-5.313a.781.781 0 000 1.562h4.531V24.31h-5.313v-3.906a2.346 2.346 0 00-2.343-2.344 2.346 2.346 0 00-2.344 2.344v3.906H1.562V13.374h4.532a.781.781 0 000-1.563H.78a.781.781 0 00-.781.781v12.5c0 .432.35.782.781.782h6.094v1.484h-.078a2.425 2.425 0 00-2.422 2.422v.39H.781a.781.781 0 00-.781.782v3.125c0 .431.35.781.781.781H39.22c.431 0 .781-.35.781-.781v-12.5a.781.781 0 00-.781-.781zm-4.752 9.375H30v-1.563h8.438v1.563h-3.97zm3.97-3.125H30v-1.563h8.438v1.563zm0-3.125H30v-1.563h8.438v1.563zM21.538 10.828a3.714 3.714 0 013.71-3.71 3.715 3.715 0 013.699 3.42L27.13 9.47a.781.781 0 00-.995.171 4.143 4.143 0 01-3.183 1.486h-1.415v-.299zm0 1.863h1.415a5.7 5.7 0 003.922-1.558l2.083 1.223v1.46a3.714 3.714 0 01-3.71 3.71 3.714 3.714 0 01-3.71-3.71V12.69zm4.934 6.253l-1.235 3.305-1.238-3.31a5.264 5.264 0 002.473.005zm-8.816 6.93c.432 0 .782-.35.782-.781v-4.346c.24-.127.498-.221.767-.28l3.417-.75 1.883 5.036a.781.781 0 001.463 0l1.884-5.037 3.438.752c.302.066.588.178.852.328h-2.923a.781.781 0 00-.782.78v8.594H16.812v-4.296h.845zm-2.408 0v4.297h-1.185v-.391a2.425 2.425 0 00-2.422-2.422h-.079v-1.484h3.686zm-6.81-5.469a.782.782 0 011.562 0v6.953H8.437v-6.953zm-2.5 9.375a.86.86 0 01.859-.86h4.844a.86.86 0 01.859.86v.39H5.937v-.39zm32.5 3.516H1.562v-1.563h36.876v1.563z" fill="#0A6FE7"/><path d="M8.666 12.04a.787.787 0 00-.229.553.787.787 0 00.781.781.787.787 0 00.553-.229.786.786 0 00.229-.552.787.787 0 00-.229-.552.787.787 0 00-.552-.229.787.787 0 00-.553.229z" fill="#22A2EA"/><path d="M8.666 12.04a.787.787 0 00-.229.553.787.787 0 00.781.781.787.787 0 00.553-.229.786.786 0 00.229-.552.787.787 0 00-.229-.552.787.787 0 00-.552-.229.787.787 0 00-.553.229z" fill="#2B71FD"/><path d="M8.666 12.04a.787.787 0 00-.229.553.787.787 0 00.781.781.787.787 0 00.553-.229.786.786 0 00.229-.552.787.787 0 00-.229-.552.787.787 0 00-.552-.229.787.787 0 00-.553.229z" fill="#0A6FE7"/></svg>