<svg width="31" height="31" fill="none" xmlns="http://www.w3.org/2000/svg"><path d="M4.541 31h21.918A4.546 4.546 0 0031 26.459V4.541A4.546 4.546 0 0026.459 0H4.541A4.546 4.546 0 000 4.541v21.918A4.546 4.546 0 004.541 31zM1.816 4.541a2.728 2.728 0 012.725-2.725h21.918a2.728 2.728 0 012.725 2.725v21.918a2.728 2.728 0 01-2.725 2.725H4.541a2.728 2.728 0 01-2.725-2.725V4.541z" fill="#fff"/><path d="M15.5 23.674c4.507 0 8.174-3.667 8.174-8.174S20.007 7.326 15.5 7.326 7.326 10.993 7.326 15.5s3.667 8.174 8.174 8.174zm0-14.531a6.364 6.364 0 016.357 6.357 6.364 6.364 0 01-6.357 6.357A6.364 6.364 0 019.143 15.5 6.364 6.364 0 0115.5 9.143zm9.082 0a2.728 2.728 0 002.725-2.725 2.728 2.728 0 00-2.725-2.725 2.728 2.728 0 00-2.725 2.725 2.728 2.728 0 002.725 2.725zm0-3.633a.91.91 0 010 1.816.91.91 0 010-1.816z" fill="#fff"/></svg>