<svg width="52" height="32" fill="none" xmlns="http://www.w3.org/2000/svg"><path d="M32 16c0 8.838-7.162 16-16 16-8.838 0-16-7.163-16-16S7.164 0 16 0s16 7.163 16 16z" fill="#E2574C"/><path d="M34.76 0c-3.588 0-6.89 1.195-9.558 3.19l.012.002c.525.507 1.104.864 1.55 1.448l-3.327.053a16.368 16.368 0 00-1.445 1.694h5.868c.447.536.86 1.002 1.234 1.594h-8.166c-.3.515-.576 1.045-.817 1.595h9.913c.259.549.49.963.688 1.544H19.523c-.177.552-.33 1.117-.444 1.693H31.18c.119.553.21 1.065.273 1.587H18.838a16.01 16.01 0 00-.08 1.6h12.785c0 .567-.04 1.091-.098 1.6H18.839c.054.543.134 1.075.24 1.6H31.16c-.125.519-.269 1.04-.45 1.581H19.488c.17.547.376 1.078.601 1.597h9.936c-.275.582-.587 1.048-.931 1.593H20.9c.324.56.68 1.095 1.068 1.607l5.894.088c-.503.603-1.147.966-1.735 1.494.032.026-.939-.003-2.85-.034A15.927 15.927 0 0034.758 32c8.837 0 16-7.163 16-16s-7.162-16-16-16z" fill="#F4B459"/></svg>