<svg width="133" height="32" fill="none" xmlns="http://www.w3.org/2000/svg"><g clip-path="url(#clip0)" fill="#1A9F29"><path d="M34.789 14.793c.55.578 1.209.997 2.033 1.312.825.315 1.76.472 2.913.472.55 0 1.1-.052 1.539-.105.495-.052.88-.157 1.264-.315.385-.105.715-.262 1.044-.367.275-.157.55-.262.77-.367l-.385-.787-.66.315c-.22.105-.44.157-.714.262-.275.053-.55.158-.88.158-.329.052-.714.052-1.153.052-.825 0-1.54-.157-2.034-.472-.55-.315-.934-.735-1.264-1.207a6.08 6.08 0 01-.605-1.836 15.25 15.25 0 01-.164-2.308c0-.63.055-1.311.11-1.993.054-.682.22-1.26.494-1.784a3.676 3.676 0 011.1-1.312c.494-.314 1.153-.524 1.978-.524.77 0 1.429.21 1.978.577.55.367.88.997 1.045 1.784h.879v-2.57c-.275-.106-.55-.21-.88-.316-.33-.105-.659-.157-1.044-.21-.384-.052-.714-.052-1.099-.104-.33 0-.66-.053-.934-.053-1.21 0-2.198.157-3.078.472a5.673 5.673 0 00-2.088 1.364c-.55.577-.934 1.312-1.21 2.151-.274.84-.384 1.836-.384 2.885 0 .997.11 1.941.385 2.728.165.892.55 1.574 1.044 2.098zm53.749 1.364a4.842 4.842 0 001.814-.524c.55-.315.99-.735 1.264-1.312.33-.577.495-1.364.495-2.36 0-.735-.11-1.312-.33-1.837-.22-.524-.55-.891-1.044-1.259-.495-.314-1.1-.524-1.869-.682-.77-.157-1.703-.21-2.803-.21h-1.154V4.879c0-.314.055-.524.22-.63.165-.104.44-.104.88-.104h1.648c.495 0 .934 0 1.264.052.33.053.605.105.77.263.22.157.384.367.494.63.11.262.275.629.385 1.1h.714V3.306H81.174v.42c.055 0 .11.052.275.052.165.052.275.105.33.157.055.053.11.158.164.315 0 .157.055.315.055.525v10.019c0 .21 0 .42-.055.525 0 .157-.055.262-.165.315-.055.052-.164.157-.33.157-.164.052-.22.052-.274.052v.42h5.111c.825 0 1.539 0 2.253-.105zm-3.352-.944a.466.466 0 01-.165-.367c0-.158-.055-.367-.055-.63V8.76h1.154c1.044 0 1.814.263 2.254.787.44.525.659 1.364.659 2.518 0 .787-.055 1.364-.22 1.836-.165.473-.33.787-.604 1.05-.275.21-.55.367-.825.472-.33.052-.66.105-.989.105-.33-.053-.605-.053-.77-.105-.164-.053-.33-.105-.44-.21zm-11.101.629c-.055 0-.11-.052-.275-.052-.165-.052-.275-.105-.33-.157-.055-.053-.11-.158-.165-.315 0-.158-.055-.315-.055-.525v-3.62h1.374c.715 0 1.374-.052 2.034-.157a5.37 5.37 0 001.703-.577c.495-.315.88-.682 1.154-1.259.275-.524.44-1.259.44-2.15 0-.84-.165-1.522-.385-1.994-.275-.472-.66-.892-1.099-1.154-.44-.263-.99-.42-1.594-.472a20.836 20.836 0 00-1.868-.105h-5.387v.42c.056 0 .11.052.276.052.165.052.274.105.33.157.054.053.11.158.164.315 0 .157.055.315.055.525v9.967c0 .21 0 .42-.055.524 0 .158-.055.263-.165.315-.055.053-.164.158-.33.158-.164.052-.22.052-.274.052v.42h4.452v-.368zm-.77-11.068c0-.105 0-.21.055-.315 0-.105.055-.158.11-.21.055-.053.165-.105.33-.105s.33-.052.604-.052c.33 0 .66.052.99.104.33.105.549.263.824.473.22.21.385.524.55.891.11.368.164.84.164 1.364 0 1.102-.165 1.941-.494 2.518-.33.577-.935.892-1.759.892h-1.374v-5.56zm-5.496 8.498h-.88a9.3 9.3 0 01-.33 1.207c-.109.314-.219.524-.439.681-.165.158-.44.263-.77.263-.329.052-.769.052-1.373.052-.55 0-.99 0-1.264-.052-.33-.053-.55-.105-.715-.21-.165-.105-.274-.262-.274-.42-.055-.21-.055-.42-.055-.734V9.967h2.363c.22 0 .44.052.66.052.22 0 .439.053.659.105.22.053.385.105.55.21V8.656c-.165.104-.33.157-.55.21-.22.052-.44.104-.66.104-.22.053-.44.053-.66.053H61.72V4.72c0-.262.055-.472.11-.577.11-.105.274-.105.55-.105h1.483c.495 0 .934 0 1.264.053.33.052.605.104.77.262.22.157.384.367.494.63.11.262.275.629.385 1.101h.714v-2.78h-9.453v.42c.055 0 .11.052.275.052.165.052.275.105.33.157.055.053.11.158.165.315 0 .157.055.315.055.525v9.967c0 .21 0 .42-.055.524 0 .158-.055.263-.165.315-.055.053-.165.158-.33.158-.165.052-.22.052-.275.052v.42h9.783v-2.938zM52.87 16.157a4.842 4.842 0 001.814-.524 3.44 3.44 0 001.319-1.312c.33-.577.494-1.364.494-2.36 0-.735-.11-1.312-.33-1.837-.22-.524-.549-.891-1.044-1.259-.494-.314-1.099-.524-1.868-.682-.77-.157-1.704-.21-2.803-.21h-1.154V4.879c0-.314.055-.524.22-.63.165-.104.44-.104.879-.104h1.649c.494 0 .934 0 1.264.052.33.053.604.105.77.263.22.157.384.367.494.63.11.262.275.629.385 1.1h.714V3.306H45.56v.42c.056 0 .11.052.276.052.164.052.274.105.33.157.054.053.11.158.164.315 0 .157.055.315.055.525v9.965c0 .21 0 .367-.055.524 0 .158-.055.263-.165.315-.055.053-.165.158-.33.158-.164.052-.22.052-.274.052v.472h5.11c.825 0 1.485 0 2.2-.105zm-3.352-.944a.467.467 0 01-.165-.367c0-.158-.055-.367-.055-.63V8.76h1.154c1.044 0 1.814.263 2.253.787.44.525.66 1.364.66 2.518 0 .787-.055 1.364-.22 1.836-.165.473-.33.787-.605 1.05a3.31 3.31 0 01-.824.472c-.33.052-.66.105-.99.105-.329-.053-.549-.053-.769-.105-.165-.053-.33-.105-.44-.21zm83.372 4.721H33.25v1.26h99.64v-1.26zm-7.969-8.551c.275.368.495.682.769.997.22.315.495.63.715.944.22.315.44.63.714.945.275.367.495.681.715 1.049.22.315.385.682.549.996l4.617.053c-.495-.472-.934-.944-1.429-1.417-.44-.472-.824-.891-1.099-1.154a89.49 89.49 0 01-1.154-1.259c-.385-.42-.715-.787-1.044-1.154a17.21 17.21 0 01-.935-1.154c-.275-.367-.604-.84-.879-1.259l.22-.262c.329-.42.714-.84 1.154-1.364.44-.525.879-1.05 1.374-1.521.494-.525.934-.997 1.429-1.417.494-.42.879-.734 1.264-.996h-3.188a7.83 7.83 0 01-.494.944c-.22.367-.44.787-.77 1.206-.275.42-.604.892-.879 1.364-.33.472-.605.892-.934 1.312-.33.42-.605.84-.88 1.154-.275.367-.494.63-.659.892l.824 1.101z"/><path d="M124.536 15.842c-.055 0-.11-.052-.274-.052-.165-.052-.275-.105-.33-.157-.055-.053-.11-.158-.165-.315 0-.158-.055-.315-.055-.525V4.826c0-.21 0-.42.055-.525 0-.157.055-.262.165-.314.055-.053.165-.105.33-.158.164-.052.219-.052.274-.052v-.472h-4.451v.42c.055 0 .11.052.275.052.164.052.274.105.329.157.055.053.11.158.165.315 0 .157.055.315.055.525v9.967c0 .21 0 .42-.055.524 0 .158-.055.263-.165.315-.055.053-.165.158-.329.158-.165.052-.22.052-.275.052v.42h4.451v-.368zm-29.567-1.153c.165-.735.494-1.784.934-3.095h4.342l.604 1.678c.275.735.495 1.364.605 1.889.165.524.275.891.275 1.154h3.462c-.165-.263-.33-.63-.55-1.05a14.44 14.44 0 01-.769-1.835l-3.133-8.499c-.165-.367-.22-.682-.274-.944-.055-.262-.055-.472-.11-.63h-3.902v.42c.054 0 .11.053.274.053.165.052.275.104.33.157.055.052.11.157.165.315v.262c0 .315-.055.63-.165.84l-2.198 5.14c-.385.945-.77 1.784-1.044 2.413-.275.63-.55 1.207-.715 1.627-.22.42-.385.787-.55 1.049-.164.262-.274.472-.384.682h2.473c.055-.367.165-.892.33-1.626zM98.1 5.456l1.814 5.246h-3.737L98.1 5.456zm12.312 10.386h-.11c-.055 0-.11-.052-.275-.052-.165-.052-.275-.105-.329-.157-.055-.053-.11-.158-.165-.315 0-.158-.055-.315-.055-.525V9.81h5.276v4.93c0 .21 0 .42-.055.525 0 .158-.055.263-.165.315-.055.053-.165.158-.33.158-.165.052-.22.052-.275.052v.42h4.452v-.42c-.055 0-.11-.052-.275-.052-.165-.053-.275-.105-.33-.158-.055-.052-.109-.157-.164-.315 0-.157-.055-.314-.055-.524V4.722c0-.21 0-.42.055-.526 0-.157.055-.262.164-.314.055-.053.165-.105.33-.158.165-.052.22-.052.275-.052v-.367h-4.342v.42c.055 0 .11.052.275.052.165.052.275.105.33.157.055.053.11.158.165.315 0 .157.055.315.055.525v4.144h-5.276V4.774c0-.21 0-.42.055-.525 0-.157.055-.262.164-.315.055-.052.165-.105.33-.157.165-.053.22-.053.275-.053v-.42h-4.452v.42c.055 0 .11.053.275.053.165.052.275.105.33.157.055.053.11.158.165.315 0 .157.055.315.055.525v10.019c0 .21 0 .367-.055.525 0 .157-.055.262-.165.315-.055.052-.165.157-.33.157-.165.052-.22.052-.275.052v.42h4.452v-.42zM24.182 4.67l-.824-1.103-15.224 8.341L.769 7.87a6.162 6.162 0 00-.33 1.364l7.75 4.25L24.182 4.67z"/><path d="M8.134 15.056L.22 10.702c-.055.262-.055.576-.055.839 0 6.872 5.825 12.485 13.08 12.485 7.2 0 13.08-5.56 13.08-12.485 0-2.046-.494-3.987-1.429-5.666l-16.762 9.18z"/><path d="M22.313 2.518c-.385-.367-.77-.63-1.154-.944L8.134 8.761 1.868 5.35c-.22.367-.44.787-.659 1.207l6.87 3.777 14.234-7.817z"/><path d="M19.84.734C19.345.472 18.85.21 18.301 0L8.134 5.613 3.572 3.148c-.33.314-.604.682-.934 1.049l5.44 2.99L19.84.734zm69.193 29.954l1.044-5.141h1.704c.99 0 1.429.472 1.429 1.206 0 .682-.44 1.05-1.264 1.312.55.21.88.577.88 1.101 0 .945-.66 1.47-1.98 1.47h-1.813v.052zm.66-.472h1.264c.824 0 1.319-.42 1.319-1.05 0-.472-.44-.944-1.264-.944h-.99l-.33 1.994zm.494-2.413h1.1c.934 0 1.428-.42 1.428-1.05 0-.524-.33-.787-.989-.787h-1.1l-.439 1.837zm6.375 1.94c-.33.577-.714.997-1.483.997-.88 0-1.484-.682-1.484-1.627 0-1.154.769-2.15 1.813-2.15.77 0 1.154.42 1.374 1.049l-.494.105c-.165-.472-.44-.735-.88-.735-.714 0-1.319.735-1.319 1.784 0 .734.385 1.102 1.044 1.102.605 0 .825-.315 1.045-.682l.384.157zm1.155-.839v.262c0 .734.384 1.154.989 1.154.55 0 .88-.367 1.209-.84l.44.21c-.44.63-.88 1.05-1.704 1.05-.88 0-1.43-.63-1.43-1.574 0-1.26.77-2.203 1.87-2.203.879 0 1.374.524 1.374 1.468 0 .158-.055.315-.055.473h-2.693zm2.253-.42c.055-.105 0-.157 0-.21 0-.42-.275-.84-.88-.84-.714 0-1.044.42-1.264 1.102h2.144v-.052zm1.759-1.415h2.143l-.055.42h-1.649l-.659 3.2h-.495l.715-3.62zm1.703 3.2l1.594-3.2h.77l.439 3.2h.385l-.22 1.101h-.385l.055-.682h-2.583l-.22.682h-.384l.22-1.101h.329zm2.254 0l-.275-2.728h-.11l-1.319 2.728h1.704zm4.067-1.732c0-.157.055-.314.055-.42 0-.419-.33-.681-.825-.681-.33 0-.604.157-.824.42l-.33-.315c.33-.263.715-.525 1.264-.525.77 0 1.264.472 1.264 1.05 0 .104-.055.314-.055.576l-.275 1.207c-.11.42-.11.682-.11.892h-.494c-.055-.105-.055-.263-.055-.42-.33.262-.66.472-1.099.472-.605 0-1.099-.472-1.099-1.049 0-.734.714-1.207 2.033-1.207h.55zm-.11.368h-.385c-1.044 0-1.594.262-1.594.787 0 .367.275.629.66.629.384 0 .714-.21 1.099-.472l.22-.944zm4.671-1.418c.33-.314.66-.524 1.099-.524.825 0 1.264.524 1.264 1.521 0 1.311-.824 2.256-1.813 2.256-.495 0-.825-.21-1.099-.472l-.385 1.836h-.495l1.044-5.089h.44l-.055.472zm-.439 2.308c.219.315.494.525.989.525.714 0 1.374-.787 1.374-1.889 0-.681-.33-1.049-.88-1.049-.384 0-.769.158-1.044.63l-.439 1.783zm4.946-.785l-1.209 1.678h-.55l1.264-1.678c-.495-.158-.769-.525-.769-.945 0-.472.439-.996 1.319-.996h1.813l-.769 3.62h-.495l.33-1.68h-.934zm1.209-1.574h-1.209c-.55 0-.825.315-.825.577 0 .367.22.524.66.524h1.099l.275-1.101zm1.154 2.833l1.594-3.2h.769l.44 3.2h.384l-.219 1.101h-.385l.055-.682h-2.583l-.22.682h-.385l.22-1.101h.33zm2.198 0l-.275-2.728h-.11l-1.319 2.728h1.704zm1.429-1.103c0-1.26.825-2.203 1.814-2.203.824 0 1.319.63 1.319 1.573 0 1.207-.824 2.204-1.814 2.204-.769 0-1.319-.577-1.319-1.574zm.495.105c0 .682.385 1.049.879 1.049.66 0 1.319-.787 1.319-1.836 0-.682-.384-1.102-.879-1.102-.66 0-1.319.787-1.319 1.889zm7.034-1.783l-1.648 3.2h-.495l-.495-3.2-.659 3.2h-.495l.77-3.62h.824l.44 3.148 1.594-3.147H133l-.769 3.62h-.495l.604-3.2z"/></g><defs><clipPath id="clip0"><path fill="#fff" d="M0 0h133v32H0z"/></clipPath></defs></svg>