<svg width="90" height="29" fill="none" xmlns="http://www.w3.org/2000/svg"><path d="M83.921.505h-5.61c-1.742 0-3.038.494-3.803 2.301l-10.78 25.41h7.624s1.244-3.417 1.526-4.165c.834 0 8.242.012 9.297.012.217.968.885 4.153.885 4.153h6.736L83.921.506zm-8.954 17.873c.598-1.592 2.893-7.749 2.893-7.749-.04.076.592-1.603.967-2.647l.49 2.39 1.682 8.006h-6.032zm-10.731.766c-.053 5.758-5.013 9.474-12.644 9.474-3.255-.035-6.39-.701-8.09-1.477l1.022-6.205.935.443c2.385 1.034 3.93 1.452 6.837 1.452 2.086 0 4.319-.852 4.341-2.708.013-1.214-.935-2.08-3.764-3.44-2.757-1.327-6.405-3.55-6.359-7.533C46.554 3.76 51.61 0 58.784 0c2.813 0 5.067.602 6.505 1.164l-.983 6.01-.655-.321c-1.337-.56-3.059-1.1-5.434-1.061-2.842 0-4.16 1.232-4.16 2.384-.015 1.299 1.538 2.154 4.078 3.44 4.196 1.973 6.132 4.377 6.1 7.528zM.473.793L.566.237h11.256c1.519.06 2.742.564 3.164 2.253l2.448 12.252C15.029 8.334 9.232 3.002.473.793zm32.83-.292L21.869 28.175l-7.682.014L7.684 5.067C12.358 8.18 16.34 13.12 17.742 16.56l.758 2.855L25.611.507l7.692-.006zm2.935-.023h7.264L38.96 28.204H31.7L36.239.478z" fill="#fff"/></svg>