<svg width="39" height="39" fill="none" xmlns="http://www.w3.org/2000/svg"><path d="M5.713 34.353h27.574A5.72 5.72 0 0039 28.641V10.359a5.72 5.72 0 00-5.713-5.713H5.713A5.72 5.72 0 000 10.36v18.282a5.72 5.72 0 005.713 5.712zM2.285 10.36a3.432 3.432 0 013.428-3.427h27.574a3.432 3.432 0 013.428 3.427v18.282a3.432 3.432 0 01-3.428 3.427H5.713a3.432 3.432 0 01-3.428-3.427V10.359z" fill="#fff"/><path d="M13.787 11.845v15.532l13.75-7.893-13.75-7.639zm2.285 3.884l6.818 3.787-6.818 3.914v-7.701z" fill="#fff"/></svg>