<svg width="148" height="148" fill="none" xmlns="http://www.w3.org/2000/svg"><path d="M74.113 31.9c-20.948 0-38.062 17.114-38.062 38.061 0 10.953 4.792 21.495 12.87 28.614 6.024 6.024 5.477 18.894 5.34 19.031 0 .685.136 1.232.684 1.78.41.411 1.095.684 1.643.684H91.5c.685 0 1.232-.273 1.643-.684.41-.411.685-1.095.685-1.78 0-.137-.685-13.007 5.34-19.03l.41-.411c7.941-7.257 12.596-17.525 12.596-28.204 0-20.947-17.114-38.06-38.061-38.06zm21.905 63.116c-.137.137-.41.41-.41.547-5.34 5.751-6.298 15.197-6.435 19.715H58.915c-.136-4.518-1.095-14.375-6.845-20.262a33.368 33.368 0 01-11.5-25.192c0-18.483 14.923-33.406 33.406-33.406 18.483 0 33.406 14.923 33.406 33.406 0 9.72-4.108 18.894-11.364 25.192z" fill="#54565E"/><path d="M73.975 41.62c-1.232 0-2.327 1.096-2.327 2.328 0 1.232 1.095 2.328 2.328 2.328 13.828 0 24.917 11.226 24.917 24.917 0 1.232 1.096 2.328 2.328 2.328 1.232 0 2.327-1.096 2.327-2.328.137-16.292-13.143-29.572-29.573-29.572zm15.198 81.052H58.779c-3.15 0-5.75 2.601-5.75 5.75s2.6 5.75 5.75 5.75h30.257c3.286-.137 5.887-2.601 5.887-5.75s-2.601-5.75-5.75-5.75zm0 6.708H58.779c-.548 0-1.096-.411-1.096-1.095 0-.685.411-1.095 1.096-1.095h30.257c.547 0 1.095.41 1.095 1.095 0 .684-.41 1.095-.958 1.095zm-4.518 7.12H63.297c-3.15 0-5.75 2.601-5.75 5.75s2.6 5.75 5.75 5.75h21.358c3.149 0 5.75-2.601 5.75-5.75 0-3.286-2.601-5.75-5.75-5.75zm0 6.708H63.297c-.548 0-1.096-.411-1.096-1.095 0-.685.411-1.095 1.096-1.095h21.358c.547 0 1.095.41 1.095 1.095 0 .684-.548 1.095-1.095 1.095zM73.975 20.537c1.37 0 2.328-1.096 2.328-2.328V2.327C76.303 1.095 75.208 0 73.975 0c-1.232 0-2.327 1.095-2.327 2.327V18.21c0 1.232 1.095 2.328 2.328 2.328zm38.746-8.763c-1.095-.821-2.464-.41-3.149.548l-8.762 13.143c-.821 1.096-.548 2.602.548 3.286.41.274.821.41 1.232.41.821 0 1.506-.41 1.917-1.095l8.762-13.143c.821-.958.548-2.464-.548-3.149zm-66.538 16.84c.41 0 .821-.137 1.232-.41 1.095-.685 1.37-2.191.685-3.286l-8.489-13.28c-.684-1.096-2.19-1.37-3.286-.685-1.095.684-1.369 2.19-.684 3.286l8.488 13.28c.548.821 1.232 1.095 2.054 1.095zM29.617 43.127l-13.828-7.53c-1.095-.548-2.601-.137-3.15.958-.684 1.095-.273 2.601.96 3.15l13.827 7.53c.41.136.685.273 1.095.273.822 0 1.643-.41 2.054-1.232.548-1.096.137-2.602-.958-3.15zm105.831-6.572c-.547-1.095-2.053-1.506-3.149-.958l-13.964 7.53c-1.096.547-1.506 2.053-.959 3.149.411.821 1.232 1.232 2.054 1.232.411 0 .821-.137 1.095-.274l13.965-7.53c1.095-.548 1.506-2.054.958-3.149z" fill="#54565E"/></svg>