<svg width="72" height="72" fill="none" xmlns="http://www.w3.org/2000/svg"><g clip-path="url(#clip0)" fill="#D12CAE"><path d="M36.68 45.245c-2.064 0-3.562 2.563-3.562 6.095 0 3.532 1.498 6.095 3.562 6.095s3.562-2.563 3.562-6.095c0-3.532-1.498-6.095-3.562-6.095zm0 9.441c-.318-.32-.871-1.473-.871-3.346s.553-3.027.87-3.346c.319.32.871 1.473.871 3.346s-.552 3.027-.87 3.346z"/><path d="M68.997 23.072a9.121 9.121 0 00-2.402-6.18 9.132 9.132 0 00-4.566-2.706 5.468 5.468 0 00-3.164-4.809V9.3c0-4.434-3.606-8.04-8.04-8.04a8.059 8.059 0 00-3.745.926A5.523 5.523 0 0042.688 0c-1.767 0-3.407.86-4.43 2.24a8.035 8.035 0 00-8.284 1.17 9.239 9.239 0 00-5.626-1.89c-4.32 0-7.995 2.965-9.024 7.01a4.882 4.882 0 00-5.656 5.405 9.316 9.316 0 00-6.665 8.93c0 2.418.95 4.73 2.601 6.45a5.463 5.463 0 00-1.38 3.627c0 1.516.611 2.919 1.661 3.93a7.957 7.957 0 00-1.458 4.62 8.042 8.042 0 005.382 7.59v.01c0 4.433 3.607 8.04 8.04 8.04 3.629 0 6.75-2.448 7.725-5.815a5.434 5.434 0 002.388-.147 8.87 8.87 0 01.27 3.018l-.596 7.155a10.055 10.055 0 01-5.217 7.966H11.983a1.346 1.346 0 000 2.691h48.681a1.346 1.346 0 000-2.691h-9.74a10.954 10.954 0 01-5.916-8.283l-.78-5.581c2.182-.858 3.206-2.78 3.59-4.368 3.355-.061 6.24-2.355 7.143-5.487.276.03.554.046.833.046 4.178 0 7.577-3.4 7.577-7.577 0-.052 0-.103-.002-.155 2.173-.746 3.728-2.82 3.728-5.21 0-1.09-.32-2.14-.908-3.03a9.145 9.145 0 002.808-6.592zM46.343 69.308h-19.54a12.747 12.747 0 003.514-7.741l.597-7.156a11.516 11.516 0 00-4.396-10.058l-6.644-5.194 6.559 2.295a5.123 5.123 0 004.551-.565 5.124 5.124 0 002.306-3.964l.299-4.477a11.867 11.867 0 00-1.656-6.88 6.024 6.024 0 006.032-1.139c-.544 2.122-.683 4.357-.413 6.653l.268 2.283a2.29 2.29 0 001.468 1.88 2.29 2.29 0 002.345-.434l3.054-2.726-2.265 3.5a14.976 14.976 0 00-2.258 10.202l2.178 15.61a13.64 13.64 0 004.001 7.911zM63.5 28.395a1.345 1.345 0 00-.103 2.14 2.815 2.815 0 011.01 2.159 2.823 2.823 0 01-2.602 2.805 1.346 1.346 0 00-1.22 1.607 4.89 4.89 0 01-6.284 5.605 1.345 1.345 0 00-1.753 1.177c-.196 2.523-2.334 4.499-4.867 4.499-.267 0-.537-.022-.802-.065a1.344 1.344 0 00-1.561 1.305c-.002.1-.055 2.009-1.483 2.993l-1.006-7.205c-.408-2.92.25-5.893 1.852-8.369l7.692-11.887a1.346 1.346 0 00-2.026-1.735l-9.943 8.875-.18-1.532c-.257-2.186-.083-4.297.517-6.274.144-.477.314-.953.505-1.414l2.22-5.377a1.346 1.346 0 00-2.287-1.363l-4.626 5.687a3.307 3.307 0 01-4.462.612l-8.883-6.275a1.345 1.345 0 00-1.728 2.05l6.755 6.756a9.177 9.177 0 012.668 7.1l-.298 4.476a2.454 2.454 0 01-1.105 1.898c-.65.43-1.443.528-2.178.27l-14.261-4.99a1.346 1.346 0 00-1.273 2.33l13.072 10.22a8.869 8.869 0 011.996 2.191 2.736 2.736 0 01-1.703-.289 1.346 1.346 0 00-1.97 1.096 5.364 5.364 0 01-5.334 4.969 5.355 5.355 0 01-5.287-6.166 1.346 1.346 0 00-1.083-1.526 5.346 5.346 0 01-4.361-5.256c0-1.481.593-2.86 1.671-3.882a1.345 1.345 0 00-.33-2.183 2.755 2.755 0 01-1.544-2.485c0-1.004.547-1.932 1.426-2.422a1.346 1.346 0 00.128-2.27 6.64 6.64 0 01-2.774-5.386 6.62 6.62 0 015.83-6.573 1.346 1.346 0 001.038-1.952 2.192 2.192 0 013.115-2.848 1.345 1.345 0 002.061-1.058 6.626 6.626 0 016.61-6.222c1.782 0 3.456.7 4.712 1.972a1.345 1.345 0 001.973-.063 5.35 5.35 0 017.005-.947 1.345 1.345 0 002.009-.648 2.832 2.832 0 012.64-1.834c1.186 0 2.252.75 2.651 1.865a1.345 1.345 0 002.116.59 5.357 5.357 0 013.37-1.196 5.355 5.355 0 015.288 6.159 1.346 1.346 0 001.035 1.511 2.833 2.833 0 012.192 2.746c0 .212-.024.425-.072.634a1.346 1.346 0 001.186 1.643 6.424 6.424 0 015.852 6.429 6.458 6.458 0 01-2.805 5.323z"/></g><defs><clipPath id="clip0"><path fill="#fff" d="M0 0h72v72H0z"/></clipPath></defs></svg>