<svg width="72" height="72" fill="none" xmlns="http://www.w3.org/2000/svg"><path d="M59.625 31.5a1.125 1.125 0 00-1.125 1.125 7.875 7.875 0 01-7.875 7.875h-4.376a7.875 7.875 0 015.501-2.25 1.125 1.125 0 100-2.25c-2.06 0-4.07.632-5.76 1.811a7.876 7.876 0 016.885-4.061 1.125 1.125 0 100-2.25 10.125 10.125 0 00-10.125 9.99A9.878 9.878 0 0041.693 45h-2.318V30.375c0-2.35.568-4.666 1.654-6.75h6.221A14.625 14.625 0 0061.875 9a1.125 1.125 0 00-1.125-1.125H54a14.625 14.625 0 00-14.625 14.029v.056-11.835a3.375 3.375 0 00-6.367-1.53 10.125 10.125 0 00-9.383-6.345h-6.75a1.125 1.125 0 00-1.125 1.125A10.125 10.125 0 0025.875 13.5h5.974a7.739 7.739 0 01.776 3.375v15.21-.056A16.875 16.875 0 0015.75 15.75h-9a1.125 1.125 0 00-1.125 1.125A16.875 16.875 0 0022.5 33.75h8.471a14.626 14.626 0 011.654 6.75v1.125a1.125 1.125 0 102.25 0v-31.5a1.125 1.125 0 112.25 0V45H22.5a1.125 1.125 0 00-1.125 1.294l1.35 9 .337 2.25 1.013 6.75a1.138 1.138 0 002.25-.338l-.832-5.456h17.82a1.125 1.125 0 100-2.25H25.154l-.248-1.688-.09-.562h22.365l-2.025 13.5H25.875a1.125 1.125 0 100 2.25h20.25a1.125 1.125 0 001.125-.956l3.375-22.5A1.124 1.124 0 0049.5 45h-5.535c.11-.781.342-1.54.686-2.25h5.974A10.126 10.126 0 0060.75 32.625a1.125 1.125 0 00-1.125-1.125zM7.875 18h7.875a14.625 14.625 0 0113.984 10.384A16.931 16.931 0 0018 23.625a1.125 1.125 0 100 2.25A14.624 14.624 0 0129.52 31.5H22.5A14.625 14.625 0 017.875 18zM18 4.5h5.625a7.875 7.875 0 016.885 4.061 10.058 10.058 0 00-5.76-1.811 1.125 1.125 0 000 2.25 7.875 7.875 0 015.501 2.25h-4.376a7.875 7.875 0 01-7.796-6.75H18zm36 5.625h5.625a12.375 12.375 0 01-12.375 11.25h-4.77A14.624 14.624 0 0154 15.75a1.125 1.125 0 100-2.25 16.94 16.94 0 00-11.565 4.601A12.375 12.375 0 0154 10.125zM47.52 51.75H24.48l-.675-4.5h24.39l-.675 4.5z" fill="#20A35A"/><path d="M59.625 31.5a1.125 1.125 0 00-1.125 1.125 7.875 7.875 0 01-7.875 7.875h-4.376a7.875 7.875 0 015.501-2.25 1.125 1.125 0 100-2.25c-2.06 0-4.07.632-5.76 1.811a7.876 7.876 0 016.885-4.061 1.125 1.125 0 100-2.25 10.125 10.125 0 00-10.125 9.99A9.878 9.878 0 0041.693 45h-2.318V30.375c0-2.35.568-4.666 1.654-6.75h6.221A14.625 14.625 0 0061.875 9a1.125 1.125 0 00-1.125-1.125H54a14.625 14.625 0 00-14.625 14.029v.056-11.835a3.375 3.375 0 00-6.367-1.53 10.125 10.125 0 00-9.383-6.345h-6.75a1.125 1.125 0 00-1.125 1.125A10.125 10.125 0 0025.875 13.5h5.974a7.739 7.739 0 01.776 3.375v15.21-.056A16.875 16.875 0 0015.75 15.75h-9a1.125 1.125 0 00-1.125 1.125A16.875 16.875 0 0022.5 33.75h8.471a14.626 14.626 0 011.654 6.75v1.125a1.125 1.125 0 102.25 0v-31.5a1.125 1.125 0 112.25 0V45H22.5a1.125 1.125 0 00-1.125 1.294l1.35 9 .337 2.25 1.013 6.75a1.138 1.138 0 002.25-.338l-.832-5.456h17.82a1.125 1.125 0 100-2.25H25.154l-.248-1.688-.09-.562h22.365l-2.025 13.5H25.875a1.125 1.125 0 100 2.25h20.25a1.125 1.125 0 001.125-.956l3.375-22.5A1.124 1.124 0 0049.5 45h-5.535c.11-.781.342-1.54.686-2.25h5.974A10.126 10.126 0 0060.75 32.625a1.125 1.125 0 00-1.125-1.125zM7.875 18h7.875a14.625 14.625 0 0113.984 10.384A16.931 16.931 0 0018 23.625a1.125 1.125 0 100 2.25A14.624 14.624 0 0129.52 31.5H22.5A14.625 14.625 0 017.875 18zM18 4.5h5.625a7.875 7.875 0 016.885 4.061 10.058 10.058 0 00-5.76-1.811 1.125 1.125 0 000 2.25 7.875 7.875 0 015.501 2.25h-4.376a7.875 7.875 0 01-7.796-6.75H18zm36 5.625h5.625a12.375 12.375 0 01-12.375 11.25h-4.77A14.624 14.624 0 0154 15.75a1.125 1.125 0 100-2.25 16.94 16.94 0 00-11.565 4.601A12.375 12.375 0 0154 10.125zM47.52 51.75H24.48l-.675-4.5h24.39l-.675 4.5z" fill="#2CBB6B"/></svg>