<svg width="72" height="72" fill="none" xmlns="http://www.w3.org/2000/svg"><path d="M70.875 49.5c0-2.595-.988-5.037-2.731-6.9a15.651 15.651 0 002.731-8.85c0-8.406-6.624-15.274-14.923-15.708C54.354 8.46 46.028 1.125 36 1.125c-10.028 0-18.354 7.335-19.952 16.917-8.299.434-14.923 7.302-14.923 15.708 0 3.28 1.01 6.326 2.732 8.85a10.061 10.061 0 00-2.732 6.9c0 5.203 3.945 9.497 9 10.059v9.066h-9v2.25h69.75v-2.25h-9v-9.066c5.055-.562 9-4.856 9-10.059zm-2.25 0c0 3.959-2.94 7.236-6.75 7.785v-2.82l3.045-3.045-1.59-1.59-2.58 2.58-2.58-2.58-1.59 1.59 3.045 3.046v2.819c-3.81-.549-6.75-3.826-6.75-7.785 0-.056.009-.11.01-.164.737.104 1.484.164 2.24.164 4.588 0 8.71-1.983 11.592-5.124a7.829 7.829 0 011.908 5.124zM15.804 20.305c-.02.357-.054.709-.054 1.07 0 1.196.106 2.398.314 3.572l2.215-.394A18.318 18.318 0 0118 21.375c0-9.925 8.075-18 18-18s18 8.075 18 18a18.27 18.27 0 01-.279 3.178l2.215.394c.208-1.174.314-2.376.314-3.572 0-.361-.035-.714-.054-1.071 6.944.549 12.429 6.363 12.429 13.446 0 7.444-6.056 13.5-13.5 13.5-2.39 0-4.689-.626-6.729-1.806l4.945-4.944h7.409v-2.25h-7.875c-.3 0-.585.118-.795.33L39.375 51.284v-3.568l10.92-10.92c.212-.211.33-.497.33-.796v-7.875h-2.25v7.41l-4.943 4.943a13.51 13.51 0 01-.666-1.308 1.126 1.126 0 00-1.367-.62 18.14 18.14 0 01-2.024.493v-9.328l6.42-6.42-1.59-1.592-6.75 6.75c-.212.212-.33.498-.33.797v39.375h-2.25V29.25c0-.3-.118-.585-.33-.795l-6.75-6.75-1.59 1.59 6.42 6.42v9.33a18.264 18.264 0 01-2.024-.495 1.128 1.128 0 00-1.368.621c-.196.447-.418.883-.664 1.309l-4.944-4.946v-7.409h-2.25V36c0 .3.118.585.33.795l10.92 10.92v3.57L19.92 38.58a1.12 1.12 0 00-.795-.33H11.25v2.25h7.41l4.944 4.944a13.376 13.376 0 01-6.729 1.806c-7.444 0-13.5-6.056-13.5-13.5 0-7.085 5.489-12.9 12.429-13.445zm23.571 21.03c.59-.1 1.177-.216 1.757-.368.203.392.427.774.663 1.148l-2.42 2.42v-3.2zm-6.75 3.2l-2.419-2.42c.235-.374.46-.757.662-1.148.58.152 1.168.268 1.757.368v3.2zM3.375 49.5a7.83 7.83 0 011.908-5.124c2.881 3.14 7.004 5.124 11.592 5.124.756 0 1.503-.06 2.24-.164.001.055.01.108.01.164 0 3.959-2.94 7.236-6.75 7.785v-2.82l3.045-3.045-1.59-1.59-2.58 2.58-2.58-2.58-1.59 1.59 3.045 3.046v2.819c-3.81-.549-6.75-3.826-6.75-7.785zm9 10.059c5.055-.562 9-4.856 9-10.059 0-.215-.026-.433-.04-.65a15.59 15.59 0 003.907-1.767l7.383 7.383v14.159h-20.25v-9.066zm27 9.066v-14.16l7.382-7.382a15.552 15.552 0 003.907 1.767c-.013.217-.039.435-.039.65 0 5.203 3.945 9.497 9 10.059v9.066h-20.25z" fill="#22A2EA"/><path d="M70.875 49.5c0-2.595-.988-5.037-2.731-6.9a15.651 15.651 0 002.731-8.85c0-8.406-6.624-15.274-14.923-15.708C54.354 8.46 46.028 1.125 36 1.125c-10.028 0-18.354 7.335-19.952 16.917-8.299.434-14.923 7.302-14.923 15.708 0 3.28 1.01 6.326 2.732 8.85a10.061 10.061 0 00-2.732 6.9c0 5.203 3.945 9.497 9 10.059v9.066h-9v2.25h69.75v-2.25h-9v-9.066c5.055-.562 9-4.856 9-10.059zm-2.25 0c0 3.959-2.94 7.236-6.75 7.785v-2.82l3.045-3.045-1.59-1.59-2.58 2.58-2.58-2.58-1.59 1.59 3.045 3.046v2.819c-3.81-.549-6.75-3.826-6.75-7.785 0-.056.009-.11.01-.164.737.104 1.484.164 2.24.164 4.588 0 8.71-1.983 11.592-5.124a7.829 7.829 0 011.908 5.124zM15.804 20.305c-.02.357-.054.709-.054 1.07 0 1.196.106 2.398.314 3.572l2.215-.394A18.318 18.318 0 0118 21.375c0-9.925 8.075-18 18-18s18 8.075 18 18a18.27 18.27 0 01-.279 3.178l2.215.394c.208-1.174.314-2.376.314-3.572 0-.361-.035-.714-.054-1.071 6.944.549 12.429 6.363 12.429 13.446 0 7.444-6.056 13.5-13.5 13.5-2.39 0-4.689-.626-6.729-1.806l4.945-4.944h7.409v-2.25h-7.875c-.3 0-.585.118-.795.33L39.375 51.284v-3.568l10.92-10.92c.212-.211.33-.497.33-.796v-7.875h-2.25v7.41l-4.943 4.943a13.51 13.51 0 01-.666-1.308 1.126 1.126 0 00-1.367-.62 18.14 18.14 0 01-2.024.493v-9.328l6.42-6.42-1.59-1.592-6.75 6.75c-.212.212-.33.498-.33.797v39.375h-2.25V29.25c0-.3-.118-.585-.33-.795l-6.75-6.75-1.59 1.59 6.42 6.42v9.33a18.264 18.264 0 01-2.024-.495 1.128 1.128 0 00-1.368.621c-.196.447-.418.883-.664 1.309l-4.944-4.946v-7.409h-2.25V36c0 .3.118.585.33.795l10.92 10.92v3.57L19.92 38.58a1.12 1.12 0 00-.795-.33H11.25v2.25h7.41l4.944 4.944a13.376 13.376 0 01-6.729 1.806c-7.444 0-13.5-6.056-13.5-13.5 0-7.085 5.489-12.9 12.429-13.445zm23.571 21.03c.59-.1 1.177-.216 1.757-.368.203.392.427.774.663 1.148l-2.42 2.42v-3.2zm-6.75 3.2l-2.419-2.42c.235-.374.46-.757.662-1.148.58.152 1.168.268 1.757.368v3.2zM3.375 49.5a7.83 7.83 0 011.908-5.124c2.881 3.14 7.004 5.124 11.592 5.124.756 0 1.503-.06 2.24-.164.001.055.01.108.01.164 0 3.959-2.94 7.236-6.75 7.785v-2.82l3.045-3.045-1.59-1.59-2.58 2.58-2.58-2.58-1.59 1.59 3.045 3.046v2.819c-3.81-.549-6.75-3.826-6.75-7.785zm9 10.059c5.055-.562 9-4.856 9-10.059 0-.215-.026-.433-.04-.65a15.59 15.59 0 003.907-1.767l7.383 7.383v14.159h-20.25v-9.066zm27 9.066v-14.16l7.382-7.382a15.552 15.552 0 003.907 1.767c-.013.217-.039.435-.039.65 0 5.203 3.945 9.497 9 10.059v9.066h-20.25z" fill="#2B71FD"/><path d="M70.875 49.5c0-2.595-.988-5.037-2.731-6.9a15.651 15.651 0 002.731-8.85c0-8.406-6.624-15.274-14.923-15.708C54.354 8.46 46.028 1.125 36 1.125c-10.028 0-18.354 7.335-19.952 16.917-8.299.434-14.923 7.302-14.923 15.708 0 3.28 1.01 6.326 2.732 8.85a10.061 10.061 0 00-2.732 6.9c0 5.203 3.945 9.497 9 10.059v9.066h-9v2.25h69.75v-2.25h-9v-9.066c5.055-.562 9-4.856 9-10.059zm-2.25 0c0 3.959-2.94 7.236-6.75 7.785v-2.82l3.045-3.045-1.59-1.59-2.58 2.58-2.58-2.58-1.59 1.59 3.045 3.046v2.819c-3.81-.549-6.75-3.826-6.75-7.785 0-.056.009-.11.01-.164.737.104 1.484.164 2.24.164 4.588 0 8.71-1.983 11.592-5.124a7.829 7.829 0 011.908 5.124zM15.804 20.305c-.02.357-.054.709-.054 1.07 0 1.196.106 2.398.314 3.572l2.215-.394A18.318 18.318 0 0118 21.375c0-9.925 8.075-18 18-18s18 8.075 18 18a18.27 18.27 0 01-.279 3.178l2.215.394c.208-1.174.314-2.376.314-3.572 0-.361-.035-.714-.054-1.071 6.944.549 12.429 6.363 12.429 13.446 0 7.444-6.056 13.5-13.5 13.5-2.39 0-4.689-.626-6.729-1.806l4.945-4.944h7.409v-2.25h-7.875c-.3 0-.585.118-.795.33L39.375 51.284v-3.568l10.92-10.92c.212-.211.33-.497.33-.796v-7.875h-2.25v7.41l-4.943 4.943a13.51 13.51 0 01-.666-1.308 1.126 1.126 0 00-1.367-.62 18.14 18.14 0 01-2.024.493v-9.328l6.42-6.42-1.59-1.592-6.75 6.75c-.212.212-.33.498-.33.797v39.375h-2.25V29.25c0-.3-.118-.585-.33-.795l-6.75-6.75-1.59 1.59 6.42 6.42v9.33a18.264 18.264 0 01-2.024-.495 1.128 1.128 0 00-1.368.621c-.196.447-.418.883-.664 1.309l-4.944-4.946v-7.409h-2.25V36c0 .3.118.585.33.795l10.92 10.92v3.57L19.92 38.58a1.12 1.12 0 00-.795-.33H11.25v2.25h7.41l4.944 4.944a13.376 13.376 0 01-6.729 1.806c-7.444 0-13.5-6.056-13.5-13.5 0-7.085 5.489-12.9 12.429-13.445zm23.571 21.03c.59-.1 1.177-.216 1.757-.368.203.392.427.774.663 1.148l-2.42 2.42v-3.2zm-6.75 3.2l-2.419-2.42c.235-.374.46-.757.662-1.148.58.152 1.168.268 1.757.368v3.2zM3.375 49.5a7.83 7.83 0 011.908-5.124c2.881 3.14 7.004 5.124 11.592 5.124.756 0 1.503-.06 2.24-.164.001.055.01.108.01.164 0 3.959-2.94 7.236-6.75 7.785v-2.82l3.045-3.045-1.59-1.59-2.58 2.58-2.58-2.58-1.59 1.59 3.045 3.046v2.819c-3.81-.549-6.75-3.826-6.75-7.785zm9 10.059c5.055-.562 9-4.856 9-10.059 0-.215-.026-.433-.04-.65a15.59 15.59 0 003.907-1.767l7.383 7.383v14.159h-20.25v-9.066zm27 9.066v-14.16l7.382-7.382a15.552 15.552 0 003.907 1.767c-.013.217-.039.435-.039.65 0 5.203 3.945 9.497 9 10.059v9.066h-20.25z" fill="#0A6FE7"/></svg>