<svg width="22" height="21" fill="none" xmlns="http://www.w3.org/2000/svg"><g clip-path="url(#clip0)"><path fill-rule="evenodd" clip-rule="evenodd" d="M19.5 20.757h-17a2.01 2.01 0 01-1.414-.579A1.966 1.966 0 01.5 18.78V3.212c0-1.092.895-1.73 2-1.73H4v-.247C4 .553 4.81.044 5.5-.001a1.47 1.47 0 011.075.42A1.437 1.437 0 017 1.483h8v-.247C15 .554 15.81.045 16.5 0a1.47 1.47 0 011.075.42A1.438 1.438 0 0118 1.483h1.5c1.105 0 2 .638 2 1.73V18.78c0 .524-.21 1.027-.586 1.398-.375.37-.884.58-1.414.58zM6 1.482a.527.527 0 00-.156-.34A.539.539 0 005.5.988a.517.517 0 00-.35.148.506.506 0 00-.15.346v2.471a.495.495 0 00.5.494.526.526 0 00.347-.15A.514.514 0 006 3.952v-2.47zm11 0a.527.527 0 00-.156-.34.539.539 0 00-.344-.154.517.517 0 00-.35.148.506.506 0 00-.15.346v2.471a.495.495 0 00.5.494.526.526 0 00.347-.15.514.514 0 00.153-.344V1.482zm3.5 1.73c0-.544-.45-.742-1-.742H18v1.483c0 .393-.158.77-.44 1.049a1.509 1.509 0 01-2.12 0A1.474 1.474 0 0115 3.953V2.47H7v1.483c0 .393-.158.77-.44 1.049a1.509 1.509 0 01-2.12 0A1.474 1.474 0 014 3.953V2.47H2.5c-.55 0-1 .198-1 .742v3.207h19V3.212zm0 4.196h-19V18.78a.98.98 0 00.294.698c.187.185.441.29.706.29h17c.265 0 .519-.105.706-.29a.986.986 0 00.294-.698V7.408zm-8 8.407c-.53 0-1.04-.208-1.414-.58a1.965 1.965 0 01-.586-1.397V11.86c0-.524.21-1.027.586-1.398a2.012 2.012 0 012.828 0c.375.37.586.874.586 1.398v1.977c0 .524-.21 1.027-.586 1.398-.375.37-.884.579-1.414.579zm1-3.954a.983.983 0 00-.293-.7 1.006 1.006 0 00-1.414 0 .983.983 0 00-.293.7v1.977c0 .262.105.513.293.699a1.006 1.006 0 001.414 0 .983.983 0 00.293-.7v-1.976zM9 15.815a.503.503 0 01-.354-.145.491.491 0 01-.146-.35v-4.448H8a.503.503 0 01-.354-.144.491.491 0 010-.7A.503.503 0 018 9.885h1.5v5.436a.491.491 0 01-.146.35.503.503 0 01-.354.145z" fill="#fff"/></g><defs><clipPath id="clip0"><path fill="#fff" d="M.5 0h21v20.758H.5z"/></clipPath></defs></svg>