<svg width="45" height="30" fill="none" xmlns="http://www.w3.org/2000/svg"><path d="M1.09 26.22a.75.75 0 10-.18 1.49l.18-1.49zM37.263.798a.75.75 0 00-.965.44L33.94 7.563a.75.75 0 101.405.525l2.097-5.622 5.621 2.096a.75.75 0 10.525-1.405L37.262.797zM.91 27.71c1.046.127 2.641.4 4.655.717 2 .314 4.378.667 6.943.945 5.116.554 11.021.817 16.155-.139 5.122-.954 9.652-3.157 11.72-7.688 2.056-4.503 1.555-11.042-2.7-20.357l-1.364.624c4.195 9.185 4.481 15.208 2.7 19.11-1.77 3.875-5.703 5.92-10.63 6.836-4.917.915-10.648.672-15.72.122-2.53-.274-4.881-.622-6.871-.935-1.975-.311-3.627-.593-4.706-.724L.909 27.71z" fill="#20A35A"/><path d="M1.09 26.22a.75.75 0 10-.18 1.49l.18-1.49zM37.263.798a.75.75 0 00-.965.44L33.94 7.563a.75.75 0 101.405.525l2.097-5.622 5.621 2.096a.75.75 0 10.525-1.405L37.262.797zM.91 27.71c1.046.127 2.641.4 4.655.717 2 .314 4.378.667 6.943.945 5.116.554 11.021.817 16.155-.139 5.122-.954 9.652-3.157 11.72-7.688 2.056-4.503 1.555-11.042-2.7-20.357l-1.364.624c4.195 9.185 4.481 15.208 2.7 19.11-1.77 3.875-5.703 5.92-10.63 6.836-4.917.915-10.648.672-15.72.122-2.53-.274-4.881-.622-6.871-.935-1.975-.311-3.627-.593-4.706-.724L.909 27.71z" fill="#2CBB6B"/></svg>