<svg width="213" height="48" fill="none" xmlns="http://www.w3.org/2000/svg"><path d="M46.105 17.746h7.152v15.075l10.599-15.075h6.82V43.42h-7.152V28.382L52.962 43.419h-6.858V17.746zm55.416 0V43.42H94.26V33.407h-9.904v10.012h-7.261V17.746h7.261v9.646h9.904v-9.646h7.261zm31.281 0l-10.67 19.842c-2.274 4.29-5.611 6.492-9.463 6.492-1.468 0-2.972-.33-4.548-.955l1.725-5.354c.989.294 1.796.44 2.568.44 1.43 0 2.457-.586 3.412-1.981l-9.997-18.484h7.665l5.998 12.398 6.232-12.398h7.078zm26.66 0V43.42h-7.153v-8.728c-1.982.66-3.778.99-5.465.99-7.187 0-11.076-3.521-11.076-10.05v-7.885h7.152v7.078c0 3.338 1.65 4.95 4.842 4.95 1.687 0 3.263-.291 4.547-.877v-11.15h7.153zm27.031 20.062v5.611h-20.611V17.746h20.134v5.611h-12.947v4.327h11.405v5.428h-11.405v4.696h13.424zm25.746-14.303h-7.847v19.916h-7.153V23.505h-7.885v-5.757h22.885v5.757z" fill="#062769"/><path d="M42.176 31.56c0-6.66-4.59-10.681-13.154-11.318V3c-.663 1.005-2.048 2.632-3.836 4.507v37.121h3.836V42.84c8.599-.562 13.154-4.656 13.154-11.28zM29.02 37.18V25.938c4.117.51 6.112 2.263 6.112 5.585 0 3.321-1.889 5.146-6.112 5.658zM13.103 20.248C4.571 20.964 0 24.912 0 31.558c0 6.61 4.571 10.593 13.103 11.275v1.793h3.834V15.17a56.128 56.128 0 01-3.837 2.892v2.186h.003zM7.041 31.56c0-3.345 1.841-5.064 6.062-5.614v11.19c-3.982-.551-6.062-2.27-6.062-5.576zm12.102 13.068h3.837V9.741a97.197 97.197 0 01-3.837 3.56v31.327z" fill="#FFC93F"/></svg>