<svg width="22" height="22" fill="none" xmlns="http://www.w3.org/2000/svg"><g clip-path="url(#clip0)"><path fill-rule="evenodd" clip-rule="evenodd" d="M15.962 19.925l1.681.599a.49.49 0 01.04.914.51.51 0 01-.385.017L13.9 20.242l1.236-3.329a.493.493 0 01.262-.279.506.506 0 01.384-.013.49.49 0 01.33.439.48.48 0 01-.03.19l-.676 1.828c1.957-.887 3.368-2.7 4.289-4.631a8.459 8.459 0 00.295-6.617 8.422 8.422 0 00-3.134-4.084 8.558 8.558 0 00-4.947-1.523.505.505 0 01-.507-.292.49.49 0 01.3-.672.505.505 0 01.207-.022 9.507 9.507 0 015.495 1.706 9.354 9.354 0 013.471 4.55c1.767 4.76-.31 10.346-4.913 12.432zm-5.55 1.064a9.79 9.79 0 01-5.58-1.577 9.64 9.64 0 01-3.676-4.445C-.69 10.469 1.511 4.784 5.96 2.57c.17-.085.345-.144.515-.218l-1.826-.654a.495.495 0 01-.33-.44.502.502 0 01.29-.47.51.51 0 01.385-.016L8.386 1.98 7.151 5.308a.496.496 0 01-.47.327.499.499 0 01-.458-.285.49.49 0 01-.018-.378l.63-1.7c-.14.06-.285.11-.42.18-4.003 1.98-6.02 7.107-4.323 11.173a8.679 8.679 0 003.314 3.973 8.813 8.813 0 005.007 1.406.506.506 0 01.507.292.49.49 0 01-.3.671.504.504 0 01-.207.023z" fill="#fff"/></g><defs><clipPath id="clip0"><path fill="#fff" d="M.5.731h21v20.758H.5z"/></clipPath></defs></svg>