<svg width="16" height="21" fill="none" xmlns="http://www.w3.org/2000/svg"><g clip-path="url(#clip0)" fill-rule="evenodd" clip-rule="evenodd" fill="#fff"><path d="M13.035 19.473L11.5 20.758l-1.75-1.285L8 20.758l-1.75-1.285-1.75 1.285-1.535-1.285L.5 20.698V1.947A1.926 1.926 0 011.087.559 1.97 1.97 0 012.5-.001h11a1.988 1.988 0 011.413.56 1.944 1.944 0 01.587 1.388v18.81l-2.465-1.284zM14.5 1.947a.95.95 0 00-.295-.688.972.972 0 00-.705-.27h-11a.982.982 0 00-.705.27.96.96 0 00-.295.688v17.328l1.535-.954 1.485.989 1.73-.989L8 19.32l1.75-.998 1.73.989 1.485-.989 1.535.954V1.947zm-2 14.363h-5a.503.503 0 01-.354-.145.491.491 0 010-.7.503.503 0 01.354-.144h5c.133 0 .26.052.354.145a.492.492 0 01-.354.844zm0-1.977h-9a.503.503 0 01-.354-.145.491.491 0 01.354-.844h9c.133 0 .26.052.354.145a.492.492 0 01-.354.844zm-9 .988h2c.133 0 .26.052.354.145a.492.492 0 01-.354.844h-2a.503.503 0 01-.354-.145.491.491 0 010-.7.503.503 0 01.354-.144z"/><path d="M8.625 7.908H7.5v.494H8c.133 0 .26.052.354.145A.491.491 0 018 9.39h-.5v.988a.491.491 0 01-.146.35.503.503 0 01-.854-.35V9.39H6a.503.503 0 01-.354-.145A.491.491 0 016 8.402h.5V3.954h2.125c.509.032.986.254 1.335.621a1.969 1.969 0 010 2.712c-.35.367-.826.589-1.335.62zM7.5 4.942h1.125c.242.033.464.15.625.332a.99.99 0 010 1.313c-.16.182-.383.3-.625.332H7.5V4.942z"/></g><defs><clipPath id="clip0"><path fill="#fff" d="M.5 0h15v20.758H.5z"/></clipPath></defs></svg>