<svg width="20" height="20" fill="none" xmlns="http://www.w3.org/2000/svg"><g clip-path="url(#clip0)"><path fill-rule="evenodd" clip-rule="evenodd" d="M18.57 19.048l-13.056.947C5.46 20 5.409 20 5.357 20a2.037 2.037 0 01-1.424-.533 1.666 1.666 0 01-.6-1.372H1.904C.833 18.095 0 16.885 0 15.715V2.123A2.041 2.041 0 011.942 0h16.114A2.041 2.041 0 0120 2.124v14.662c.053 1.133-.41 2.238-1.428 2.262zM4.267 11.09l.02 1.29h.951c.639-.076.953-.31.953-.952v-.953a.914.914 0 00-.195-.78 1.509 1.509 0 00-.758-.172l-.966.171-.005 1.396zM.952 15.713c0 .643.405 1.429.952 1.429h1.429v-10H.952v8.571zM1.942.952a1.091 1.091 0 00-.99 1.172V6.19h2.38V4.762c0-1.057.33-1.838 1.43-1.905l11.87-.952c.286-.034.43-.148.51-.953h-15.2zm17.105 1.172a1.342 1.342 0 00-.952-1.172c-.105 1.129-.5 1.79-1.429 1.905L4.761 3.81c-.576.033-.476.457-.476.952l-.01 3.81h.962c.502-.043 1 .107 1.396.418.376.339.51.739.51 1.486v.953c0 1.119-.796 1.766-1.906 1.904h-.976l-.014 4.562a1.165 1.165 0 00.338.877 1.116 1.116 0 00.857.276l13.129-.953c.433-.08.476-.738.476-1.31V2.125z" fill="#fff"/></g><defs><clipPath id="clip0"><path fill="#fff" d="M0 0h20v20H0z"/></clipPath></defs></svg>